<?xml version="1.0" encoding="UTF-8"?> <svg xmlns="http://www.w3.org/2000/svg" width="209" height="158" viewBox="0 0 209 158" fill="none"> <path d="M35 13L48 12V2H55V12L160 31V23H165V27L175 25L181 29V67L171 85L206 90L180 147.5V156L129 147L101 153V135L64.5 116L27.5 97L6 100V80H3L32 10L35 13Z" stroke="#FFE600" stroke-width="3"></path> <mask id="mask0" maskUnits="userSpaceOnUse" x="3" y="2" width="203" height="154"> <path d="M35 13L48 12V2H55V12L160 31V23H165V27L175 25L181 29V67L171 85L206 90L180 147.5V156L129 147L101 153V135L64.5 116L27.5 97L6 100V80H3L32 10L35 13Z" fill="#FFE600"></path> </mask> <g mask="url(#mask0)"> <rect x="-131" y="84.4163" width="4" height="326" transform="rotate(-45 -131 84.4163)" fill="#FFE600"></rect> <rect x="-125.344" y="78.7595" width="4" height="326" transform="rotate(-45 -125.344 78.7595)" fill="#FFE600"></rect> <rect x="-119.686" y="73.1025" width="4" height="326" transform="rotate(-45 -119.686 73.1025)" fill="#FFE600"></rect> <rect x="-114.029" y="67.4458" width="4" height="326" transform="rotate(-45 -114.029 67.4458)" fill="#FFE600"></rect> <rect x="-108.373" y="61.7888" width="4" height="326" transform="rotate(-45 -108.373 61.7888)" fill="#FFE600"></rect> <rect x="-102.715" y="56.1321" width="4" height="326" transform="rotate(-45 -102.715 56.1321)" fill="#FFE600"></rect> <rect x="-97.0586" y="50.4751" width="4" height="326" transform="rotate(-45 -97.0586 50.4751)" fill="#FFE600"></rect> <rect x="-91.4023" y="44.8184" width="4" height="326" transform="rotate(-45 -91.4023 44.8184)" fill="#FFE600"></rect> <rect x="-85.7461" y="39.1614" width="4" height="326" transform="rotate(-45 -85.7461 39.1614)" fill="#FFE600"></rect> <rect x="-80.0879" y="33.5046" width="4" height="326" transform="rotate(-45 -80.0879 33.5046)" fill="#FFE600"></rect> <rect x="-74.4316" y="27.8477" width="4" height="326" transform="rotate(-45 -74.4316 27.8477)" fill="#FFE600"></rect> <rect x="-68.7754" y="22.1909" width="4" height="326" transform="rotate(-45 -68.7754 22.1909)" fill="#FFE600"></rect> <rect x="-63.1172" y="16.5339" width="4" height="326" transform="rotate(-45 -63.1172 16.5339)" fill="#FFE600"></rect> <rect x="-57.4609" y="10.8772" width="4" height="326" transform="rotate(-45 -57.4609 10.8772)" fill="#FFE600"></rect> <rect x="-51.8047" y="5.22021" width="4" height="326" transform="rotate(-45 -51.8047 5.22021)" fill="#FFE600"></rect> <rect x="-46.1465" y="-0.436523" width="4" height="326" transform="rotate(-45 -46.1465 -0.436523)" fill="#FFE600"></rect> <rect x="-40.4902" y="-6.09351" width="4" height="326" transform="rotate(-45 -40.4902 -6.09351)" fill="#FFE600"></rect> <rect x="-34.834" y="-11.7502" width="4" height="326" transform="rotate(-45 -34.834 -11.7502)" fill="#FFE600"></rect> <rect x="-29.1758" y="-17.4072" width="4" height="326" transform="rotate(-45 -29.1758 -17.4072)" fill="#FFE600"></rect> <rect x="-23.5195" y="-23.064" width="4" height="326" transform="rotate(-45 -23.5195 -23.064)" fill="#FFE600"></rect> <rect x="-17.8633" y="-28.7207" width="4" height="326" transform="rotate(-45 -17.8633 -28.7207)" fill="#FFE600"></rect> <rect x="-12.207" y="-34.3777" width="4" height="326" transform="rotate(-45 -12.207 -34.3777)" fill="#FFE600"></rect> <rect x="-6.54883" y="-40.0344" width="4" height="326" transform="rotate(-45 -6.54883 -40.0344)" fill="#FFE600"></rect> <rect x="-0.892578" y="-45.6914" width="4" height="326" transform="rotate(-45 -0.892578 -45.6914)" fill="#FFE600"></rect> <rect x="4.76367" y="-51.3481" width="4" height="326" transform="rotate(-45 4.76367 -51.3481)" fill="#FFE600"></rect> <rect x="10.4219" y="-57.0051" width="4" height="326" transform="rotate(-45 10.4219 -57.0051)" fill="#FFE600"></rect> <rect x="16.0781" y="-62.6619" width="4" height="326" transform="rotate(-45 16.0781 -62.6619)" fill="#FFE600"></rect> <rect x="21.7344" y="-68.3188" width="4" height="326" transform="rotate(-45 21.7344 -68.3188)" fill="#FFE600"></rect> <rect x="27.3926" y="-73.9756" width="4" height="326" transform="rotate(-45 27.3926 -73.9756)" fill="#FFE600"></rect> <rect x="33.0488" y="-79.6326" width="4" height="326" transform="rotate(-45 33.0488 -79.6326)" fill="#FFE600"></rect> <rect x="38.7051" y="-85.2893" width="4" height="326" transform="rotate(-45 38.7051 -85.2893)" fill="#FFE600"></rect> <rect x="44.3633" y="-90.9463" width="4" height="326" transform="rotate(-45 44.3633 -90.9463)" fill="#FFE600"></rect> <rect x="50.0195" y="-96.603" width="4" height="326" transform="rotate(-45 50.0195 -96.603)" fill="#FFE600"></rect> <rect x="55.6758" y="-102.26" width="4" height="326" transform="rotate(-45 55.6758 -102.26)" fill="#FFE600"></rect> <rect x="61.334" y="-107.917" width="4" height="326" transform="rotate(-45 61.334 -107.917)" fill="#FFE600"></rect> <rect x="66.9902" y="-113.574" width="4" height="326" transform="rotate(-45 66.9902 -113.574)" fill="#FFE600"></rect> <rect x="72.6465" y="-119.23" width="4" height="326" transform="rotate(-45 72.6465 -119.23)" fill="#FFE600"></rect> <rect x="78.3027" y="-124.887" width="4" height="326" transform="rotate(-45 78.3027 -124.887)" fill="#FFE600"></rect> <rect x="83.9609" y="-130.544" width="4" height="326" transform="rotate(-45 83.9609 -130.544)" fill="#FFE600"></rect> <rect x="89.6172" y="-136.201" width="4" height="326" transform="rotate(-45 89.6172 -136.201)" fill="#FFE600"></rect> <rect x="95.2734" y="-141.858" width="4" height="326" transform="rotate(-45 95.2734 -141.858)" fill="#FFE600"></rect> <rect x="100.932" y="-147.515" width="4" height="326" transform="rotate(-45 100.932 -147.515)" fill="#FFE600"></rect> <rect x="106.588" y="-153.172" width="4" height="326" transform="rotate(-45 106.588 -153.172)" fill="#FFE600"></rect> </g> </svg> 