<?xml version="1.0" encoding="UTF-8"?> <svg xmlns="http://www.w3.org/2000/svg" width="24" height="24" viewBox="0 0 24 24" fill="none"> <path fill-rule="evenodd" clip-rule="evenodd" d="M5 19V5H12V3H5C3.89 3 3 3.9 3 5V19C3 19.5304 3.21071 20.0391 3.58579 20.4142C3.96086 20.7893 4.46957 21 5 21H19C19.5304 21 20.0391 20.7893 20.4142 20.4142C20.7893 20.0391 21 19.5304 21 19V12H19V19H5ZM19 6.41421L9.70711 15.7071L8.29289 14.2929L17.5858 5H14V3H20C20.5523 3 21 3.44772 21 4V10H19V6.41421Z" fill="#052D1E"></path> </svg> 