<?xml version="1.0" encoding="UTF-8"?> <svg xmlns="http://www.w3.org/2000/svg" width="143" height="234" viewBox="0 0 143 234" fill="none"> <path d="M118 5L110.5 2.5L104 4V6L87 9.5V8H82V23L2 196V223H5V226L9 224L20 226V229L25 227L36 228V231L40 229L59 230V212L141 32.5V16H136.5V18L118 8V5Z" stroke="#FFE600" stroke-width="3"></path> <mask id="mask0" maskUnits="userSpaceOnUse" x="2" y="2" width="139" height="229"> <path d="M118 5L110.5 2.5L104 4V6L87 9.5V8H82V23L2 196V223H5V226L9 224L20 226V229L25 227L36 228V231L40 229L59 230V212L141 32.5V16H136.5V18L118 8V5Z" fill="#FFE600"></path> </mask> <g mask="url(#mask0)"> <rect x="-169" y="105.416" width="4" height="326" transform="rotate(-45 -169 105.416)" fill="#FFE600"></rect> <rect x="-163.344" y="99.7594" width="4" height="326" transform="rotate(-45 -163.344 99.7594)" fill="#FFE600"></rect> <rect x="-157.686" y="94.1025" width="4" height="326" transform="rotate(-45 -157.686 94.1025)" fill="#FFE600"></rect> <rect x="-152.029" y="88.4458" width="4" height="326" transform="rotate(-45 -152.029 88.4458)" fill="#FFE600"></rect> <rect x="-146.373" y="82.7888" width="4" height="326" transform="rotate(-45 -146.373 82.7888)" fill="#FFE600"></rect> <rect x="-140.715" y="77.1321" width="4" height="326" transform="rotate(-45 -140.715 77.1321)" fill="#FFE600"></rect> <rect x="-135.059" y="71.4751" width="4" height="326" transform="rotate(-45 -135.059 71.4751)" fill="#FFE600"></rect> <rect x="-129.402" y="65.8184" width="4" height="326" transform="rotate(-45 -129.402 65.8184)" fill="#FFE600"></rect> <rect x="-123.746" y="60.1614" width="4" height="326" transform="rotate(-45 -123.746 60.1614)" fill="#FFE600"></rect> <rect x="-118.088" y="54.5046" width="4" height="326" transform="rotate(-45 -118.088 54.5046)" fill="#FFE600"></rect> <rect x="-112.432" y="48.8477" width="4" height="326" transform="rotate(-45 -112.432 48.8477)" fill="#FFE600"></rect> <rect x="-106.775" y="43.1909" width="4" height="326" transform="rotate(-45 -106.775 43.1909)" fill="#FFE600"></rect> <rect x="-101.117" y="37.5339" width="4" height="326" transform="rotate(-45 -101.117 37.5339)" fill="#FFE600"></rect> <rect x="-95.4609" y="31.8772" width="4" height="326" transform="rotate(-45 -95.4609 31.8772)" fill="#FFE600"></rect> <rect x="-89.8047" y="26.2202" width="4" height="326" transform="rotate(-45 -89.8047 26.2202)" fill="#FFE600"></rect> <rect x="-84.1465" y="20.5635" width="4" height="326" transform="rotate(-45 -84.1465 20.5635)" fill="#FFE600"></rect> <rect x="-78.4902" y="14.9065" width="4" height="326" transform="rotate(-45 -78.4902 14.9065)" fill="#FFE600"></rect> <rect x="-72.834" y="9.24976" width="4" height="326" transform="rotate(-45 -72.834 9.24976)" fill="#FFE600"></rect> <rect x="-67.1758" y="3.59277" width="4" height="326" transform="rotate(-45 -67.1758 3.59277)" fill="#FFE600"></rect> <rect x="-61.5195" y="-2.06396" width="4" height="326" transform="rotate(-45 -61.5195 -2.06396)" fill="#FFE600"></rect> <rect x="-55.8633" y="-7.7207" width="4" height="326" transform="rotate(-45 -55.8633 -7.7207)" fill="#FFE600"></rect> <rect x="-50.207" y="-13.3777" width="4" height="326" transform="rotate(-45 -50.207 -13.3777)" fill="#FFE600"></rect> <rect x="-44.5488" y="-19.0344" width="4" height="326" transform="rotate(-45 -44.5488 -19.0344)" fill="#FFE600"></rect> <rect x="-38.8926" y="-24.6914" width="4" height="326" transform="rotate(-45 -38.8926 -24.6914)" fill="#FFE600"></rect> <rect x="-33.2363" y="-30.3481" width="4" height="326" transform="rotate(-45 -33.2363 -30.3481)" fill="#FFE600"></rect> <rect x="-27.5781" y="-36.0051" width="4" height="326" transform="rotate(-45 -27.5781 -36.0051)" fill="#FFE600"></rect> <rect x="-21.9219" y="-41.6619" width="4" height="326" transform="rotate(-45 -21.9219 -41.6619)" fill="#FFE600"></rect> <rect x="-16.2656" y="-47.3188" width="4" height="326" transform="rotate(-45 -16.2656 -47.3188)" fill="#FFE600"></rect> <rect x="-10.6074" y="-52.9756" width="4" height="326" transform="rotate(-45 -10.6074 -52.9756)" fill="#FFE600"></rect> <rect x="-4.95117" y="-58.6326" width="4" height="326" transform="rotate(-45 -4.95117 -58.6326)" fill="#FFE600"></rect> <rect x="0.705078" y="-64.2893" width="4" height="326" transform="rotate(-45 0.705078 -64.2893)" fill="#FFE600"></rect> <rect x="6.36328" y="-69.9463" width="4" height="326" transform="rotate(-45 6.36328 -69.9463)" fill="#FFE600"></rect> <rect x="12.0195" y="-75.603" width="4" height="326" transform="rotate(-45 12.0195 -75.603)" fill="#FFE600"></rect> <rect x="17.6758" y="-81.26" width="4" height="326" transform="rotate(-45 17.6758 -81.26)" fill="#FFE600"></rect> <rect x="23.334" y="-86.9167" width="4" height="326" transform="rotate(-45 23.334 -86.9167)" fill="#FFE600"></rect> <rect x="28.9902" y="-92.5737" width="4" height="326" transform="rotate(-45 28.9902 -92.5737)" fill="#FFE600"></rect> <rect x="34.6465" y="-98.2305" width="4" height="326" transform="rotate(-45 34.6465 -98.2305)" fill="#FFE600"></rect> <rect x="40.3027" y="-103.887" width="4" height="326" transform="rotate(-45 40.3027 -103.887)" fill="#FFE600"></rect> <rect x="45.9609" y="-109.544" width="4" height="326" transform="rotate(-45 45.9609 -109.544)" fill="#FFE600"></rect> <rect x="51.6172" y="-115.201" width="4" height="326" transform="rotate(-45 51.6172 -115.201)" fill="#FFE600"></rect> <rect x="57.2734" y="-120.858" width="4" height="326" transform="rotate(-45 57.2734 -120.858)" fill="#FFE600"></rect> <rect x="62.9316" y="-126.515" width="4" height="326" transform="rotate(-45 62.9316 -126.515)" fill="#FFE600"></rect> <rect x="68.5879" y="-132.172" width="4" height="326" transform="rotate(-45 68.5879 -132.172)" fill="#FFE600"></rect> </g> </svg> 