<?xml version="1.0" encoding="UTF-8"?> <svg xmlns="http://www.w3.org/2000/svg" width="88" height="47" viewBox="0 0 88 47" fill="none"> <path d="M0.5 1.79996L4.9 2.49997L5 3.39996C5.6 2.79996 6.5 2.49998 7.8 2.69998C10.1 3.09998 11.1 4.59998 11.1 7.59998V8.59998L7.2 7.99997V7.89996C7.2 6.79996 6.9 6.09997 6.2 5.99997C5.4 5.89997 5.2 6.49997 5.2 7.99997V13.8L0.699997 13.1V1.79996H0.5Z" fill="#292929"></path> <path d="M12.8999 0.0999756L17.2999 0.799957V3.69998L12.8999 2.99997V0.0999756ZM12.8999 3.89996L17.2999 4.59998V15.9L12.8999 15.2V3.89996Z" fill="#292929"></path> <path d="M32.3999 19.1C31.2999 21.1 29.2 21.6 25.9 21C22 20.4 19.9 18.9 19.5 16.2L25.4 17.2C25.5 17.7 25.9 18 26.5 18.1C27.9 18.3 28.4 17.8 28.4 16.3C28.4 16.1 28.4 15.9 28.4 15.7C27.4 16.4 26.1 16.6 24.5 16.3C21.2 15.8 19.2 13.3 19.2 9.99997C19.2 6.79997 21.3 4.89997 24.5 5.49997C26.1 5.79997 27.5 6.39997 28.6 7.49997V6.39996L32.8 7.09998V15.9C32.8 17.4 32.7999 18.5 32.3999 19.1ZM26.1 13.4C27.5 13.6 28.4 13 28.4 11.7C28.4 10.4 27.5 9.39998 26.1 9.19998C24.7 8.99998 23.8 9.69996 23.8 10.9C23.8 12.2 24.7 13.2 26.1 13.4Z" fill="#292929"></path> <path d="M35.2 4.19998L39.6 4.89996V9.39996C40.8 8.69996 42.1 8.39998 43.5 8.69998C46.5 9.19998 47.7 11.1 47.7 14.6V20.8L43.3 20.1V14.8C43.3 13.2 42.9 12.5 41.7 12.3C40.4 12.1 39.6 12.7 39.6 13.9V19.4L35.2 18.7V4.19998Z" fill="#292929"></path> <path d="M54.6 22.2C53.5 22 52.7 21.7 52 21.3C50.8 20.6 50.6 19.5 50.6 17.9V13.5L49 13.2V9.99997L50.6 10.3V6.59998L55.1 7.29996V11L56.7 11.3V14.5L55.1 14.2V16.5C55.1 18.3 55.1 18.9 56.2 19.1L56.8 19.2V22.3C56 22.4 55.3 22.3 54.6 22.2Z" fill="#292929"></path> <path d="M0.5 18.4L4.9 19.1V23.6C6.1 22.9 7.4 22.6 8.8 22.9C11.8 23.4 13 25.3 13 28.8V35L8.6 34.3V29C8.6 27.4 8.2 26.7 7 26.5C5.7 26.3 4.9 26.9 4.9 28.1V33.6L0.5 32.9V18.4Z" fill="#292929"></path> <path d="M19.4 36.6C16.2 36.1 14.5 34.6 14.5 32.1C14.5 31.3 14.7 30.6 15 30.2C15.9 29.1 17.4 29.2 19.6 29.4C22.7 29.7 24.2 30.2 24.2 29.2C24.2 28.6 23.5 28.1 22.2 27.9C20.8 27.7 20 27.8 19.9 28.6L15.3 27.8C15.5 25 17.6 24.4 22.1 25.1C24.7 25.5 26.5 26.2 27.4 27.2C28.5 28.4 28.8 29.7 28.8 31.7V36C28.8 36.7 28.9 37.2 29.2 37.6V37.8L24.6 37C24.4 36.5 24.3 36 24.3 35.4C23.2 36.7 21.7 36.9 19.4 36.6ZM21.3 31.9C20.1 31.8 19.6 31.9 19.6 32.6C19.6 33.3 20.2 33.8 21.2 34C23.2 34.3 24.4 33.5 24.4 32.1C24.4 32 24.4 31.9 24.4 31.8C23.5 32.1 22.5 31.9 21.3 31.9Z" fill="#292929"></path> <path d="M31.2 26.9L35.6 27.6V28.8C36.8 28.1 38.1 27.8 39.5 28.1C42.5 28.6 43.7 30.5 43.7 34V40.2L39.3 39.5V34.2C39.3 32.6 38.9 31.9 37.7 31.7C36.4 31.5 35.6 32.1 35.6 33.3V38.8L31.2 38.1V26.9Z" fill="#292929"></path> <path d="M58.7 43.4C57.6 45.4 55.5 45.9 52.2 45.3C48.3 44.7 46.2 43.2 45.8 40.5L51.7 41.5C51.8 42 52.2 42.3 52.8 42.4C54.2 42.6 54.7 42.1 54.7 40.6C54.7 40.4 54.7 40.2 54.7 40C53.7 40.7 52.4 40.9 50.8 40.6C47.5 40.1 45.5 37.6 45.5 34.3C45.5 31.1 47.6 29.2 50.8 29.8C52.4 30.1 53.8 30.7 54.9 31.8V30.7L59.1 31.4V40.2C59 41.7 59 42.8 58.7 43.4ZM52.3 37.7C53.7 37.9 54.6 37.3 54.6 36C54.6 34.7 53.7 33.7 52.3 33.5C50.9 33.3 50 34 50 35.2C50.1 36.5 51 37.5 52.3 37.7Z" fill="#292929"></path> <path d="M65.5001 44.2C62.3001 43.7 60.6001 42.2 60.6001 39.7C60.6001 38.9 60.8001 38.2 61.1001 37.8C62.0001 36.7 63.5001 36.8 65.7001 37C68.8001 37.3 70.3001 37.8 70.3001 36.8C70.3001 36.2 69.6001 35.7 68.3001 35.5C66.9001 35.3 66.1001 35.4 66.0001 36.2L61.4001 35.4C61.6001 32.6 63.7001 32 68.2001 32.7C70.8001 33.1 72.6001 33.8 73.5001 34.8C74.6001 36 74.9001 37.3 74.9001 39.3V43.6C74.9001 44.3 75.0001 44.8 75.3001 45.2V45.4L70.7001 44.6C70.5001 44.1 70.4001 43.6 70.4001 43C69.3001 44.3 67.7001 44.6 65.5001 44.2ZM67.3001 39.5C66.1001 39.4 65.6001 39.5 65.6001 40.2C65.6001 40.9 66.2001 41.4 67.2001 41.6C69.2001 41.9 70.4001 41.1 70.4001 39.7C70.4001 39.6 70.4001 39.5 70.4001 39.4C69.5001 39.8 68.5001 39.5 67.3001 39.5Z" fill="#292929"></path> <path d="M77.3 34.5L81.7 35.2L81.8 36.1C82.4 35.5 83.3001 35.2 84.6001 35.4C86.9001 35.8 87.9 37.3 87.9 40.3V41.3L84 40.7V40.6C84 39.5 83.7 38.8 83 38.7C82.2 38.6 82 39.2 82 40.7V46.5L77.5 45.8V34.5H77.3Z" fill="#292929"></path> </svg> 