<?xml version="1.0" encoding="UTF-8"?> <svg xmlns="http://www.w3.org/2000/svg" width="333" height="287" viewBox="0 0 333 287" fill="none"> <rect width="333" height="287" fill="white"></rect> <path d="M20.768 119.84H28.944V118.736H20.768V119.84ZM42.0385 112.384V116.576C41.3185 115.744 40.3745 115.12 39.2065 115.12C36.6785 115.12 35.0145 117.088 35.0145 119.68C35.0145 122.688 36.9345 124.24 39.2065 124.24C40.3425 124.24 41.4145 123.568 42.0385 122.704V127.264H43.5905V122.704C44.2145 123.568 45.2865 124.24 46.4225 124.24C48.7425 124.24 50.6145 122.72 50.6145 119.696C50.6145 117.12 48.9505 115.12 46.4225 115.12C45.2545 115.12 44.3105 115.744 43.5905 116.576V112.384H42.0385ZM46.3745 116.56C48.1345 116.56 48.9665 117.728 48.9665 119.696C48.9665 121.68 48.1505 122.8 46.3745 122.8C45.0465 122.8 43.5905 121.84 43.5905 119.68C43.5905 117.68 44.7585 116.56 46.3745 116.56ZM39.2545 116.56C40.8705 116.56 42.0385 117.68 42.0385 119.68C42.0385 121.84 40.5825 122.8 39.2545 122.8C37.4785 122.8 36.6625 121.68 36.6625 119.696C36.6625 117.728 37.4945 116.56 39.2545 116.56ZM50.8518 115.392L54.7558 124C54.4038 125.216 53.9398 125.616 52.8198 125.616C52.5958 125.616 52.3078 125.584 51.9078 125.52V126.992C52.3878 127.04 52.7398 127.056 52.9798 127.056C55.1078 127.056 55.4598 126.272 56.4998 123.936L60.3078 115.392H58.4998L55.6358 122.64L52.7078 115.392H50.8518ZM67.3476 116.704V122.688H62.0676C62.6916 121.696 63.0756 120.672 63.0756 118.48V116.704H67.3476ZM61.6036 115.392V118.368C61.6036 120.672 61.0916 121.808 60.4036 122.688H59.5556V126.544H61.0276V124H68.3076V126.544H69.7796V122.688H68.8996V115.392H61.6036ZM70.543 119.84H76.095V118.736H70.543V119.84ZM79.2528 115.392H77.7008V124H79.2528V120.896L80.8528 119.616L84.2928 124H86.3888L82.0048 118.672L86.0848 115.392H83.7808L79.2528 119.152V115.392ZM91.4493 115.12C88.4893 115.12 86.6333 116.944 86.6333 119.712C86.6333 122.48 88.4893 124.24 91.4493 124.24C94.4093 124.24 96.2493 122.48 96.2493 119.712C96.2493 116.944 94.4093 115.12 91.4493 115.12ZM91.4493 116.56C93.4173 116.56 94.6013 117.728 94.6013 119.68C94.6013 121.632 93.4173 122.8 91.4493 122.8C89.4813 122.8 88.2813 121.632 88.2813 119.68C88.2813 117.728 89.4813 116.56 91.4493 116.56ZM99.2221 115.392H97.6701V127.056H99.2221V122.736C100.102 123.744 101.158 124.24 102.534 124.24C105.27 124.24 107.158 122.384 107.158 119.712C107.158 117.024 105.27 115.12 102.55 115.12C101.094 115.12 99.9421 115.728 99.2221 116.688V115.392ZM102.374 116.56C104.326 116.56 105.51 117.776 105.51 119.712C105.51 121.632 104.326 122.8 102.374 122.8C100.422 122.8 99.2221 121.616 99.2221 119.712C99.2221 117.792 100.422 116.56 102.374 116.56ZM107.561 115.392V116.704H111.065V124H112.617V116.704H116.121V115.392H107.561ZM117.509 124H118.453V124.24C118.453 124.96 118.181 125.36 117.509 125.616V126.672C118.965 126.144 119.429 125.424 119.429 124V122.08H117.509V124ZM117.509 117.344H119.429V115.424H117.509V117.344ZM20.768 143.84H28.944V142.736H20.768V143.84ZM35.5745 139.392V148H37.0625V142.304L36.9505 140.672L40.1505 147.76H41.5265L44.6625 140.672L44.5505 142.304V148H46.0385V139.392H43.8465L40.8065 146.16L37.7665 139.392H35.5745ZM56.8681 144.016V143.712C56.8681 140.848 55.1241 139.12 52.1801 139.12C49.3001 139.12 47.4601 140.928 47.4601 143.712C47.4601 146.48 49.2841 148.24 52.1801 148.24C54.4681 148.24 56.1161 147.184 56.7241 145.328H54.9161C54.5641 146.272 53.5401 146.8 52.1801 146.8C50.3401 146.8 49.1081 145.696 49.1081 144.016H56.8681ZM49.1401 142.912C49.3961 141.44 50.5321 140.56 52.1801 140.56C53.8441 140.56 54.9641 141.456 55.2041 142.912H49.1401ZM65.2539 140.704V146.688H59.9739C60.5979 145.696 60.9819 144.672 60.9819 142.48V140.704H65.2539ZM59.5099 139.392V142.368C59.5099 144.672 58.9979 145.808 58.3099 146.688H57.4619V150.544H58.9339V148H66.2139V150.544H67.6859V146.688H66.8059V139.392H59.5099ZM70.5133 139.392H68.9613V148H70.5133V139.392ZM70.5133 138.272V136.384H68.9613V138.272H70.5133ZM79.1826 143.584V144.864C79.1826 145.952 77.8546 146.928 75.8706 146.928C74.6546 146.928 73.9666 146.384 73.9666 145.568C73.9666 144.512 74.8946 144.368 76.5746 144.176C77.8706 144.032 78.7346 143.856 79.1826 143.584ZM79.2306 146.672C79.3906 147.6 79.8386 148.096 80.7346 148.096C81.0226 148.096 81.4706 148.064 81.9666 147.984V146.736C81.7746 146.768 81.6306 146.784 81.5026 146.784C80.8946 146.784 80.7346 146.352 80.7346 145.456V141.968C80.7346 139.872 79.6626 139.12 76.7986 139.12C74.1586 139.12 72.7666 140.128 72.6546 142.16H74.2706C74.3506 140.928 75.1666 140.432 76.9106 140.432C78.4626 140.432 79.1826 140.832 79.1826 141.76C79.1826 142.8 78.1906 142.752 76.2866 142.96C73.8386 143.232 72.3186 143.648 72.3186 145.648C72.3186 147.248 73.4546 148.24 75.6146 148.24C77.1986 148.24 78.4466 147.664 79.2306 146.672ZM82.7155 143.84H88.2675V142.736H82.7155V143.84ZM89.0573 139.392L92.5293 143.632L88.6893 148H90.7373L93.6173 144.64L96.2413 148H98.4173L94.5613 143.632L98.2573 139.392H96.1773L93.6173 142.688L91.1693 139.392H89.0573ZM105.77 143.584V144.864C105.77 145.952 104.442 146.928 102.458 146.928C101.242 146.928 100.554 146.384 100.554 145.568C100.554 144.512 101.482 144.368 103.162 144.176C104.458 144.032 105.322 143.856 105.77 143.584ZM105.818 146.672C105.978 147.6 106.426 148.096 107.322 148.096C107.61 148.096 108.058 148.064 108.554 147.984V146.736C108.362 146.768 108.218 146.784 108.09 146.784C107.482 146.784 107.322 146.352 107.322 145.456V141.968C107.322 139.872 106.25 139.12 103.386 139.12C100.746 139.12 99.3535 140.128 99.2415 142.16H100.858C100.938 140.928 101.754 140.432 103.498 140.432C105.05 140.432 105.77 140.832 105.77 141.76C105.77 142.8 104.778 142.752 102.874 142.96C100.426 143.232 98.9055 143.648 98.9055 145.648C98.9055 147.248 100.042 148.24 102.202 148.24C103.786 148.24 105.034 147.664 105.818 146.672ZM116.614 136.4C116.358 136.88 116.006 136.976 114.134 137.216C110.454 137.696 109.126 139.984 109.126 143.312C109.126 146.4 110.79 148.24 113.798 148.24C116.63 148.24 118.694 146.656 118.694 143.936C118.694 141.376 116.806 139.84 114.278 139.84C112.934 139.84 111.462 140.464 110.662 141.424C110.934 139.664 111.99 138.832 114.726 138.464C116.79 138.192 117.526 138.08 118.198 136.4H116.614ZM113.958 140.992C115.83 140.992 117.142 142.016 117.142 143.936C117.142 145.696 115.91 147.088 113.958 147.088C111.942 147.088 110.742 146 110.742 143.968C110.742 142.16 112.054 140.992 113.958 140.992ZM120.548 148H121.492V148.24C121.492 148.96 121.22 149.36 120.548 149.616V150.672C122.004 150.144 122.468 149.424 122.468 148V146.08H120.548V148ZM120.548 141.344H122.468V139.424H120.548V141.344ZM20.768 167.84H28.944V166.736H20.768V167.84ZM35.5745 163.392V172H37.0625V166.304L36.9505 164.672L40.1505 171.76H41.5265L44.6625 164.672L44.5505 166.304V172H46.0385V163.392H43.8465L40.8065 170.16L37.7665 163.392H35.5745ZM49.7001 163.392H48.1481V172H49.7001V163.392ZM49.7001 162.272V160.384H48.1481V162.272H49.7001ZM60.1935 166.256C59.8255 164.336 58.1935 163.12 55.9215 163.12C53.1375 163.12 51.2495 164.976 51.2495 167.712C51.2495 170.448 53.1535 172.24 55.8895 172.24C58.2415 172.24 59.8895 170.96 60.2575 168.784H58.6255C58.4175 170.048 57.3775 170.8 55.9535 170.8C54.1455 170.8 52.8975 169.664 52.8975 167.728C52.8975 165.776 54.0975 164.56 56.0655 164.56C57.3295 164.56 58.2735 165.2 58.5775 166.256H60.1935ZM63.229 163.392H61.677V172H69.437V174.544H70.909V170.688H70.029V163.392H68.477V170.688H63.229V163.392ZM79.7881 163.392H74.9241C72.8601 163.392 71.6281 164.24 71.6281 165.968C71.6281 167.44 72.6201 168.32 73.9001 168.528L71.6601 172H73.4041L75.6121 168.56H78.2361V172H79.7881V163.392ZM78.2361 167.248H75.0041C73.7081 167.248 73.2761 166.88 73.2761 165.984C73.2761 165.104 73.7721 164.704 74.9561 164.704H78.2361V167.248ZM93.7551 164.704V170.688H88.4751C89.0991 169.696 89.4831 168.672 89.4831 166.48V164.704H93.7551ZM88.0111 163.392V166.368C88.0111 168.672 87.4991 169.808 86.8111 170.688H85.9631V174.544H87.4351V172H94.7151V174.544H96.1871V170.688H95.3071V163.392H88.0111ZM98.0705 163.392V168.032C98.0705 170.56 97.7345 170.928 96.8705 170.928C96.5985 170.928 96.3745 170.912 96.2305 170.88V172C96.4705 172.064 96.8065 172.128 97.2385 172.128C98.7105 172.128 99.6225 171.12 99.6225 168.528V164.704H104.503V172H106.055V163.392H98.0705ZM115.774 163.392H110.91C108.846 163.392 107.614 164.24 107.614 165.968C107.614 167.44 108.606 168.32 109.886 168.528L107.646 172H109.39L111.598 168.56H114.222V172H115.774V163.392ZM114.222 167.248H110.99C109.694 167.248 109.262 166.88 109.262 165.984C109.262 165.104 109.758 164.704 110.942 164.704H114.222V167.248ZM124.333 163.392H122.781V175.056H124.333V170.736C125.213 171.744 126.269 172.24 127.645 172.24C130.381 172.24 132.269 170.384 132.269 167.712C132.269 165.024 130.381 163.12 127.661 163.12C126.205 163.12 125.053 163.728 124.333 164.688V163.392ZM127.485 164.56C129.437 164.56 130.621 165.776 130.621 167.712C130.621 169.632 129.437 170.8 127.485 170.8C125.533 170.8 124.333 169.616 124.333 167.712C124.333 165.792 125.533 164.56 127.485 164.56ZM137.951 163.12C134.991 163.12 133.135 164.944 133.135 167.712C133.135 170.48 134.991 172.24 137.951 172.24C140.911 172.24 142.751 170.48 142.751 167.712C142.751 164.944 140.911 163.12 137.951 163.12ZM137.951 164.56C139.919 164.56 141.103 165.728 141.103 167.68C141.103 169.632 139.919 170.8 137.951 170.8C135.983 170.8 134.783 169.632 134.783 167.68C134.783 165.728 135.983 164.56 137.951 164.56ZM151.1 160.4C150.844 160.88 150.492 160.976 148.62 161.216C144.94 161.696 143.612 163.984 143.612 167.312C143.612 170.4 145.276 172.24 148.284 172.24C151.116 172.24 153.18 170.656 153.18 167.936C153.18 165.376 151.292 163.84 148.764 163.84C147.42 163.84 145.948 164.464 145.148 165.424C145.42 163.664 146.476 162.832 149.212 162.464C151.276 162.192 152.012 162.08 152.684 160.4H151.1ZM148.444 164.992C150.316 164.992 151.628 166.016 151.628 167.936C151.628 169.696 150.396 171.088 148.444 171.088C146.428 171.088 145.228 170 145.228 167.968C145.228 166.16 146.54 164.992 148.444 164.992ZM158.858 163.12C155.898 163.12 154.042 164.944 154.042 167.712C154.042 170.48 155.898 172.24 158.858 172.24C161.818 172.24 163.658 170.48 163.658 167.712C163.658 164.944 161.818 163.12 158.858 163.12ZM158.858 164.56C160.826 164.56 162.01 165.728 162.01 167.68C162.01 169.632 160.826 170.8 158.858 170.8C156.89 170.8 155.69 169.632 155.69 167.68C155.69 165.728 156.89 164.56 158.858 164.56ZM164.055 163.392V164.704H167.559V172H169.111V164.704H172.615V163.392H164.055ZM175.123 163.392H173.571V172H175.283L180.547 165.312V172H182.099V163.392H180.371L175.123 170.096V163.392ZM184.576 172H185.52V172.24C185.52 172.96 185.248 173.36 184.576 173.616V174.672C186.032 174.144 186.496 173.424 186.496 172V170.08H184.576V172ZM29.536 190.256C29.168 188.336 27.536 187.12 25.264 187.12C22.48 187.12 20.592 188.976 20.592 191.712C20.592 194.448 22.496 196.24 25.232 196.24C27.584 196.24 29.232 194.96 29.6 192.784H27.968C27.76 194.048 26.72 194.8 25.296 194.8C23.488 194.8 22.24 193.664 22.24 191.728C22.24 189.776 23.44 188.56 25.408 188.56C26.672 188.56 27.616 189.2 27.92 190.256H29.536ZM31.0195 187.392V196H32.5715V188.704H37.8195V196H39.3715V187.392H31.0195ZM43.0358 187.392H41.4838V196H43.0358V187.392ZM43.0358 186.272V184.384H41.4838V186.272H43.0358ZM45.8811 187.392V192.032C45.8811 194.56 45.5451 194.928 44.6811 194.928C44.4091 194.928 44.1851 194.912 44.0411 194.88V196C44.2811 196.064 44.6171 196.128 45.0491 196.128C46.5211 196.128 47.4331 195.12 47.4331 192.528V188.704H52.3131V196H53.8651V187.392H45.8811ZM57.4084 187.392H55.8564V196H57.4084V192.896L59.0084 191.616L62.4484 196H64.5444L60.1604 190.672L64.2404 187.392H61.9364L57.4084 191.152V187.392ZM64.1649 187.392L68.0689 196C67.7169 197.216 67.2529 197.616 66.1329 197.616C65.9089 197.616 65.6209 197.584 65.2209 197.52V198.992C65.7009 199.04 66.0529 199.056 66.2929 199.056C68.4209 199.056 68.7729 198.272 69.8129 195.936L73.6209 187.392H71.8129L68.9489 194.64L66.0209 187.392H64.1649ZM74.4195 196H79.1235C81.1715 196 82.4995 195.216 82.4995 193.6C82.4995 192.528 81.9075 191.744 80.8035 191.44C81.3315 191.168 81.9715 190.576 81.9715 189.6C81.9715 188.256 80.9635 187.392 79.1235 187.392H74.4195V196ZM75.9715 192.128H79.0595C80.3555 192.128 80.9475 192.512 80.9475 193.408C80.9475 194.288 80.4035 194.688 79.2195 194.688H75.9715V192.128ZM75.9715 188.704H78.9475C80.1315 188.704 80.4995 189.024 80.4995 189.824C80.4995 190.624 79.9555 190.928 78.9315 190.928H75.9715V188.704ZM90.7376 191.584V192.864C90.7376 193.952 89.4096 194.928 87.4256 194.928C86.2096 194.928 85.5216 194.384 85.5216 193.568C85.5216 192.512 86.4496 192.368 88.1296 192.176C89.4256 192.032 90.2896 191.856 90.7376 191.584ZM90.7856 194.672C90.9456 195.6 91.3936 196.096 92.2896 196.096C92.5776 196.096 93.0256 196.064 93.5216 195.984V194.736C93.3296 194.768 93.1856 194.784 93.0576 194.784C92.4496 194.784 92.2896 194.352 92.2896 193.456V189.968C92.2896 187.872 91.2176 187.12 88.3536 187.12C85.7136 187.12 84.3216 188.128 84.2096 190.16H85.8256C85.9056 188.928 86.7216 188.432 88.4656 188.432C90.0176 188.432 90.7376 188.832 90.7376 189.76C90.7376 190.8 89.7456 190.752 87.8416 190.96C85.3936 191.232 83.8736 191.648 83.8736 193.648C83.8736 195.248 85.0096 196.24 87.1696 196.24C88.7536 196.24 90.0016 195.664 90.7856 194.672ZM96.2065 187.392H94.6545V196H96.2065V192.144H101.455V196H103.007V187.392H101.455V190.832H96.2065V187.392ZM106.543 187.392H104.991V196H106.543V192.144H111.791V196H113.343V187.392H111.791V190.832H106.543V187.392ZM123.055 187.392H118.191C116.127 187.392 114.895 188.24 114.895 189.968C114.895 191.44 115.887 192.32 117.167 192.528L114.927 196H116.671L118.879 192.56H121.503V196H123.055V187.392ZM121.503 191.248H118.271C116.975 191.248 116.543 190.88 116.543 189.984C116.543 189.104 117.039 188.704 118.223 188.704H121.503V191.248ZM129.038 187.392V188.704H132.542V196H134.094V188.704H137.598V187.392H129.038ZM145.114 191.584V192.864C145.114 193.952 143.786 194.928 141.802 194.928C140.586 194.928 139.898 194.384 139.898 193.568C139.898 192.512 140.826 192.368 142.506 192.176C143.802 192.032 144.666 191.856 145.114 191.584ZM145.162 194.672C145.322 195.6 145.77 196.096 146.666 196.096C146.954 196.096 147.402 196.064 147.898 195.984V194.736C147.706 194.768 147.562 194.784 147.434 194.784C146.826 194.784 146.666 194.352 146.666 193.456V189.968C146.666 187.872 145.594 187.12 142.73 187.12C140.09 187.12 138.698 188.128 138.586 190.16H140.202C140.282 188.928 141.098 188.432 142.842 188.432C144.394 188.432 145.114 188.832 145.114 189.76C145.114 190.8 144.122 190.752 142.218 190.96C139.77 191.232 138.25 191.648 138.25 193.648C138.25 195.248 139.386 196.24 141.546 196.24C143.13 196.24 144.378 195.664 145.162 194.672ZM154.055 196H158.759C160.807 196 162.135 195.216 162.135 193.6C162.135 192.528 161.543 191.744 160.439 191.44C160.967 191.168 161.607 190.576 161.607 189.6C161.607 188.256 160.599 187.392 158.759 187.392H154.055V196ZM155.607 192.128H158.695C159.991 192.128 160.583 192.512 160.583 193.408C160.583 194.288 160.039 194.688 158.855 194.688H155.607V192.128ZM155.607 188.704H158.583C159.767 188.704 160.135 189.024 160.135 189.824C160.135 190.624 159.591 190.928 158.567 190.928H155.607V188.704ZM165.493 187.392H163.941V196H165.493V187.392ZM165.493 186.272V184.384H163.941V186.272H165.493ZM174.563 188.704V194.688H169.283C169.907 193.696 170.291 192.672 170.291 190.48V188.704H174.563ZM168.819 187.392V190.368C168.819 192.672 168.307 193.808 167.619 194.688H166.771V198.544H168.243V196H175.523V198.544H176.995V194.688H176.115V187.392H168.819ZM178.142 187.392V196H179.694V188.704H184.942V196H186.494V187.392H178.142ZM192.734 187.12C189.774 187.12 187.918 188.944 187.918 191.712C187.918 194.48 189.774 196.24 192.734 196.24C195.694 196.24 197.534 194.48 197.534 191.712C197.534 188.944 195.694 187.12 192.734 187.12ZM192.734 188.56C194.702 188.56 195.886 189.728 195.886 191.68C195.886 193.632 194.702 194.8 192.734 194.8C190.766 194.8 189.566 193.632 189.566 191.68C189.566 189.728 190.766 188.56 192.734 188.56ZM198.955 187.392V189.568C198.955 192.224 200.475 193.056 202.587 193.056C203.851 193.056 204.859 192.912 205.755 192.56V196H207.307V187.392H205.755V191.2C204.795 191.584 203.691 191.744 202.795 191.744C201.691 191.744 200.507 191.312 200.507 189.504V187.392H198.955ZM210.843 187.392H209.291V196H211.003L216.267 189.312V196H217.819V187.392H216.091L210.843 194.096V187.392ZM221.352 187.392H219.8V196H221.352V192.144H226.6V196H228.152V187.392H226.6V190.832H221.352V187.392ZM231.688 187.392H230.136V196H231.688V192.896L233.288 191.616L236.728 196H238.824L234.44 190.672L238.52 187.392H236.216L231.688 191.152V187.392ZM238.444 187.392L242.348 196C241.996 197.216 241.532 197.616 240.412 197.616C240.188 197.616 239.9 197.584 239.5 197.52V198.992C239.98 199.04 240.332 199.056 240.572 199.056C242.7 199.056 243.052 198.272 244.092 195.936L247.9 187.392H246.092L243.228 194.64L240.3 187.392H238.444ZM249.131 196H250.075V196.24C250.075 196.96 249.803 197.36 249.131 197.616V198.672C250.587 198.144 251.051 197.424 251.051 196V194.08H249.131V196ZM249.131 189.344H251.051V187.424H249.131V189.344ZM20.768 215.84H28.944V214.736H20.768V215.84ZM35.5745 211.392V220H37.0625V214.304L36.9505 212.672L40.1505 219.76H41.5265L44.6625 212.672L44.5505 214.304V220H46.0385V211.392H43.8465L40.8065 218.16L37.7665 211.392H35.5745ZM49.7001 211.392H48.1481V220H49.7001V211.392ZM49.7001 210.272V208.384H48.1481V210.272H49.7001ZM50.7855 211.392V212.704H54.2895V220H55.8415V212.704H59.3455V211.392H50.7855ZM66.862 215.584V216.864C66.862 217.952 65.534 218.928 63.55 218.928C62.334 218.928 61.646 218.384 61.646 217.568C61.646 216.512 62.574 216.368 64.254 216.176C65.55 216.032 66.414 215.856 66.862 215.584ZM66.91 218.672C67.07 219.6 67.518 220.096 68.414 220.096C68.702 220.096 69.15 220.064 69.646 219.984V218.736C69.454 218.768 69.31 218.784 69.182 218.784C68.574 218.784 68.414 218.352 68.414 217.456V213.968C68.414 211.872 67.342 211.12 64.478 211.12C61.838 211.12 60.446 212.128 60.334 214.16H61.95C62.03 212.928 62.846 212.432 64.59 212.432C66.142 212.432 66.862 212.832 66.862 213.76C66.862 214.8 65.87 214.752 63.966 214.96C61.518 215.232 59.998 215.648 59.998 217.648C59.998 219.248 61.134 220.24 63.294 220.24C64.878 220.24 66.126 219.664 66.91 218.672ZM70.7789 211.392V220H72.3309V212.704H77.5789V220H79.1309V211.392H70.7789ZM80.7311 215.84H86.2831V214.736H80.7311V215.84ZM89.2969 213.84C89.5209 212.88 90.2089 212.432 91.6809 212.432C92.6249 212.432 93.7769 212.816 93.7769 213.728C93.7769 214.576 93.2329 214.944 91.7449 214.944H90.8009V216.144H91.8409C93.0889 216.144 94.2249 216.432 94.2249 217.536C94.2249 218.512 92.9449 218.928 91.6969 218.928C89.9049 218.928 89.1689 218.432 89.0089 217.264H87.3289C87.5209 218.752 88.3849 220.24 91.7609 220.24C94.0169 220.24 95.7769 219.248 95.7769 217.696C95.7769 216.272 94.6409 215.76 93.7289 215.504C94.5929 215.312 95.3289 214.64 95.3289 213.68C95.3289 212.24 93.9689 211.12 91.6649 211.12C88.8009 211.12 87.8089 212.768 87.6649 213.84H89.2969ZM101.45 211.12C98.4899 211.12 96.6339 212.944 96.6339 215.712C96.6339 218.48 98.4899 220.24 101.45 220.24C104.41 220.24 106.25 218.48 106.25 215.712C106.25 212.944 104.41 211.12 101.45 211.12ZM101.45 212.56C103.418 212.56 104.602 213.728 104.602 215.68C104.602 217.632 103.418 218.8 101.45 218.8C99.4819 218.8 98.2819 217.632 98.2819 215.68C98.2819 213.728 99.4819 212.56 101.45 212.56ZM109.223 211.392H107.671V220H109.223V216.144H114.471V220H116.023V211.392H114.471V214.832H109.223V211.392ZM124.567 215.584V216.864C124.567 217.952 123.239 218.928 121.255 218.928C120.039 218.928 119.351 218.384 119.351 217.568C119.351 216.512 120.279 216.368 121.959 216.176C123.255 216.032 124.119 215.856 124.567 215.584ZM124.615 218.672C124.775 219.6 125.223 220.096 126.119 220.096C126.407 220.096 126.855 220.064 127.351 219.984V218.736C127.159 218.768 127.015 218.784 126.887 218.784C126.279 218.784 126.119 218.352 126.119 217.456V213.968C126.119 211.872 125.047 211.12 122.183 211.12C119.543 211.12 118.151 212.128 118.039 214.16H119.655C119.735 212.928 120.551 212.432 122.295 212.432C123.847 212.432 124.567 212.832 124.567 213.76C124.567 214.8 123.575 214.752 121.671 214.96C119.223 215.232 117.703 215.648 117.703 217.648C117.703 219.248 118.839 220.24 120.999 220.24C122.583 220.24 123.831 219.664 124.615 218.672ZM135.06 211.392H133.508V220H135.06V216.144H140.308V220H141.86V211.392H140.308V214.832H135.06V211.392ZM150.404 215.584V216.864C150.404 217.952 149.076 218.928 147.092 218.928C145.876 218.928 145.188 218.384 145.188 217.568C145.188 216.512 146.116 216.368 147.796 216.176C149.092 216.032 149.956 215.856 150.404 215.584ZM150.452 218.672C150.612 219.6 151.06 220.096 151.956 220.096C152.244 220.096 152.692 220.064 153.188 219.984V218.736C152.996 218.768 152.852 218.784 152.724 218.784C152.116 218.784 151.956 218.352 151.956 217.456V213.968C151.956 211.872 150.884 211.12 148.02 211.12C145.38 211.12 143.988 212.128 143.876 214.16H145.492C145.572 212.928 146.388 212.432 148.132 212.432C149.684 212.432 150.404 212.832 150.404 213.76C150.404 214.8 149.412 214.752 147.508 214.96C145.06 215.232 143.54 215.648 143.54 217.648C143.54 219.248 144.676 220.24 146.836 220.24C148.42 220.24 149.668 219.664 150.452 218.672ZM159.009 216.4V216.48C159.009 219.056 160.497 220.304 163.537 220.304C166.481 220.304 168.161 218.816 168.161 216.64C168.161 215.104 167.281 214.176 165.633 214.016C166.993 213.664 167.665 212.816 167.665 211.552C167.665 209.744 166.113 208.384 163.537 208.384C160.801 208.384 159.249 209.76 159.249 212.256H160.913C160.913 210.608 161.889 209.824 163.569 209.824C165.105 209.824 166.017 210.624 166.017 211.76C166.017 212.928 165.057 213.472 163.185 213.472H162.561V214.768H163.249C165.393 214.768 166.449 215.408 166.449 216.784C166.449 218.048 165.377 218.864 163.473 218.864C161.601 218.864 160.625 218.016 160.625 216.4H159.009ZM173.967 208.384C171.007 208.384 169.327 210.496 169.327 214.336C169.327 218.176 171.007 220.304 173.967 220.304C176.927 220.304 178.623 218.192 178.623 214.336C178.623 210.48 176.927 208.384 173.967 208.384ZM173.983 209.904C176.015 209.904 176.975 211.344 176.975 214.336C176.975 217.328 176.015 218.784 173.983 218.784C171.967 218.784 170.975 217.328 170.975 214.336C170.975 211.344 171.967 209.904 173.983 209.904ZM179.789 215.84H185.341V214.736H179.789V215.84ZM187.859 208.672L186.851 214.88H188.451C188.947 214.096 189.827 213.664 190.995 213.664C192.803 213.664 193.987 214.72 193.987 216.208C193.987 217.728 192.771 218.864 190.915 218.864C189.315 218.864 188.403 218.144 188.195 216.88H186.547C186.787 219.008 188.403 220.304 190.931 220.304C193.843 220.304 195.635 218.512 195.635 216.064C195.635 213.808 193.795 212.304 191.443 212.304C190.195 212.304 189.219 212.656 188.547 213.344L189.091 210.112H194.819V208.672H187.859ZM201.569 208.384C198.609 208.384 196.929 210.496 196.929 214.336C196.929 218.176 198.609 220.304 201.569 220.304C204.529 220.304 206.225 218.192 206.225 214.336C206.225 210.48 204.529 208.384 201.569 208.384ZM201.585 209.904C203.617 209.904 204.577 211.344 204.577 214.336C204.577 217.328 203.617 218.784 201.585 218.784C199.569 218.784 198.577 217.328 198.577 214.336C198.577 211.344 199.569 209.904 201.585 209.904ZM217.056 211.12C214.096 211.12 212.24 212.944 212.24 215.712C212.24 218.48 214.096 220.24 217.056 220.24C220.016 220.24 221.856 218.48 221.856 215.712C221.856 212.944 220.016 211.12 217.056 211.12ZM217.056 212.56C219.024 212.56 220.208 213.728 220.208 215.68C220.208 217.632 219.024 218.8 217.056 218.8C215.088 218.8 213.888 217.632 213.888 215.68C213.888 213.728 215.088 212.56 217.056 212.56ZM231.66 214.256C231.292 212.336 229.66 211.12 227.388 211.12C224.604 211.12 222.716 212.976 222.716 215.712C222.716 218.448 224.62 220.24 227.356 220.24C229.708 220.24 231.356 218.96 231.724 216.784H230.092C229.884 218.048 228.844 218.8 227.42 218.8C225.612 218.8 224.364 217.664 224.364 215.728C224.364 213.776 225.564 212.56 227.532 212.56C228.796 212.56 229.74 213.2 230.044 214.256H231.66ZM234.824 211.392H233.272V220H234.824V211.392ZM234.824 210.272V208.384H233.272V210.272H234.824ZM243.861 208.4C243.605 208.88 243.253 208.976 241.381 209.216C237.701 209.696 236.373 211.984 236.373 215.312C236.373 218.4 238.037 220.24 241.045 220.24C243.877 220.24 245.941 218.656 245.941 215.936C245.941 213.376 244.053 211.84 241.525 211.84C240.181 211.84 238.709 212.464 237.909 213.424C238.181 211.664 239.237 210.832 241.973 210.464C244.037 210.192 244.773 210.08 245.445 208.4H243.861ZM241.205 212.992C243.077 212.992 244.389 214.016 244.389 215.936C244.389 217.696 243.157 219.088 241.205 219.088C239.189 219.088 237.989 218 237.989 215.968C237.989 214.16 239.301 212.992 241.205 212.992ZM247.795 220H248.739V220.24C248.739 220.96 248.467 221.36 247.795 221.616V222.672C249.251 222.144 249.715 221.424 249.715 220V218.08H247.795V220ZM247.795 213.344H249.715V211.424H247.795V213.344ZM20.768 239.84H28.944V238.736H20.768V239.84ZM36.9825 237.84C37.2065 236.88 37.8945 236.432 39.3665 236.432C40.3105 236.432 41.4625 236.816 41.4625 237.728C41.4625 238.576 40.9185 238.944 39.4305 238.944H38.4865V240.144H39.5265C40.7745 240.144 41.9105 240.432 41.9105 241.536C41.9105 242.512 40.6305 242.928 39.3825 242.928C37.5905 242.928 36.8545 242.432 36.6945 241.264H35.0145C35.2065 242.752 36.0705 244.24 39.4465 244.24C41.7025 244.24 43.4625 243.248 43.4625 241.696C43.4625 240.272 42.3265 239.76 41.4145 239.504C42.2785 239.312 43.0145 238.64 43.0145 237.68C43.0145 236.24 41.6545 235.12 39.3505 235.12C36.4865 235.12 35.4945 236.768 35.3505 237.84H36.9825ZM49.1355 235.12C46.1755 235.12 44.3195 236.944 44.3195 239.712C44.3195 242.48 46.1755 244.24 49.1355 244.24C52.0955 244.24 53.9355 242.48 53.9355 239.712C53.9355 236.944 52.0955 235.12 49.1355 235.12ZM49.1355 236.56C51.1035 236.56 52.2875 237.728 52.2875 239.68C52.2875 241.632 51.1035 242.8 49.1355 242.8C47.1675 242.8 45.9675 241.632 45.9675 239.68C45.9675 237.728 47.1675 236.56 49.1355 236.56ZM56.9084 235.392H55.3564V244H56.9084V240.144H62.1564V244H63.7084V235.392H62.1564V238.832H56.9084V235.392ZM72.2526 239.584V240.864C72.2526 241.952 70.9246 242.928 68.9406 242.928C67.7246 242.928 67.0366 242.384 67.0366 241.568C67.0366 240.512 67.9646 240.368 69.6446 240.176C70.9406 240.032 71.8046 239.856 72.2526 239.584ZM72.3006 242.672C72.4606 243.6 72.9086 244.096 73.8046 244.096C74.0926 244.096 74.5406 244.064 75.0366 243.984V242.736C74.8446 242.768 74.7006 242.784 74.5726 242.784C73.9646 242.784 73.8046 242.352 73.8046 241.456V237.968C73.8046 235.872 72.7326 235.12 69.8686 235.12C67.2286 235.12 65.8366 236.128 65.7246 238.16H67.3406C67.4206 236.928 68.2366 236.432 69.9806 236.432C71.5326 236.432 72.2526 236.832 72.2526 237.76C72.2526 238.8 71.2606 238.752 69.3566 238.96C66.9086 239.232 65.3886 239.648 65.3886 241.648C65.3886 243.248 66.5246 244.24 68.6846 244.24C70.2686 244.24 71.5166 243.664 72.3006 242.672ZM81.1932 235.392V244H82.6812V238.304L82.5692 236.672L85.7692 243.76H87.1452L90.2812 236.672L90.1692 238.304V244H91.6572V235.392H89.4652L86.4252 242.16L83.3852 235.392H81.1932ZM95.1909 235.392H93.6389V244H95.3509L100.615 237.312V244H102.167V235.392H100.439L95.1909 242.096V235.392ZM112.531 238.256C112.163 236.336 110.531 235.12 108.259 235.12C105.475 235.12 103.587 236.976 103.587 239.712C103.587 242.448 105.491 244.24 108.227 244.24C110.579 244.24 112.227 242.96 112.595 240.784H110.963C110.755 242.048 109.715 242.8 108.291 242.8C106.483 242.8 105.235 241.664 105.235 239.728C105.235 237.776 106.435 236.56 108.403 236.56C109.667 236.56 110.611 237.2 110.915 238.256H112.531ZM112.991 235.392V236.704H116.495V244H118.047V236.704H121.551V235.392H112.991ZM131.355 240.016V239.712C131.355 236.848 129.611 235.12 126.667 235.12C123.787 235.12 121.947 236.928 121.947 239.712C121.947 242.48 123.771 244.24 126.667 244.24C128.955 244.24 130.603 243.184 131.211 241.328H129.403C129.051 242.272 128.027 242.8 126.667 242.8C124.827 242.8 123.595 241.696 123.595 240.016H131.355ZM123.627 238.912C123.883 237.44 125.019 236.56 126.667 236.56C128.331 236.56 129.451 237.456 129.691 238.912H123.627ZM134.333 235.392H132.781V244H140.541V246.544H142.013V242.688H141.133V235.392H139.581V242.688H134.333V235.392ZM143.164 235.392V244H148.108C150.14 244 151.324 243.104 151.324 241.408C151.324 239.6 150.204 238.832 148.108 238.832H144.716V235.392H143.164ZM144.716 240.144H147.964C149.244 240.144 149.676 240.512 149.676 241.408C149.676 242.288 149.148 242.688 147.98 242.688H144.716V240.144ZM154.302 235.392H152.75V244H154.302V240.896L155.902 239.616L159.342 244H161.438L157.054 238.672L161.134 235.392H158.83L154.302 239.152V235.392ZM163.795 235.392H162.243V244H163.955L169.219 237.312V244H170.771V235.392H169.043L163.795 242.096V235.392ZM171.935 235.392L175.407 239.632L171.567 244H173.615L176.495 240.64L179.119 244H181.295L177.439 239.632L181.135 235.392H179.055L176.495 238.688L174.047 235.392H171.935ZM195.959 240.016V239.712C195.959 236.848 194.215 235.12 191.271 235.12C188.391 235.12 186.551 236.928 186.551 239.712C186.551 242.48 188.375 244.24 191.271 244.24C193.559 244.24 195.207 243.184 195.815 241.328H194.007C193.655 242.272 192.631 242.8 191.271 242.8C189.431 242.8 188.199 241.696 188.199 240.016H195.959ZM188.231 238.912C188.487 237.44 189.623 236.56 191.271 236.56C192.935 236.56 194.055 237.456 194.295 238.912H188.231ZM198.936 235.392H197.384V244H198.936V240.896L200.536 239.616L203.976 244H206.072L201.688 238.672L205.768 235.392H203.464L198.936 239.152V235.392ZM215.261 238.256C214.893 236.336 213.261 235.12 210.989 235.12C208.205 235.12 206.317 236.976 206.317 239.712C206.317 242.448 208.221 244.24 210.957 244.24C213.309 244.24 214.957 242.96 215.325 240.784H213.693C213.485 242.048 212.445 242.8 211.021 242.8C209.213 242.8 207.965 241.664 207.965 239.728C207.965 237.776 209.165 236.56 211.133 236.56C212.397 236.56 213.341 237.2 213.645 238.256H215.261ZM216.744 235.392V244H218.296V236.704H223.544V244H225.096V235.392H216.744ZM231.337 235.12C228.377 235.12 226.521 236.944 226.521 239.712C226.521 242.48 228.377 244.24 231.337 244.24C234.297 244.24 236.137 242.48 236.137 239.712C236.137 236.944 234.297 235.12 231.337 235.12ZM231.337 236.56C233.305 236.56 234.489 237.728 234.489 239.68C234.489 241.632 233.305 242.8 231.337 242.8C229.369 242.8 228.169 241.632 228.169 239.68C228.169 237.728 229.369 236.56 231.337 236.56ZM238.966 237.84C239.19 236.88 239.878 236.432 241.35 236.432C242.294 236.432 243.446 236.816 243.446 237.728C243.446 238.576 242.902 238.944 241.414 238.944H240.47V240.144H241.51C242.758 240.144 243.894 240.432 243.894 241.536C243.894 242.512 242.614 242.928 241.366 242.928C239.574 242.928 238.838 242.432 238.678 241.264H236.998C237.19 242.752 238.054 244.24 241.43 244.24C243.686 244.24 245.446 243.248 245.446 241.696C245.446 240.272 244.31 239.76 243.398 239.504C244.262 239.312 244.998 238.64 244.998 237.68C244.998 236.24 243.638 235.12 241.334 235.12C238.47 235.12 237.478 236.768 237.334 237.84H238.966ZM248.415 235.392H246.863V244H248.575L253.839 237.312V244H255.391V235.392H253.663L248.415 242.096V235.392ZM258.923 235.392H257.371V244H265.131V246.544H266.603V242.688H265.723V235.392H264.171V242.688H258.923V235.392ZM269.434 235.392H267.882V244H269.434V235.392ZM269.434 234.272V232.384H267.882V234.272H269.434ZM273.095 235.392H271.543V244H273.255L278.519 237.312V244H280.071V235.392H278.343L273.095 242.096V235.392ZM273.127 231.856C273.287 233.488 274.199 234.256 275.911 234.256C277.639 234.256 278.551 233.488 278.711 231.856H277.799C277.751 232.608 276.983 233.232 275.895 233.232C274.823 233.232 274.071 232.608 274.023 231.856H273.127ZM282.611 244H284.531V242.08H282.611V244Z" fill="#292929"></path> <path d="M21.584 59H34.904V62.48H40.448V54.704H38.648V45.488H32.624V54.704H27.608V45.488H21.584V59ZM60.3273 54.896H53.7753C53.3673 55.568 52.3833 55.952 50.8953 55.952C48.6393 55.952 47.3913 55.088 47.3913 53.648H60.4473C60.4473 48.176 57.0633 45.056 50.5353 45.056C44.3193 45.056 40.9353 47.744 40.9353 52.256C40.9353 56.768 44.3193 59.456 50.5353 59.456C56.1273 59.456 59.4393 57.848 60.3273 54.896ZM47.0793 50.768C47.3913 49.232 48.7353 48.416 50.8713 48.416C52.8633 48.416 54.0873 49.28 54.2553 50.768H47.0793ZM62.2256 59H68.2496V54.392H73.2896V59H79.3136V45.512H73.2896V50.12H68.2496V45.512H62.2256V59ZM85.5487 59H91.5967V49.784L96.6367 49.784V45.512L80.5087 45.512V49.784H85.5487V59ZM97.8995 63.368H103.924V57.896C105.412 58.88 107.02 59.336 108.94 59.336C113.548 59.336 116.452 56.552 116.452 52.256C116.452 47.96 113.548 45.152 109.036 45.152C106.9 45.152 105.148 45.68 103.684 46.784L103.636 45.488H97.8995V63.368ZM103.924 52.256C103.924 50.408 105.196 49.256 107.02 49.256C108.868 49.256 110.116 50.408 110.116 52.256C110.116 54.08 108.868 55.232 107.02 55.232C105.196 55.232 103.924 54.08 103.924 52.256ZM130.613 57.152C130.637 57.824 130.757 58.448 130.997 59H137.261V58.712C136.781 58.352 136.661 57.8 136.661 56.912V51.704C136.661 49.328 136.349 47.816 134.813 46.616C133.565 45.656 131.165 45.152 127.589 45.152C121.517 45.152 118.589 46.256 118.325 49.712H124.541C124.709 48.656 125.693 48.368 127.637 48.368C129.389 48.368 130.325 48.896 130.325 49.592C130.325 50.696 128.357 50.408 124.133 50.696C121.229 50.888 119.165 51.032 117.917 52.592C117.461 53.168 117.197 54.008 117.197 55.016C117.197 57.968 119.405 59.432 123.821 59.432C126.869 59.432 128.981 58.856 130.613 57.152ZM130.589 52.712C130.613 52.832 130.613 52.928 130.613 53.048C130.613 54.776 128.957 55.976 126.245 55.976C124.829 55.976 124.037 55.472 124.037 54.632C124.037 53.792 124.733 53.552 126.341 53.408C127.949 53.264 129.365 53.312 130.589 52.712ZM140.538 45.512V51.296C140.538 54.656 140.226 55.496 138.882 55.496C138.522 55.496 138.114 55.472 137.706 55.4V58.928C138.69 59.216 139.434 59.24 140.922 59.24C142.794 59.24 144.21 58.76 145.122 57.776C145.914 56.936 146.61 55.616 146.61 53.912V49.736H150.786V59H156.81V45.512H140.538ZM159.554 59L169.826 59C174.314 59 176.474 57.704 176.474 54.416C176.474 51.56 174.458 50.168 169.826 50.168H165.602V45.512H159.554V59ZM165.602 53.384H168.698C169.898 53.384 170.258 53.792 170.258 54.488C170.258 55.28 169.922 55.64 168.746 55.64H165.602V53.384ZM178.713 59H184.737V54.392H189.777V59H195.801V45.512H189.777V50.12H184.737V45.512H178.713V59ZM197.956 59H204.82L210.22 51.152L209.956 54.848V59H215.98V45.512H209.044L203.788 52.88L203.98 49.664V45.512H197.956V59ZM222.167 40.064C222.167 41.336 222.623 42.296 223.535 42.92C224.327 43.472 225.479 43.736 226.991 43.736C228.359 43.736 229.511 43.424 230.423 42.824C231.407 42.176 231.887 41.24 231.887 40.064H228.695C228.719 40.808 228.191 41.552 226.991 41.552C225.719 41.552 225.191 40.808 225.239 40.064H222.167ZM217.679 59H224.543L229.943 51.152L229.679 54.848V59H235.703V45.512H228.767L223.511 52.88L223.703 49.664V45.512H217.679V59ZM33.896 81.152C33.92 81.824 34.04 82.448 34.28 83H40.544V82.712C40.064 82.352 39.944 81.8 39.944 80.912V75.704C39.944 73.328 39.632 71.816 38.096 70.616C36.848 69.656 34.448 69.152 30.872 69.152C24.8 69.152 21.872 70.256 21.608 73.712H27.824C27.992 72.656 28.976 72.368 30.92 72.368C32.672 72.368 33.608 72.896 33.608 73.592C33.608 74.696 31.64 74.408 27.416 74.696C24.512 74.888 22.448 75.032 21.2 76.592C20.744 77.168 20.48 78.008 20.48 79.016C20.48 81.968 22.688 83.432 27.104 83.432C30.152 83.432 32.264 82.856 33.896 81.152ZM33.872 76.712C33.896 76.832 33.896 76.928 33.896 77.048C33.896 78.776 32.24 79.976 29.528 79.976C28.112 79.976 27.32 79.472 27.32 78.632C27.32 77.792 28.016 77.552 29.624 77.408C31.232 77.264 32.648 77.312 33.872 76.712ZM42.5728 83H48.5968V78.392H53.6368V83H59.6608V69.512H53.6368V74.12H48.5968V69.512H42.5728V83ZM62.3199 83H68.3439V73.784H76.4319V69.512H62.3199V83ZM90.0888 81.152C90.1128 81.824 90.2328 82.448 90.4728 83H96.7368V82.712C96.2568 82.352 96.1368 81.8 96.1368 80.912V75.704C96.1368 73.328 95.8248 71.816 94.2888 70.616C93.0408 69.656 90.6408 69.152 87.0648 69.152C80.9928 69.152 78.0648 70.256 77.8008 73.712H84.0168C84.1848 72.656 85.1688 72.368 87.1128 72.368C88.8648 72.368 89.8008 72.896 89.8008 73.592C89.8008 74.696 87.8328 74.408 83.6088 74.696C80.7048 74.888 78.6408 75.032 77.3928 76.592C76.9368 77.168 76.6728 78.008 76.6728 79.016C76.6728 81.968 78.8808 83.432 83.2968 83.432C86.3448 83.432 88.4568 82.856 90.0888 81.152ZM90.0648 76.712C90.0888 76.832 90.0888 76.928 90.0888 77.048C90.0888 78.776 88.4328 79.976 85.7208 79.976C84.3048 79.976 83.5128 79.472 83.5128 78.632C83.5128 77.792 84.2088 77.552 85.8168 77.408C87.4248 77.264 88.8408 77.312 90.0648 76.712ZM98.8136 87.368H104.838V81.896C106.326 82.88 107.934 83.336 109.854 83.336C114.462 83.336 117.366 80.552 117.366 76.256C117.366 71.96 114.462 69.152 109.95 69.152C107.814 69.152 106.062 69.68 104.598 70.784L104.55 69.488H98.8136V87.368ZM104.838 76.256C104.838 74.408 106.11 73.256 107.934 73.256C109.782 73.256 111.03 74.408 111.03 76.256C111.03 78.08 109.782 79.232 107.934 79.232C106.11 79.232 104.838 78.08 104.838 76.256Z" fill="#052D1E"></path> </svg> 