<?xml version="1.0" encoding="UTF-8"?> <svg xmlns="http://www.w3.org/2000/svg" width="43" height="20" viewBox="0 0 43 20" fill="none"> <path d="M6.30083 0.800049L9.00082 1.10007L8.80083 1.60007C9.70083 1.30007 10.6008 1.20005 11.6008 1.30005C13.7008 1.60005 14.7008 2.80006 14.1008 4.50006C13.5008 6.20006 11.7008 7.10005 9.50082 6.80005C8.60082 6.70005 7.90083 6.40005 7.30083 5.90005L6.50082 8.00006L3.60083 7.60007L6.30083 0.800049ZM9.20082 5.10007C10.1008 5.20007 10.8008 4.80007 11.1008 4.10007C11.4008 3.40007 10.9008 2.90007 10.1008 2.70007C9.20083 2.60007 8.50082 3.00007 8.20082 3.70007C7.90082 4.50007 8.30082 5.00007 9.20082 5.10007Z" fill="#292929"></path> <path d="M16.7006 7.80004C14.6006 7.50004 13.8006 6.80007 14.2006 5.70007C14.3006 5.30007 14.6006 5.00004 14.9006 4.80004C15.7006 4.30004 16.7006 4.30005 18.1006 4.40005C20.1006 4.50005 21.0006 4.80004 21.2006 4.30004C21.3006 4.00004 20.9006 3.80007 20.1006 3.70007C19.2006 3.60007 18.7006 3.60006 18.4006 4.00006L15.5006 3.60006C16.1006 2.30006 17.7006 2.00005 20.6006 2.40005C22.3006 2.60005 23.4006 3.00005 23.8006 3.40005C24.4006 4.00005 24.3006 4.60006 23.9006 5.50006L23.1006 7.50006C23.0006 7.80006 22.9006 8.10007 23.1006 8.20007V8.30004L20.1006 7.90005C20.1006 7.70005 20.1006 7.40007 20.2006 7.20007C19.3006 7.90007 18.2006 8.00004 16.7006 7.80004ZM18.8006 5.60006C18.0006 5.60006 17.7006 5.60005 17.5006 5.90005C17.4006 6.20005 17.7006 6.50006 18.3006 6.60006C19.6006 6.80006 20.5006 6.40007 20.8006 5.70007V5.60006C20.2006 5.80006 19.6006 5.60006 18.8006 5.60006Z" fill="#292929"></path> <path d="M26.4007 3.30005L29.2007 3.70007L29.1007 4.10007C29.6007 3.80007 30.3007 3.70005 31.1007 3.80005C32.6007 4.00005 33.0007 4.70007 32.5007 6.10007L32.3007 6.60007L29.8007 6.30005C30.0007 5.80005 29.9007 5.50005 29.4007 5.40005C28.9007 5.30006 28.6007 5.70005 28.4007 6.30005L27.4007 9.00006L24.5007 8.60007L26.4007 3.30005Z" fill="#292929"></path> <path d="M34.8007 2.80005L37.7007 3.20007L36.5007 6.40005L39.2007 5.00006L43.0007 5.50006L39.8007 7.00006L41.3007 10.8L37.9007 10.4001L37.1007 8.20007L35.5007 8.90005L35.1007 10.1001L32.2007 9.70007L34.8007 2.80005Z" fill="#292929"></path> <path d="M3.30071 15.9C1.20071 15.6 0.400714 14.9 0.800714 13.8C0.900714 13.4 1.20071 13.1 1.50071 12.9C2.30071 12.4 3.30071 12.4001 4.70071 12.5001C6.70071 12.6001 7.60071 12.9 7.80071 12.4C7.90071 12.1 7.50071 11.9 6.70071 11.8C5.80071 11.7 5.30071 11.7001 5.00071 12.1001L2.10072 11.7001C2.70072 10.4001 4.30071 10.1001 7.20071 10.5001C8.90071 10.7001 10.0007 11.1001 10.4007 11.5001C11.0007 12.1001 10.9007 12.7001 10.5007 13.6001L9.70071 15.6001C9.60071 15.9001 9.50071 16.2 9.70071 16.3V16.4L6.70071 16.0001C6.70071 15.8001 6.70071 15.5 6.80071 15.3C5.80071 16 4.70071 16.1 3.30071 15.9ZM5.4007 13.7001C4.6007 13.7001 4.30072 13.7001 4.10072 14.0001C4.00072 14.3001 4.30071 14.6001 5.00071 14.7001C6.30071 14.9001 7.20071 14.5 7.50071 13.8V13.7001C6.80071 13.8001 6.2007 13.7001 5.4007 13.7001Z" fill="#292929"></path> <path d="M12.9007 11.4001L15.7007 11.8L15.6007 12.2001C16.1007 11.9001 16.8007 11.8001 17.6007 11.9001C19.1007 12.1001 19.5007 12.8001 19.0007 14.2001L18.8007 14.7001L16.3007 14.4001C16.5007 13.9001 16.4007 13.6001 15.9007 13.5001C15.4007 13.4001 15.1007 13.8001 14.9007 14.4001L13.9007 17.1001L11.0007 16.7001L12.9007 11.4001Z" fill="#292929"></path> <path d="M22.8007 18.4C19.9007 18 18.6007 16.8001 19.3007 15.0001C20.0007 13.2001 22.0007 12.4 24.9007 12.8C28.0007 13.2 29.2007 14.5001 28.4007 16.7001V16.8L22.2007 16.0001C22.0007 16.6001 22.5007 17.0001 23.5007 17.1001C24.2007 17.2001 24.7007 17.1 25.0007 16.9L28.1007 17.3C27.3007 18.3 25.5007 18.7 22.8007 18.4ZM25.9007 15.2001C26.0007 14.6001 25.6007 14.2001 24.6007 14.1001C23.6007 14.0001 22.8007 14.2 22.5007 14.8L25.9007 15.2001Z" fill="#292929"></path> <path d="M31.2006 19.5001C29.1006 19.2001 28.3006 18.5001 28.7006 17.4001C28.8006 17.0001 29.1006 16.7001 29.4006 16.5001C30.2006 16.0001 31.2006 16.0001 32.6006 16.1001C34.6006 16.2001 35.5006 16.5001 35.7006 16.0001C35.8006 15.7001 35.4006 15.5001 34.6006 15.4001C33.7006 15.3001 33.2006 15.3001 32.9006 15.7001L30.0006 15.3C30.6006 14 32.2006 13.7001 35.1006 14.1001C36.8006 14.3001 37.9006 14.7001 38.3006 15.1001C38.9006 15.7001 38.8006 16.3001 38.4006 17.2001L37.6006 19.2001C37.5006 19.5001 37.4006 19.8001 37.6006 19.9001V20.0001L34.6006 19.6001C34.6006 19.4001 34.6006 19.1001 34.7006 18.9001C33.7006 19.6001 32.7006 19.6001 31.2006 19.5001ZM33.3006 17.3C32.5006 17.3 32.2006 17.3001 32.0006 17.6001C31.9006 17.9001 32.2006 18.2 32.8006 18.3C34.1006 18.5 35.0006 18.1001 35.3006 17.4001V17.3C34.7006 17.4 34.1006 17.3 33.3006 17.3Z" fill="#292929"></path> </svg> 