<?xml version="1.0" encoding="UTF-8"?> <svg xmlns="http://www.w3.org/2000/svg" width="33" height="24" viewBox="0 0 33 24" fill="none"> <path d="M1.20087 7.79991L3.50085 7.29991V7.79991C4.10085 7.19991 4.80083 6.8999 5.60083 6.6999C7.40083 6.2999 8.50085 7.2999 8.50085 9.0999C8.50085 10.8999 7.30085 12.2999 5.50085 12.6999C4.70085 12.8999 4.10085 12.7999 3.50085 12.4999V14.7999L1.10083 15.2999V7.79991H1.20087ZM4.90088 11.0999C5.60088 10.9999 6.10083 10.3999 6.10083 9.5999C6.10083 8.7999 5.60088 8.4999 4.90088 8.5999C4.20088 8.6999 3.70087 9.2999 3.70087 10.0999C3.60087 10.8999 4.10088 11.2999 4.90088 11.0999Z" fill="#292929"></path> <path d="M11.7009 11.4999C9.90087 11.8999 9.10083 11.3999 9.10083 10.1999C9.10083 9.7999 9.20088 9.3999 9.40088 9.0999C9.90088 8.2999 10.7009 8.09991 11.9009 7.79991C13.6009 7.29991 14.4009 7.29991 14.4009 6.79991C14.4009 6.49991 14.0008 6.3999 13.3008 6.4999C12.5008 6.6999 12.1008 6.89991 12.1008 7.29991L9.60083 7.79991C9.70083 6.29991 10.9008 5.5999 13.3008 5.1999C14.7008 4.8999 15.7009 4.8999 16.2009 5.1999C16.8009 5.5999 16.9009 6.1999 16.9009 7.1999V9.3999C16.9009 9.7999 16.9008 9.9999 17.1008 10.0999V10.1999L14.6008 10.6999C14.5008 10.4999 14.5009 10.1999 14.4009 9.9999C13.8009 10.7999 12.9009 11.1999 11.7009 11.4999ZM12.7009 8.79991C12.1009 8.99991 11.8008 9.0999 11.8008 9.4999C11.8008 9.8999 12.1009 9.9999 12.7009 9.8999C13.8009 9.6999 14.4009 8.99991 14.4009 8.29991V8.1999C13.9009 8.4999 13.3009 8.59991 12.7009 8.79991Z" fill="#292929"></path> <path d="M18.1008 4.39991L20.5009 3.89991V4.29991C20.8009 3.89991 21.3009 3.59991 22.0009 3.39991C23.2009 3.09991 23.8008 3.6999 23.8008 5.1999V5.6999L21.7009 6.0999C21.7009 5.4999 21.5008 5.29991 21.1008 5.39991C20.7008 5.49991 20.5009 5.8999 20.5009 6.5999V9.4999L18.1008 9.9999V4.39991Z" fill="#292929"></path> <path d="M24.6008 1.3999L27.0009 0.899902V4.3999L28.7009 2.2999L31.9009 1.5999L29.8008 3.9999L32.2009 7.1999L29.3008 7.7999L28.0009 5.8999L27.0009 6.9999V8.2999L24.6008 8.7999V1.3999Z" fill="#292929"></path> <path d="M3.40082 23.1999C1.70082 23.5999 0.800781 23.0999 0.800781 21.8999C0.800781 21.4999 0.900769 21.0999 1.10077 20.7999C1.60077 19.9999 2.40077 19.7999 3.60077 19.4999C5.30077 18.9999 6.10077 18.9999 6.10077 18.4999C6.10077 18.1999 5.70079 18.0999 5.00079 18.1999C4.20079 18.3999 3.80078 18.5999 3.80078 18.9999L1.30078 19.4999C1.40078 17.9999 2.60079 17.2999 5.00079 16.8999C6.40079 16.5999 7.40082 16.5999 7.90082 16.8999C8.50082 17.2999 8.60077 17.8999 8.60077 18.8999V21.0999C8.60077 21.4999 8.60078 21.6999 8.80078 21.7999V21.8999L6.30078 22.3999C6.20078 22.1999 6.20077 21.8999 6.10077 21.6999C5.50077 22.4999 4.60082 22.8999 3.40082 23.1999ZM4.40082 20.4999C3.80082 20.6999 3.50079 20.7999 3.50079 21.1999C3.50079 21.5999 3.80082 21.6999 4.40082 21.5999C5.50082 21.3999 6.10077 20.6999 6.10077 19.9999V19.8999C5.60077 20.1999 5.00082 20.2999 4.40082 20.4999Z" fill="#292929"></path> <path d="M9.80078 16.0999L12.2008 15.5999V15.9999C12.5008 15.5999 13.0008 15.2999 13.7008 15.0999C14.9008 14.7999 15.5008 15.3999 15.5008 16.8999V17.3999L13.4008 17.7999C13.4008 17.1999 13.2008 16.9999 12.8008 17.0999C12.4008 17.1999 12.2008 17.5999 12.2008 18.2999V21.1999L9.80078 21.6999V16.0999Z" fill="#292929"></path> <path d="M19.8007 19.7999C17.3007 20.2999 16.0007 19.4999 16.0007 17.5999C16.0007 15.6999 17.3007 14.2999 19.8007 13.7999C22.4007 13.2999 23.7007 14.1999 23.7007 16.4999V16.5999L18.5007 17.6999C18.5007 18.2999 19.0008 18.5999 19.9008 18.3999C20.5008 18.2999 20.9007 17.9999 21.0007 17.6999L23.6007 17.1999C23.3007 18.4999 22.0007 19.3999 19.8007 19.7999ZM21.2007 15.8999C21.1007 15.2999 20.6008 14.9999 19.9008 15.1999C19.1008 15.3999 18.5008 15.7999 18.4008 16.4999L21.2007 15.8999Z" fill="#292929"></path> <path d="M26.8008 18.3999C25.0008 18.7999 24.2008 18.2999 24.2008 17.0999C24.2008 16.6999 24.3008 16.2999 24.5008 15.9999C25.0008 15.1999 25.8008 14.9999 27.0008 14.6999C28.7008 14.1999 29.5008 14.1999 29.5008 13.6999C29.5008 13.3999 29.1008 13.2999 28.4008 13.3999C27.6008 13.5999 27.2008 13.7999 27.2008 14.1999L24.7008 14.6999C24.8008 13.1999 26.0008 12.4999 28.4008 12.0999C29.8008 11.7999 30.8008 11.7999 31.3008 12.0999C31.9008 12.4999 32.0008 13.0999 32.0008 14.0999V16.2999C32.0008 16.6999 32.0008 16.8999 32.2008 16.9999V17.0999L29.7008 17.5999C29.6008 17.3999 29.6008 17.0999 29.5008 16.8999C28.8008 17.7999 28.0008 18.1999 26.8008 18.3999ZM27.8008 15.6999C27.2008 15.8999 26.9008 15.9999 26.9008 16.3999C26.9008 16.7999 27.2008 16.8999 27.8008 16.7999C28.9008 16.5999 29.5008 15.8999 29.5008 15.1999V15.0999C29.0008 15.3999 28.4008 15.4999 27.8008 15.6999Z" fill="#292929"></path> </svg> 