<?xml version="1.0" encoding="UTF-8"?> <svg xmlns="http://www.w3.org/2000/svg" width="90" height="560" viewBox="0 0 90 560" fill="none"> <path d="M70 552.8L70 527.51L52.45 527.51L43.45 516.44L70 498.8L70 467.39L28.24 497.27L4.66 470.09L4.66 504.29L27.25 527.51L4.66 527.51L4.66 552.8L70 552.8ZM44.71 470.682C61.63 470.682 71.71 458.082 71.71 435.042C71.71 412.002 61.63 399.492 44.71 399.492C27.79 399.492 17.71 412.002 17.71 435.042C17.71 458.082 27.79 470.682 44.71 470.682ZM44.71 446.832C37.69 446.832 33.28 442.152 33.28 435.132C33.28 428.112 37.69 423.432 44.71 423.432C51.73 423.432 56.14 428.112 56.14 435.132C56.14 442.152 51.73 446.832 44.71 446.832ZM19.42 392.689L70 392.689L70 370.099L51.01 370.099L31.12 372.979L70 359.479L70 346.699L31.12 333.199L51.01 336.079L70 336.079L70 313.489L19.42 313.489L19.42 343.549L45.7 353.089L19.42 362.629L19.42 392.689ZM63.07 257.265C65.59 257.175 67.93 256.725 70 255.825L70 232.335L68.92 232.335C67.57 234.135 65.5 234.585 62.17 234.585L42.64 234.585C33.73 234.585 28.06 235.755 23.56 241.515C19.96 246.195 18.07 255.195 18.07 268.605C18.07 291.375 22.21 302.355 35.17 303.345L35.17 280.035C31.21 279.405 30.13 275.715 30.13 268.425C30.13 261.855 32.11 258.345 34.72 258.345C38.86 258.345 37.78 265.725 38.86 281.565C39.58 292.455 40.12 300.195 45.97 304.875C48.13 306.585 51.28 307.575 55.06 307.575C66.13 307.575 71.62 299.295 71.62 282.735C71.62 271.305 69.46 263.385 63.07 257.265ZM46.42 257.355C46.87 257.265 47.23 257.265 47.68 257.265C54.16 257.265 58.66 263.475 58.66 273.645C58.66 278.955 56.77 281.925 53.62 281.925C50.47 281.925 49.57 279.315 49.03 273.285C48.49 267.255 48.67 261.945 46.42 257.355ZM70 224.727L70 202.137L52.72 202.137L52.72 183.237L70 183.237L70 160.647L19.42 160.647L19.42 183.237L36.7 183.237L36.7 202.137L19.42 202.137L19.42 224.727L70 224.727ZM35.44 109.275L53.89 109.275L53.89 126.915C50.2 123.135 46.96 121.965 39.31 121.965L35.44 121.965L35.44 109.275ZM53.89 154.455L83.05 154.455L83.05 133.665L70 133.665L70 100.815L83.05 100.815L83.05 80.0251L53.89 80.0251L53.89 86.6851L19.33 86.6851L19.33 142.755L34 142.755C45.16 142.755 49.48 144.465 53.89 148.335L53.89 154.455ZM63.07 28.524C65.59 28.434 67.93 27.984 70 27.084L70 3.59396L68.92 3.59396C67.57 5.39397 65.5 5.84397 62.17 5.84397L42.64 5.84397C33.73 5.84397 28.06 7.01397 23.56 12.774C19.96 17.454 18.07 26.454 18.07 39.864C18.07 62.634 22.21 73.614 35.17 74.604L35.17 51.294C31.21 50.664 30.13 46.974 30.13 39.684C30.13 33.114 32.11 29.604 34.72 29.604C38.86 29.604 37.78 36.984 38.86 52.824C39.58 63.714 40.12 71.454 45.97 76.134C48.13 77.844 51.28 78.834 55.06 78.834C66.13 78.834 71.62 70.554 71.62 53.994C71.62 42.564 69.46 34.644 63.07 28.524ZM46.42 28.614C46.87 28.524 47.23 28.524 47.68 28.524C54.16 28.524 58.66 34.734 58.66 44.904C58.66 50.214 56.77 53.184 53.62 53.184C50.47 53.184 49.57 50.574 49.03 44.544C48.49 38.514 48.67 33.204 46.42 28.614Z" fill="#052D1E"></path> <rect x="87" y="4" width="3" height="550" fill="#052D1E"></rect> </svg> 