<?xml version="1.0" encoding="UTF-8"?> <svg xmlns="http://www.w3.org/2000/svg" width="160" height="40" viewBox="0 0 160 40" fill="none"> <path d="M0 0L14.2 2.5V13.7L9.2 12.8V5.2L5 4.4V12.1L0 11.2V0Z" fill="#292929"></path> <path d="M23.9996 3.80003C29.0996 4.70003 31.8996 7.40003 31.8996 11.2C31.8996 15 29.0996 16.7 23.9996 15.8C18.8996 14.9 16.0996 12.2 16.0996 8.40003C16.0996 4.60003 18.8996 2.90003 23.9996 3.80003ZM23.9996 12.4C25.5996 12.7 26.5996 11.9 26.5996 10.3C26.5996 8.70003 25.5996 7.60003 23.9996 7.30003C22.3996 7.00003 21.3996 7.80003 21.3996 9.40003C21.3996 10.9 22.4996 12.1 23.9996 12.4Z" fill="#292929"></path> <path d="M48.4996 8.5001V19.7001L43.4996 18.8001V11.1001L39.9996 10.5001V14.0001C39.9996 15.4001 39.3996 16.4001 38.7996 17.0001C37.9996 17.7001 36.8996 17.9001 35.2996 17.6001C34.0996 17.4001 33.3996 17.3001 32.5996 16.9001V14.0001C32.8996 14.1001 33.2996 14.2001 33.5996 14.3001C34.6996 14.5001 34.9996 13.8001 34.9996 11.0001V6.1001L48.4996 8.5001Z" fill="#292929"></path> <path d="M51.1992 5.19995L56.2992 6.09995V8.99995L51.1992 8.09995V5.19995ZM51.1992 8.99995L56.2992 9.89995V21.2L51.1992 20.3V8.99995Z" fill="#292929"></path> <path d="M59.1992 10.5L64.1992 11.4V15L67.8992 12.1L74.5992 13.3L70.1992 16.4L75.0992 24.6L69.0992 23.5L66.3992 18.7L64.1992 20V22.5L59.1992 21.6V10.5Z" fill="#292929"></path> <path d="M90.8004 16V27.2L85.8004 26.3V18.6L82.3004 18V21.5C82.3004 22.9 81.7004 23.9 81.1004 24.5C80.3004 25.2 79.2004 25.4 77.6004 25.1C76.4004 24.9 75.7004 24.8 74.9004 24.4V21.5C75.2004 21.6 75.6004 21.7 75.9004 21.8C77.0004 22 77.3004 21.3 77.3004 18.5V13.7L90.8004 16Z" fill="#292929"></path> <path d="M93.5996 12.6001L98.6996 13.5001V16.4001L93.5996 15.5001V12.6001ZM93.5996 16.4001L98.6996 17.3001V28.6001L93.5996 27.7001V16.4001Z" fill="#292929"></path> <path d="M101.5 17.8L106.5 18.7001V22.5L110.7 23.2001V19.4L115.7 20.3V31.5L110.7 30.6V26.8L106.5 26.1V30L101.5 29.1V17.8Z" fill="#292929"></path> <path d="M118.6 17L123.7 17.9V20.8L118.6 19.9V17ZM118.6 20.8L123.7 21.7V33L118.6 32.1V20.8Z" fill="#292929"></path> <path d="M126.5 22.3L131.5 23.2001V26.8L135.2 23.9L141.9 25.1L137.5 28.2001L142.4 36.4001L136.4 35.3L133.7 30.5L131.5 31.9V34.4001L126.5 33.5V22.3Z" fill="#292929"></path> <path d="M148.1 37.6C144.4 37 142.6 35.4 142.6 32.9C142.6 32.1 142.8 31.4 143.2 31C144.2 29.9 146 30.1 148.4 30.3C151.9 30.7 153.6 31.2 153.6 30.3C153.6 29.7 152.8 29.1 151.4 28.9C149.8 28.6 149 28.7 148.8 29.6L143.6 28.7C143.8 25.9 146.3 25.4 151.3 26.3C154.3 26.8 156.3 27.6 157.3 28.6C158.6 29.8 158.8 31.1 158.8 33.1V37.4C158.8 38.1 158.9 38.6 159.3 39V39.2L154.1 38.3C153.9 37.8 153.8 37.3 153.8 36.7C152.4 37.9 150.7 38.1 148.1 37.6ZM150.2 33C148.9 32.9 148.3 33 148.3 33.7C148.3 34.4 149 34.9 150.1 35.1C152.4 35.5 153.7 34.7 153.7 33.3C153.7 33.2 153.7 33.1 153.7 33C152.8 33.3 151.6 33.1 150.2 33Z" fill="#292929"></path> </svg> 