<?xml version="1.0" encoding="UTF-8"?> <svg xmlns="http://www.w3.org/2000/svg" width="66" height="28" viewBox="0 0 66 28" fill="none"> <path d="M0.300781 21L2.80078 20.1L3.70081 20.6C3.60081 20 4.00082 19.5 4.90082 19.2C6.90082 18.5 10.1008 19 13.0008 20.5C16.0008 22 16.6008 23.5 14.6008 24.2C13.8008 24.5 12.7008 24.6 11.4008 24.5L15.2008 26.4L12.6008 27.4L0.300781 21ZM11.0008 23C11.8008 22.7 11.6008 22.1 10.3008 21.5C9.00078 20.8 7.70082 20.6 6.90082 20.9C6.10082 21.2 6.30077 21.8 7.60077 22.5C8.80077 23.1 10.2008 23.3 11.0008 23Z" fill="#292929"></path> <path d="M21.4009 21.7C19.5009 22.4 17.5008 22.2 15.5008 21.2C14.8008 20.8 14.3009 20.5 14.2009 20.2C13.7009 19.4 14.5008 19.0999 15.6008 18.4999C17.2008 17.6999 18.3008 17.4999 17.5008 17.0999C17.0008 16.8999 16.3008 16.7999 15.5008 17.0999C14.7008 17.3999 14.4008 17.6999 15.1008 18.0999L12.4009 19.0999C10.1009 17.7999 10.7008 16.9999 13.3008 15.9999C14.9008 15.3999 16.3008 15.1999 17.5008 15.3999C19.0008 15.5999 20.2008 16.0999 21.8008 16.8999L25.4009 18.7C26.0009 19 26.4009 19.2 26.9009 19.2L27.1008 19.2999L24.4009 20.2999C23.9009 20.0999 23.4008 19.9 23.0008 19.7C23.3008 20.7 22.7009 21.2 21.4009 21.7ZM18.4009 19.2C17.8009 19.5 17.7009 19.6999 18.2009 19.9999C18.8009 20.2999 19.5008 20.2999 20.1008 20.0999C21.3008 19.6999 21.2008 18.9999 20.0008 18.3999C19.9008 18.3999 19.9008 18.2999 19.8008 18.2999C19.6008 18.5999 19.0009 18.8 18.4009 19.2Z" fill="#292929"></path> <path d="M18.9009 14.2L21.5009 13.2L22.2009 13.5999C22.0009 13.1999 22.2009 12.7999 22.9009 12.4999C24.3009 11.9999 26.0009 12.3999 28.5009 13.5999L29.3008 13.9999L27.0009 14.8999H26.9009C26.0009 14.3999 25.3009 14.2999 24.9009 14.3999C24.4009 14.5999 24.9009 14.8999 26.0009 15.4999L30.8008 17.9999L28.1008 18.9999L18.9009 14.2Z" fill="#292929"></path> <path d="M23.3008 10.1L25.9008 9.09996L31.6008 12L30.6008 9.79994L34.1008 8.49995L35.0008 11L43.7008 13.2L40.5008 14.3999L35.5008 13.1L35.9008 14.2999L38.0008 15.3999L35.4008 16.3999L23.3008 10.1Z" fill="#292929"></path> <path d="M31.8008 6.69997L34.4008 5.69997L36.8008 6.89995L34.2008 7.89995L31.8008 6.69997ZM35.0008 8.29994L37.6008 7.29994L46.9008 12.1L44.3008 13.1L35.0008 8.29994Z" fill="#292929"></path> <path d="M39.1008 6.79995L41.7009 5.79995L42.7009 6.29995C42.6009 5.59995 43.0009 5.19995 43.9009 4.89995C45.7009 4.29995 47.8009 4.69997 50.7009 6.19997L55.8008 8.79995L53.2009 9.79995L48.9009 7.59997C47.6009 6.89997 46.9008 6.69996 46.1008 6.99996C45.3008 7.29996 45.5009 7.79995 46.5009 8.29995L51.0009 10.6L48.4009 11.6L39.1008 6.79995Z" fill="#292929"></path> <path d="M65.3007 5.89995C66.4007 7.09995 65.9007 7.89996 63.9007 8.59996C61.6007 9.49996 59.4007 9.39995 57.0007 8.39995L60.5007 7.09996C61.0007 7.29996 61.4007 7.29997 61.8007 7.19997C62.6007 6.89997 62.4007 6.49995 61.2007 5.89995C61.0007 5.79995 60.9007 5.69996 60.7007 5.59996C60.8007 6.19996 60.4007 6.59995 59.4007 6.99995C57.5007 7.69995 54.5007 7.19995 51.8007 5.89995C49.1007 4.49995 48.6007 3.19995 50.5007 2.39995C51.5007 1.99995 52.6007 1.89996 54.0007 2.09996L53.1007 1.59996L55.6007 0.699951L62.8007 4.39995C64.1007 5.09995 64.9007 5.49995 65.3007 5.89995ZM57.7007 5.29994C58.5007 4.99994 58.4007 4.49995 57.3007 3.89995C56.2007 3.39995 55.0007 3.19995 54.2007 3.49995C53.4007 3.79995 53.5007 4.39995 54.6007 4.89995C55.7007 5.39995 56.9007 5.59994 57.7007 5.29994Z" fill="#292929"></path> </svg> 