<?xml version="1.0" encoding="UTF-8"?> <svg xmlns="http://www.w3.org/2000/svg" width="90" height="703" viewBox="0 0 90 703" fill="none"> <path d="M68 696.048L68 632.248L50.488 632.248L50.488 671.232L4.112 671.232L4.112 696.048L68 696.048ZM68 626.222L68 556.438L51.544 556.438L51.544 601.494L43.096 601.494L43.096 566.734L27.432 566.734L27.432 601.494L19.776 601.494L19.776 558.55L4.11199 558.55L4.112 626.222L68 626.222ZM68 550.295L68 527.327L18.104 527.327L68 512.367L68 493.007L18.104 477.871L68 477.871L68 454.903L4.11199 454.903L4.11199 491.071L43.008 502.775L4.11199 513.599L4.11199 550.295L68 550.295ZM52.248 406.887C64.656 406.359 69.672 395.623 69.672 373.711C69.672 349.247 64.832 337.983 51.72 337.983C44.592 337.983 41.248 341.063 38.696 348.367C37.64 351.447 37.024 358.927 35.968 370.807C35.264 378.639 35.44 382.247 32.096 382.247C29.72 382.247 28.664 379.695 28.664 374.591C28.664 368.783 29.896 365.879 33.416 365.615L33.416 340.095C21.888 340.799 16.872 351.535 16.872 372.743C16.872 395.007 21.624 405.655 33.328 405.655C39.136 405.655 43.448 403.103 45.384 398.703C47.936 392.983 48.64 385.679 49.52 376.615C50.4 367.639 50.312 363.503 53.744 363.503C55.944 363.503 57.088 366.143 57.088 371.159C57.088 376.791 55.856 379.519 52.248 379.871L52.248 406.887ZM67.912 297.521L54.272 297.521L54.272 300.689C54.272 306.057 51.544 306.057 43.8 306.057L33.592 306.057L33.592 298.137L19.688 298.137L19.688 306.057L3.49598 306.057L3.49598 328.409L19.688 328.409L19.688 336.241L33.592 336.241L33.592 328.409L52.952 328.409C60.08 328.409 64.48 327.529 66.856 321.633C68.264 318.113 68.88 313.713 68.88 308.433C68.88 304.825 68.528 301.217 67.912 297.521ZM61.224 246.499C63.688 246.411 65.976 245.971 68 245.091L68 222.123L66.944 222.123C65.624 223.883 63.6 224.323 60.344 224.323L41.248 224.323C32.536 224.323 26.992 225.467 22.592 231.099C19.072 235.675 17.224 244.475 17.224 257.587C17.224 279.851 21.272 290.587 33.944 291.555L33.944 268.763C30.072 268.147 29.016 264.539 29.016 257.411C29.016 250.987 30.952 247.555 33.504 247.555C37.552 247.555 36.496 254.771 37.552 270.259C38.256 280.907 38.784 288.475 44.504 293.051C46.616 294.723 49.696 295.691 53.392 295.691C64.216 295.691 69.584 287.595 69.584 271.403C69.584 260.227 67.472 252.483 61.224 246.499ZM44.944 246.587C45.384 246.499 45.736 246.499 46.176 246.499C52.512 246.499 56.912 252.571 56.912 262.515C56.912 267.707 55.064 270.611 51.984 270.611C48.904 270.611 48.024 268.059 47.496 262.163C46.968 256.267 47.144 251.075 44.944 246.587ZM67.912 181.244L54.272 181.244L54.272 184.412C54.272 189.78 51.544 189.78 43.8 189.78L33.592 189.78L33.592 181.86L19.688 181.86L19.688 189.78L3.49597 189.78L3.49598 212.132L19.688 212.132L19.688 219.964L33.592 219.964L33.592 212.132L52.952 212.132C60.08 212.132 64.48 211.252 66.856 205.356C68.264 201.836 68.88 197.436 68.88 192.156C68.88 188.548 68.528 184.94 67.912 181.244ZM14.408 174.046L14.408 151.958L1.82397 151.958L1.82397 174.046L14.408 174.046ZM68 174.046L68 151.958L18.456 151.958L18.456 174.046L68 174.046ZM43.272 144.544C59.816 144.544 69.672 132.224 69.672 109.696C69.672 87.1678 59.816 74.9358 43.272 74.9358C26.728 74.9358 16.872 87.1678 16.872 109.696C16.872 132.224 26.728 144.544 43.272 144.544ZM43.272 121.224C36.408 121.224 32.096 116.648 32.096 109.784C32.096 102.92 36.408 98.3438 43.272 98.3438C50.136 98.3438 54.448 102.92 54.448 109.784C54.448 116.648 50.136 121.224 43.272 121.224ZM68 68.2842L68 46.1962L43.8 46.1962C38.344 46.1962 35.088 42.1482 35.088 35.7242C35.088 29.4762 37.904 27.7162 44.768 27.7162L68 27.7162L68 5.62816L40.632 5.62816C24.968 5.62816 17.576 11.7882 17.576 26.5722C17.576 33.9642 19.512 40.2122 23.648 46.1962L18.544 46.1962L18.544 68.2842L68 68.2842Z" fill="#052D1E"></path> <rect x="86" y="5" width="4" height="691" fill="#052D1E"></rect> </svg> 