<?xml version="1.0" encoding="UTF-8"?> <svg xmlns="http://www.w3.org/2000/svg" width="124" height="75" viewBox="0 0 124 75" fill="none"> <path d="M7.20001 34.1C2.60001 35 0 33.2 0 29.5C0 25.8 2.50001 23 7.20001 22.1C11.5 21.3 13.8 22.5 14.3 25.6L9.5 26.5C9.1 25.5 8.39999 25.1 7.29999 25.4C5.69999 25.7 4.70001 26.9 4.70001 28.6C4.70001 30.2 5.70001 31.1 7.20001 30.8C8.40001 30.6 9.39998 29.6 9.59998 28.4L14.4 27.5C14 31 11.6 33.3 7.20001 34.1Z" fill="#292929"></path> <path d="M16.1 17.4L20.6 16.5V21C21.8 19.8 23.1 19.1 24.6 18.9C27.6 18.3 28.8 19.8 28.8 23.3V29.5L24.3 30.4V25.1C24.3 23.5 23.9 23 22.7 23.2C21.4 23.4 20.6 24.3 20.6 25.6V31.1L16.1 32V17.4Z" fill="#292929"></path> <path d="M31.3 14.1L35.8 13.2V16.1L31.3 17V14.1ZM31.3 17.9L35.8 17V28.3L31.3 29.2V17.9Z" fill="#292929"></path> <path d="M38.3999 13.1L42.9999 12.2V26.8L38.3999 27.7V13.1Z" fill="#292929"></path> <path d="M58.5999 23.9L54.3999 24.7V23.6C53.2999 24.7 51.9999 25.4 50.3999 25.7C47.0999 26.3 44.8999 24.4 44.8999 20.8C44.8999 17.2 46.9999 14.5 50.4999 13.8C51.8999 13.5 53.1 13.7 54.2 14.3V10L58.7 9.10001V23.9H58.5999ZM51.8999 17.1C50.4999 17.4 49.5999 18.5 49.5999 20C49.5999 21.5 50.4999 22.3 51.8999 22.1C53.1999 21.8 54.2 20.7 54.2 19.2C54.1 17.6 53.1999 16.8 51.8999 17.1Z" fill="#292929"></path> <path d="M61.1 12.2L65.5 11.4L65.6 12.2C66.2 11.4 67.1 10.8 68.4 10.5C70.7 10.1 71.7 11.2 71.7 14.2V15.2L67.8 16V15.9C67.8 14.8 67.5 14.3 66.8 14.4C66 14.6 65.8 15.3 65.8 16.7V22.5L61.3 23.4V12.2H61.1Z" fill="#292929"></path> <path d="M79.7 20.2C75.1 21.1 72.6 19.3 72.6 15.6C72.6 11.9 75.1 9.09999 79.7 8.19999C84.5 7.29999 87 9.19999 87 13.8V14L77.3 15.9C77.3 17.1 78.2 17.6 79.9 17.3C81 17.1 81.7 16.6 82 16L86.8 15.1C86.3 17.6 83.8 19.4 79.7 20.2ZM82.4 12.5C82.3 11.3 81.4 10.7 79.9 11C78.3 11.3 77.3 12.2 77.1 13.5L82.4 12.5Z" fill="#292929"></path> <path d="M88.7 6.9L93.2 5.99999V7.19999C94.4 5.99999 95.7 5.29999 97.2 5.09999C100.2 4.49999 101.4 5.99999 101.4 9.49999V15.7L96.8999 16.6V11.3C96.8999 9.7 96.4999 9.19999 95.2999 9.39999C93.9999 9.59999 93.2 10.5 93.2 11.8V17.3L88.7 18.2V6.9Z" fill="#292929"></path> <path d="M102.9 0.9L107.6 0V3.1C107.6 4.5 107.5 5.4 106.5 6.4C105.7 7.2 104.7 7.9 103.5 8.6L103.1 6.9C103.9 6.5 104.2 6 104.3 5.4L103 5.7V0.9H102.9Z" fill="#292929"></path> <path d="M114.8 9.49999C114.9 10.3 115.4 10.5 116.6 10.3C117.6 10.1 118.1 9.69999 118.1 9.19999C118.1 8.39999 117.3 8.59999 115.5 8.69999C113.7 8.89999 112.2 8.99999 111 8.59999C110.1 8.29999 109.6 7.39999 109.6 6.09999C109.6 3.39999 111.7 1.89999 116.2 1.09999C120.5 0.299994 122.6 0.999994 122.8 3.59999L117.7 4.59999C117.6 3.79999 117.1 3.59999 115.9 3.89999C114.9 4.09999 114.4 4.39999 114.4 4.99999C114.4 5.79999 115.1 5.59999 116.7 5.39999C119.1 5.19999 120.6 4.99999 121.2 5.19999C122.7 5.49999 123.3 6.09999 123.3 7.79999C123.3 10.8 121 12.3 116.1 13.3C111.7 14.1 109.5 13.4 109.4 10.6L114.8 9.49999Z" fill="#292929"></path> <path d="M7.20001 54.1C2.60001 55 0 53.2 0 49.5C0 45.8 2.50001 43 7.20001 42.1C11.5 41.3 13.8 42.5 14.3 45.6L9.5 46.5C9.1 45.5 8.39999 45.1 7.29999 45.4C5.69999 45.7 4.70001 46.9 4.70001 48.6C4.70001 50.2 5.70001 51.1 7.20001 50.8C8.40001 50.6 9.39998 49.6 9.59998 48.4L14.4 47.5C14 51 11.6 53.3 7.20001 54.1Z" fill="#292929"></path> <path d="M16.2 40.8L20.5999 40L20.7 40.8C21.3 40 22.1999 39.4 23.4999 39.1C25.7999 38.7 26.7999 39.8 26.7999 42.8V43.8L22.8999 44.6V44.5C22.8999 43.4 22.5999 42.9 21.8999 43C21.0999 43.2 20.8999 43.9 20.8999 45.3V51.1L16.3999 52V40.8H16.2Z" fill="#292929"></path> <path d="M34.7999 48.8C30.1999 49.7 27.7 47.9 27.7 44.2C27.7 40.5 30.1999 37.7 34.7999 36.8C39.5999 35.9 42.0999 37.8 42.0999 42.4V42.6L32.3999 44.5C32.3999 45.7 33.2999 46.2 34.9999 45.9C36.0999 45.7 36.7999 45.2 37.0999 44.6L41.8999 43.7C41.3999 46.2 38.8999 48 34.7999 48.8ZM37.4999 41.1C37.3999 39.9 36.4999 39.3 34.9999 39.6C33.3999 39.9 32.4 40.8 32.2 42.1L37.4999 41.1Z" fill="#292929"></path> <path d="M47.9 46.3C44.6 46.9 43 46 43 43.6C43 42.8 43.2 42 43.5 41.5C44.4 40 46 39.6 48.1 39C51.2 38.2 52.7 38.1 52.7 37.2C52.7 36.6 52 36.3 50.7 36.6C49.3 36.9 48.5 37.3 48.4 38.2L43.8 39.1C44 36.2 46.2 34.8 50.7 34C53.3 33.5 55.1 33.6 56 34.2C57.1 35 57.4 36.2 57.4 38.2V42.5C57.4 43.2 57.5 43.7 57.8 43.9V44L53.2 44.9C53 44.5 52.9 44 52.9 43.4C51.7 45.1 50.1 45.9 47.9 46.3ZM49.7 40.9C48.5 41.2 48 41.5 48 42.2C48 42.9 48.6 43.2 49.6 43C51.6 42.6 52.8 41.4 52.8 39.9C52.8 39.8 52.8 39.7 52.8 39.6C52 40.4 50.9 40.6 49.7 40.9Z" fill="#292929"></path> <path d="M64.2 43C63.1 43.2 62.2 43.2 61.5 43C60.3 42.7 60.1 41.7 60.1 40.1V35.7L58.5 36V32.8L60.1 32.5V28.8L64.6 27.9V31.6L66.2 31.3V34.5L64.6 34.8V37.1C64.6 38.9 64.6 39.5 65.7 39.3L66.3 39.2V42.3C65.7 42.7 65 42.9 64.2 43Z" fill="#292929"></path> <path d="M68.3 27L72.8 26.1V29L68.3 29.9V27ZM68.3 30.8L72.8 29.9V41.2L68.3 42.1V30.8Z" fill="#292929"></path> <path d="M73.6 29.8L78.7 28.8L80.3 33.5C80.5 34 80.6 34.5 80.7 35.2C80.8 34.6 80.9 34.1 81.1 33.5L82.7 28.1L87.8 27.1L83.1 39.2L78.2 40.1L73.6 29.8Z" fill="#292929"></path> <path d="M89.1 23L93.6 22.1V25L89.1 25.9V23ZM89.1 26.8L93.6 25.9V37.2L89.1 38.1V26.8Z" fill="#292929"></path> <path d="M100.6 36.1C99.4999 36.3 98.5999 36.3 97.8999 36.2C96.6999 35.9 96.4999 34.9 96.4999 33.3V28.9L94.8999 29.2V26L96.4999 25.7V22L101 21.1V24.8L102.6 24.5V27.7L101 28V30.3C101 32.1 101 32.7 102.1 32.5L102.7 32.4V35.5C102 35.7 101.3 35.9 100.6 36.1Z" fill="#292929"></path> <path d="M105.2 35.1C106.4 34.9 106.9 34.4 107.2 33L102.6 24.2L107.5 23.3L109.1 27C109.3 27.6 109.5 28.1 109.7 28.7C109.8 28.2 110 27.6 110.2 27.1L111.8 22.5L116.5 21.6L112.3 32.1C111.4 34.3 110.7 35.7 110.3 36.4C109.5 37.5 108.6 37.8 107.4 38L104.3 38.6V35.3L105.2 35.1Z" fill="#292929"></path> <path d="M7.20001 74.1C2.60001 75 0 73.2 0 69.5C0 65.8 2.50001 63 7.20001 62.1C11.5 61.3 13.8 62.5 14.3 65.6L9.5 66.5C9.1 65.5 8.39999 65.1 7.29999 65.4C5.69999 65.7 4.70001 66.9 4.70001 68.6C4.70001 70.2 5.70001 71.1 7.20001 70.8C8.40001 70.6 9.39998 69.6 9.59998 68.4L14.4 67.5C14 71 11.6 73.3 7.20001 74.1Z" fill="#292929"></path> <path d="M22.6 71.2C18 72.1 15.5 70.3 15.5 66.6C15.5 62.9 18 60.1 22.6 59.2C27.4 58.3 29.9 60.2 29.9 64.8V65L20.2 66.9C20.2 68.1 21.1 68.6 22.8 68.3C23.9 68.1 24.6 67.6 24.9 67L29.7 66.1C29.1 68.6 26.7 70.4 22.6 71.2ZM25.3 63.4C25.2 62.2 24.3 61.6 22.8 61.9C21.2 62.2 20.2 63.1 20 64.4L25.3 63.4Z" fill="#292929"></path> <path d="M31.6 57.8L36.1 56.9V58.1C37.3 56.9 38.6 56.2 40.1 56C43.1 55.4 44.3 56.9 44.3 60.4V66.6L39.8 67.5V62.2C39.8 60.6 39.4 60.1 38.2 60.3C36.9 60.5 36.1 61.4 36.1 62.7V68.2L31.6 69.1V57.8Z" fill="#292929"></path> <path d="M51.0999 65.5C49.9999 65.7 49.0999 65.7 48.3999 65.5C47.1999 65.2 46.9999 64.2 46.9999 62.6V58.2L45.3999 58.5V55.3L46.9999 55V51.3L51.4999 50.4V54.1L53.0999 53.8V57L51.4999 57.3V59.6C51.4999 61.4 51.4999 62 52.5999 61.8L53.2 61.7V64.8C52.5 65.2 51.7999 65.4 51.0999 65.5Z" fill="#292929"></path> <path d="M61.2999 63.8C56.6999 64.7 54.2 62.9 54.2 59.2C54.2 55.5 56.6999 52.7 61.2999 51.8C66.0999 50.9 68.5999 52.8 68.5999 57.4V57.6L58.8999 59.5C58.8999 60.7 59.7999 61.2 61.4999 60.9C62.5999 60.7 63.2999 60.2 63.5999 59.6L68.3999 58.7C67.8999 61.2 65.3999 63 61.2999 63.8ZM63.9999 56C63.8999 54.8 62.9999 54.2 61.4999 54.5C59.8999 54.8 58.9 55.7 58.7 57L63.9999 56Z" fill="#292929"></path> <path d="M70.3 50.4L74.7001 49.6L74.8 50.4C75.4 49.6 76.3 49 77.6 48.7C79.9 48.3 80.9 49.4 80.9 52.4V53.4L77.0001 54.2V54.1C77.0001 53 76.7001 52.5 76.0001 52.6C75.2001 52.8 75.0001 53.5 75.0001 54.9V60.7L70.5001 61.6V50.4H70.3Z" fill="#292929"></path> </svg> 