<?xml version="1.0" encoding="UTF-8"?> <svg xmlns="http://www.w3.org/2000/svg" width="333" height="164" viewBox="0 0 333 164" fill="none"> <rect width="333" height="164" fill="white"></rect> <path d="M20.768 95.84H28.944V94.736H20.768V95.84ZM37.2545 91.392H35.7025V100H37.2545V91.392ZM37.2545 90.272V88.384H35.7025V90.272H37.2545ZM39.3639 100H44.0679C46.1159 100 47.4439 99.216 47.4439 97.6C47.4439 96.528 46.8519 95.744 45.7479 95.44C46.2759 95.168 46.9159 94.576 46.9159 93.6C46.9159 92.256 45.9079 91.392 44.0679 91.392H39.3639V100ZM40.9159 96.128H44.0039C45.2999 96.128 45.8919 96.512 45.8919 97.408C45.8919 98.288 45.3479 98.688 44.1639 98.688H40.9159V96.128ZM40.9159 92.704H43.8919C45.0759 92.704 45.4439 93.024 45.4439 93.824C45.4439 94.624 44.8999 94.928 43.8759 94.928H40.9159V92.704ZM57.97 96.016V95.712C57.97 92.848 56.226 91.12 53.282 91.12C50.402 91.12 48.562 92.928 48.562 95.712C48.562 98.48 50.386 100.24 53.282 100.24C55.57 100.24 57.218 99.184 57.826 97.328H56.018C55.666 98.272 54.642 98.8 53.282 98.8C51.442 98.8 50.21 97.696 50.21 96.016H57.97ZM50.242 94.912C50.498 93.44 51.634 92.56 53.282 92.56C54.946 92.56 56.066 93.456 56.306 94.912H50.242ZM60.9478 91.392H59.3958V100H60.9478V96.144H66.1958V100H67.7478V91.392H66.1958V94.832H60.9478V91.392ZM68.708 91.392V92.704H72.212V100H73.764V92.704H77.268V91.392H68.708ZM77.8405 95.84H83.3925V94.736H77.8405V95.84ZM84.1822 91.392L87.6542 95.632L83.8142 100H85.8622L88.7422 96.64L91.3662 100H93.5422L89.6862 95.632L93.3822 91.392H91.3022L88.7422 94.688L86.2942 91.392H84.1822ZM98.2311 91.12C95.2711 91.12 93.4151 92.944 93.4151 95.712C93.4151 98.48 95.2711 100.24 98.2311 100.24C101.191 100.24 103.031 98.48 103.031 95.712C103.031 92.944 101.191 91.12 98.2311 91.12ZM98.2311 92.56C100.199 92.56 101.383 93.728 101.383 95.68C101.383 97.632 100.199 98.8 98.2311 98.8C96.2631 98.8 95.0631 97.632 95.0631 95.68C95.0631 93.728 96.2631 92.56 98.2311 92.56ZM105.188 91.392V96.032C105.188 98.56 104.852 98.928 103.988 98.928C103.716 98.928 103.492 98.912 103.348 98.88V100C103.588 100.064 103.924 100.128 104.356 100.128C105.828 100.128 106.74 99.12 106.74 96.528V92.704H111.62V100H113.172V91.392H105.188ZM115.595 100H116.539V100.24C116.539 100.96 116.267 101.36 115.595 101.616V102.672C117.051 102.144 117.515 101.424 117.515 100V98.08H115.595V100ZM115.595 93.344H117.515V91.424H115.595V93.344ZM20.768 119.84H28.944V118.736H20.768V119.84ZM35.5745 115.392V124H37.0625V118.304L36.9505 116.672L40.1505 123.76H41.5265L44.6625 116.672L44.5505 118.304V124H46.0385V115.392H43.8465L40.8065 122.16L37.7665 115.392H35.5745ZM56.8681 120.016V119.712C56.8681 116.848 55.1241 115.12 52.1801 115.12C49.3001 115.12 47.4601 116.928 47.4601 119.712C47.4601 122.48 49.2841 124.24 52.1801 124.24C54.4681 124.24 56.1161 123.184 56.7241 121.328H54.9161C54.5641 122.272 53.5401 122.8 52.1801 122.8C50.3401 122.8 49.1081 121.696 49.1081 120.016H56.8681ZM49.1401 118.912C49.3961 117.44 50.5321 116.56 52.1801 116.56C53.8441 116.56 54.9641 117.456 55.2041 118.912H49.1401ZM59.8459 115.392H58.2939V124H60.0059L65.2699 117.312V124H66.8219V115.392H65.0939L59.8459 122.096V115.392ZM59.8779 111.856C60.0379 113.488 60.9499 114.256 62.6619 114.256C64.3899 114.256 65.3019 113.488 65.4619 111.856H64.5499C64.5019 112.608 63.7339 113.232 62.6459 113.232C61.5739 113.232 60.8219 112.608 60.7739 111.856H59.8779ZM70.354 115.392H68.802V124H70.354V120.896L71.954 119.616L75.394 124H77.49L73.106 118.672L77.186 115.392H74.882L70.354 119.152V115.392ZM87.1425 120.016V119.712C87.1425 116.848 85.3985 115.12 82.4545 115.12C79.5745 115.12 77.7345 116.928 77.7345 119.712C77.7345 122.48 79.5585 124.24 82.4545 124.24C84.7425 124.24 86.3905 123.184 86.9985 121.328H85.1905C84.8385 122.272 83.8145 122.8 82.4545 122.8C80.6145 122.8 79.3825 121.696 79.3825 120.016H87.1425ZM79.4145 118.912C79.6705 117.44 80.8065 116.56 82.4545 116.56C84.1185 116.56 85.2385 117.456 85.4785 118.912H79.4145ZM90.1203 115.392H88.5683V127.056H90.1203V122.736C91.0003 123.744 92.0563 124.24 93.4323 124.24C96.1683 124.24 98.0563 122.384 98.0563 119.712C98.0563 117.024 96.1683 115.12 93.4483 115.12C91.9923 115.12 90.8403 115.728 90.1203 116.688V115.392ZM93.2723 116.56C95.2243 116.56 96.4083 117.776 96.4083 119.712C96.4083 121.632 95.2243 122.8 93.2723 122.8C91.3203 122.8 90.1203 121.616 90.1203 119.712C90.1203 117.792 91.3203 116.56 93.2723 116.56ZM99.0986 119.84H104.651V118.736H99.0986V119.84ZM114.64 118.256C114.272 116.336 112.64 115.12 110.368 115.12C107.584 115.12 105.696 116.976 105.696 119.712C105.696 122.448 107.6 124.24 110.336 124.24C112.688 124.24 114.336 122.96 114.704 120.784H113.072C112.864 122.048 111.824 122.8 110.4 122.8C108.592 122.8 107.344 121.664 107.344 119.728C107.344 117.776 108.544 116.56 110.512 116.56C111.776 116.56 112.72 117.2 113.024 118.256H114.64ZM116.124 115.392V124H117.676V116.704H122.924V124H124.476V115.392H116.124ZM135.308 120.016V119.712C135.308 116.848 133.564 115.12 130.62 115.12C127.74 115.12 125.9 116.928 125.9 119.712C125.9 122.48 127.724 124.24 130.62 124.24C132.908 124.24 134.556 123.184 135.164 121.328H133.356C133.004 122.272 131.98 122.8 130.62 122.8C128.78 122.8 127.548 121.696 127.548 120.016H135.308ZM127.58 118.912C127.836 117.44 128.972 116.56 130.62 116.56C132.284 116.56 133.404 117.456 133.644 118.912H127.58ZM138.286 115.392H136.734V124H138.446L143.71 117.312V124H145.262V115.392H143.534L138.286 122.096V115.392ZM138.318 111.856C138.478 113.488 139.39 114.256 141.102 114.256C142.83 114.256 143.742 113.488 143.902 111.856H142.99C142.942 112.608 142.174 113.232 141.086 113.232C140.014 113.232 139.262 112.608 139.214 111.856H138.318ZM155.626 118.256C155.258 116.336 153.626 115.12 151.354 115.12C148.57 115.12 146.682 116.976 146.682 119.712C146.682 122.448 148.586 124.24 151.322 124.24C153.674 124.24 155.322 122.96 155.69 120.784H154.058C153.85 122.048 152.81 122.8 151.386 122.8C149.578 122.8 148.33 121.664 148.33 119.728C148.33 117.776 149.53 116.56 151.498 116.56C152.762 116.56 153.706 117.2 154.01 118.256H155.626ZM157.67 124H159.59V122.08H157.67V124Z" fill="#292929"></path> <path d="M21.584 59H27.608V49.784H32.648V59H38.672V45.512H21.584V59ZM41.3551 63.368H47.3791V57.896C48.8671 58.88 50.4751 59.336 52.3951 59.336C57.0031 59.336 59.9071 56.552 59.9071 52.256C59.9071 47.96 57.0031 45.152 52.4911 45.152C50.3551 45.152 48.6031 45.68 47.1391 46.784L47.0911 45.488H41.3551V63.368ZM47.3791 52.256C47.3791 50.408 48.6511 49.256 50.4751 49.256C52.3231 49.256 53.5711 50.408 53.5711 52.256C53.5711 54.08 52.3231 55.232 50.4751 55.232C48.6511 55.232 47.3791 54.08 47.3791 52.256ZM74.0688 57.152C74.0928 57.824 74.2128 58.448 74.4528 59H80.7168V58.712C80.2368 58.352 80.1168 57.8 80.1168 56.912V51.704C80.1168 49.328 79.8048 47.816 78.2688 46.616C77.0208 45.656 74.6208 45.152 71.0448 45.152C64.9728 45.152 62.0448 46.256 61.7808 49.712H67.9968C68.1648 48.656 69.1488 48.368 71.0928 48.368C72.8448 48.368 73.7808 48.896 73.7808 49.592C73.7808 50.696 71.8128 50.408 67.5888 50.696C64.6848 50.888 62.6208 51.032 61.3728 52.592C60.9168 53.168 60.6528 54.008 60.6528 55.016C60.6528 57.968 62.8608 59.432 67.2768 59.432C70.3248 59.432 72.4368 58.856 74.0688 57.152ZM74.0448 52.712C74.0688 52.832 74.0688 52.928 74.0688 53.048C74.0688 54.776 72.4128 55.976 69.7008 55.976C68.2848 55.976 67.4928 55.472 67.4928 54.632C67.4928 53.792 68.1888 53.552 69.7968 53.408C71.4048 53.264 72.8208 53.312 74.0448 52.712ZM82.7456 59H93.1856C97.6736 59 99.9776 58.352 99.9776 55.136C99.9776 53.72 98.9456 52.424 97.2896 51.968C98.1776 51.656 99.2336 50.336 99.2336 49.136C99.2336 46.688 97.8416 45.512 94.1936 45.512L82.7456 45.512V59ZM88.7696 53.528H92.4656C93.4496 53.528 93.8096 53.936 93.8096 54.584C93.8096 55.328 93.4496 55.64 92.4656 55.64H88.7696V53.528ZM88.7696 48.728H91.9856C92.9216 48.728 93.1856 49.04 93.1856 49.688C93.1856 50.312 92.9216 50.648 91.9856 50.648H88.7696V48.728ZM101.52 59L108.384 59L113.784 51.152L113.52 54.848V59H119.544V45.512H112.608L107.352 52.88L107.544 49.664V45.512H101.52V59ZM125.731 40.064C125.731 41.336 126.187 42.296 127.099 42.92C127.891 43.472 129.043 43.736 130.555 43.736C131.923 43.736 133.075 43.424 133.987 42.824C134.971 42.176 135.451 41.24 135.451 40.064H132.259C132.283 40.808 131.755 41.552 130.555 41.552C129.283 41.552 128.755 40.808 128.803 40.064H125.731ZM121.243 59H128.107L133.507 51.152L133.243 54.848V59H139.267V45.512H132.331L127.075 52.88L127.267 49.664V45.512H121.243V59ZM164.833 57.152C164.857 57.824 164.977 58.448 165.217 59H171.481V58.712C171.001 58.352 170.881 57.8 170.881 56.912V51.704C170.881 49.328 170.569 47.816 169.033 46.616C167.785 45.656 165.385 45.152 161.809 45.152C155.737 45.152 152.809 46.256 152.545 49.712H158.761C158.929 48.656 159.913 48.368 161.857 48.368C163.609 48.368 164.545 48.896 164.545 49.592C164.545 50.696 162.577 50.408 158.353 50.696C155.449 50.888 153.385 51.032 152.137 52.592C151.681 53.168 151.417 54.008 151.417 55.016C151.417 57.968 153.625 59.432 158.041 59.432C161.089 59.432 163.201 58.856 164.833 57.152ZM164.809 52.712C164.833 52.832 164.833 52.928 164.833 53.048C164.833 54.776 163.177 55.976 160.465 55.976C159.049 55.976 158.257 55.472 158.257 54.632C158.257 53.792 158.953 53.552 160.561 53.408C162.169 53.264 163.585 53.312 164.809 52.712ZM173.51 59H179.534V54.392L184.574 54.392V59H190.598V45.512L184.574 45.512V50.12L179.534 50.12V45.512H173.51V59ZM193.257 59H199.281V49.784H207.369V45.512H193.257V59ZM221.026 57.152C221.05 57.824 221.17 58.448 221.41 59H227.674V58.712C227.194 58.352 227.074 57.8 227.074 56.912V51.704C227.074 49.328 226.762 47.816 225.226 46.616C223.978 45.656 221.578 45.152 218.002 45.152C211.93 45.152 209.002 46.256 208.738 49.712H214.954C215.122 48.656 216.106 48.368 218.05 48.368C219.802 48.368 220.738 48.896 220.738 49.592C220.738 50.696 218.77 50.408 214.546 50.696C211.642 50.888 209.578 51.032 208.33 52.592C207.874 53.168 207.61 54.008 207.61 55.016C207.61 57.968 209.818 59.432 214.234 59.432C217.282 59.432 219.394 58.856 221.026 57.152ZM221.002 52.712C221.026 52.832 221.026 52.928 221.026 53.048C221.026 54.776 219.37 55.976 216.658 55.976C215.242 55.976 214.45 55.472 214.45 54.632C214.45 53.792 215.146 53.552 216.754 53.408C218.362 53.264 219.778 53.312 221.002 52.712ZM229.75 63.368H235.774V57.896C237.262 58.88 238.87 59.336 240.79 59.336C245.398 59.336 248.302 56.552 248.302 52.256C248.302 47.96 245.398 45.152 240.886 45.152C238.75 45.152 236.998 45.68 235.534 46.784L235.486 45.488H229.75V63.368ZM235.774 52.256C235.774 50.408 237.046 49.256 238.87 49.256C240.718 49.256 241.966 50.408 241.966 52.256C241.966 54.08 240.718 55.232 238.87 55.232C237.046 55.232 235.774 54.08 235.774 52.256Z" fill="#052D1E"></path> </svg> 