<?xml version="1.0" encoding="UTF-8"?> <svg xmlns="http://www.w3.org/2000/svg" width="40" height="40" viewBox="0 0 40 40" fill="none"> <circle cx="20" cy="20" r="20" fill="#FFE600"></circle> <path d="M8.43763 22.24C8.62963 26.68 12.1336 28.408 19.3576 28.408C26.4376 28.408 29.9176 26.584 29.9176 22.72C29.9176 20.536 28.7656 19.216 26.4376 18.76C28.4056 18.352 29.4136 17.176 29.4136 15.304C29.4136 11.944 26.0536 10.576 19.0216 10.576C12.5416 10.576 9.32563 11.992 9.06163 15.52H16.4056C16.5736 14.872 17.4856 14.608 19.1176 14.608C21.2056 14.608 22.2616 15.04 22.2616 15.904C22.2616 16.888 21.2296 17.008 19.2136 17.008H15.7576V21.016H19.5016C21.7096 21.016 22.7176 21.304 22.7176 22.48C22.7176 23.536 21.5896 23.992 19.2616 23.992C17.0296 23.992 15.7816 23.464 15.4216 22.24H8.43763Z" fill="#052D1E"></path> </svg> 