<?xml version="1.0" encoding="UTF-8"?> <svg xmlns="http://www.w3.org/2000/svg" width="82" height="41" viewBox="0 0 82 41" fill="none"> <path d="M0 0V25.8182H17.6364V21.0909H5.09091V0H0ZM22.7273 4.72727L33.4545 12.7273L22.7273 20.5455V21.2727V26H45.4545V21.2727H43.4545H29.6364L40.5455 13.2727V12.3636L30.3636 4.72727H43.4545H45.4545V0H22.7273V4.18182V4.72727ZM56.5455 25.8182V4.72727H64.1818V23.4545H69.0909V4.72727H76.7273V25.8182H81.8182V0C70 0 63.2727 0 51.6364 0V25.8182H56.5455Z" fill="#052D1E"></path> <path d="M78.1816 36.5457V40.0002H79.0907V37.6366L80.7271 40.0002H81.818V36.5457H80.9089V38.9093L79.2725 36.5457H78.1816Z" fill="#052D1E"></path> <path d="M74.5449 36.5457C73.2722 36.5457 72.5449 37.2729 72.5449 38.3638C72.5449 39.4547 73.2722 40.182 74.5449 40.182C75.8176 40.182 76.5449 39.4547 76.5449 38.3638C76.5449 37.2729 75.8176 36.5457 74.5449 36.5457ZM74.5449 37.2729C75.2722 37.2729 75.6358 37.6366 75.6358 38.3638C75.6358 39.0911 75.2722 39.4547 74.5449 39.4547C73.8176 39.4547 73.454 39.0911 73.454 38.3638C73.454 37.6366 73.9995 37.2729 74.5449 37.2729Z" fill="#052D1E"></path> <path d="M71.0908 36.5457H70.1816V39.8184H71.0908V36.5457Z" fill="#052D1E"></path> <path d="M65.2734 36.5457V37.2729H66.5462V40.0002H67.2734V37.2729H68.5462V36.5457H65.2734Z" fill="#052D1E"></path> <path d="M56 36.5457V37.2729H57.2727V40.0002H58V37.2729H59.2727V36.5457H56Z" fill="#052D1E"></path> <path d="M54.5442 37.6366C54.5442 36.9093 53.9988 36.5457 52.9078 36.5457C51.8169 36.5457 51.2715 37.0911 51.2715 37.6366C51.2715 38.182 51.6351 38.5457 52.5442 38.5457H53.0897C53.4533 38.5457 53.8169 38.7275 53.8169 38.9093C53.8169 39.0911 53.6351 39.2729 53.0897 39.2729C52.3624 39.2729 52.1806 39.0911 52.1806 38.7275H51.2715C51.2715 39.6366 51.8169 40.0002 52.9078 40.0002C53.9988 40.0002 54.726 39.6366 54.726 38.9093C54.726 38.3638 54.3624 38.0002 53.4533 38.0002H52.9078C52.3624 38.0002 52.1806 38.0002 52.1806 37.6366C52.1806 37.4547 52.3624 37.2729 52.9078 37.2729C53.4533 37.2729 53.6351 37.4547 53.8169 37.8184H54.5442V37.6366Z" fill="#052D1E"></path> <path d="M60.3633 40H61.2724L61.636 39.2728H63.0906L63.4542 40H64.3633L62.9087 36.7273H62.1815L60.3633 40ZM61.8178 38.5455L62.1815 37.4546L62.5451 38.5455H61.8178Z" fill="#052D1E"></path> </svg> 