<?xml version="1.0" encoding="UTF-8"?> <svg xmlns="http://www.w3.org/2000/svg" width="244" height="241" viewBox="0 0 244 241" fill="none"> <path fill-rule="evenodd" clip-rule="evenodd" d="M126.158 3.03152L243.988 82.7315L188.459 120.307L243.988 157.867L121.994 240.42L0 157.867L55.5159 120.299L0 82.7315L121.994 0.241699L126.158 3.03152ZM66.5168 127.743L21.9881 157.867L115.2 220.924V160.688L66.5168 127.743ZM128.788 220.92L221.927 157.867L177.451 127.757L128.788 160.687V220.92ZM166.481 120.331L121.994 150.448L77.4742 120.331L121.994 90.2136L166.481 120.331ZM177.483 112.883L221.927 82.7949L128.788 19.7415V79.946L177.483 112.883ZM115.201 79.9103L66.47 112.886L21.9881 82.7949L115.201 19.7373V79.9103Z" fill="#FFE500"></path> </svg> 