<?xml version="1.0" encoding="UTF-8"?> <svg xmlns="http://www.w3.org/2000/svg" width="113" height="58" viewBox="0 0 113 58" fill="none"> <path d="M1.4 32.7C2.3 31.6 2.6 30.5 2.6 28V24.7L15.1 22.3V30L16.6 29.7V36.2L12 37.1V34.2L4.7 35.6V38.5L0 39.4V32.9L1.4 32.7ZM7.2 27.5V28.4C7.2 30.1 6.9 30.9 6.1 31.9L10 31.2V27.1L7.2 27.5Z" fill="#292929"></path> <path d="M17.6992 21.9L22.6992 20.9V24.4L22.4992 27.1L26.8992 20.1L32.6992 19V30.2L27.6992 31.2V27.7L27.8992 24.6L23.3992 32L17.6992 33.1V21.9V21.9Z" fill="#292929"></path> <path d="M38.0008 21.6L33.8008 22.4V18.9L47.2008 16.3V19.9L43.0008 20.7V28.4L38.0008 29.4V21.6Z" fill="#292929"></path> <path d="M62.1008 24.7L57.1008 25.7V21.8L55.8008 22L53.1008 26.4L47.8008 27.4L51.0008 22.7C49.2008 22.5 48.1008 21.6 48.1008 19.8C48.1008 17.1 50.0008 15.8 53.7008 15.1L62.1008 13.5V24.7V24.7ZM57.1008 17.2L54.4008 17.7C53.4008 17.9 53.1008 18.2 53.1008 18.9C53.1008 19.5 53.4008 19.8 54.4008 19.6L57.0008 19.1V17.2H57.1008Z" fill="#292929"></path> <path d="M78.3992 21.6L73.3992 22.6V18.6C72.1992 19.3 71.1992 19.6 69.4992 19.9C66.0992 20.5 64.6992 19.1 64.6992 15.5V12.9L69.6992 11.9V13.8C69.6992 15.4 70.0992 15.9 71.4992 15.7C72.2992 15.6 72.7992 15.3 73.2992 15V11.3L78.2992 10.3V21.6H78.3992Z" fill="#292929"></path> <path d="M80.5996 9.9L85.5996 8.9V12.4L85.3996 15.1L89.7996 8.1L95.5996 7V18.2L90.5996 19.2V15.7L90.7996 12.6L86.2996 20L80.5996 21.1V9.9Z" fill="#292929"></path> <path d="M97.5 6.7L102.5 5.7V9.2L102.3 11.9L106.7 4.9L112.5 3.8V15L107.5 16V12.5L107.7 9.4L103.2 16.8L97.5 17.9V6.7ZM103.8 1C103.8 1.6 104.2 2.2 105.3 2C106.3 1.8 106.7 1.1 106.7 0.5L109.4 0C109.4 1 109 1.8 108.2 2.5C107.4 3.1 106.5 3.6 105.3 3.8C104 4 103 3.9 102.4 3.6C101.6 3.2 101.3 2.5 101.3 1.4L103.8 1Z" fill="#292929"></path> <path d="M0.800781 45.0999L5.80078 44.0999V51.8999L10.0008 51.0999V43.3999L15.0008 42.3999V50.0999L16.5008 49.7999V56.2999L11.9008 57.1999V54.2999L0.800781 56.3999V45.0999Z" fill="#292929"></path> <path d="M25.3008 52.1C20.1008 53.1 17.3008 51.4 17.3008 47.6C17.3008 43.8 20.1008 41.1 25.3008 40.1C30.7008 39.1 33.6008 41.1 33.6008 45.7L22.7008 47.8C22.7008 49 23.7008 49.5 25.6008 49.2C26.8008 49 27.7008 48.5 28.0008 47.9L33.5008 46.9C32.8008 49.3 30.0008 51.2 25.3008 52.1ZM28.4008 44.3C28.3008 43.1 27.2008 42.6 25.6008 42.9C23.8008 43.2 22.7008 44.1 22.4008 45.5L28.4008 44.3Z" fill="#292929"></path> <path d="M35.5 38.5L40.5 37.5V41.3L44.7 40.5V36.7L49.7 35.7V46.9L44.7 47.9V44.1L40.5 44.9V48.7L35.5 49.7V38.5Z" fill="#292929"></path> <path d="M55.2996 38.2999L51.0996 39.0999V35.4999L64.4996 32.8999V36.4999L60.2996 37.2999V44.9999L55.2996 45.9999V38.2999Z" fill="#292929"></path> <path d="M66 32.7L70.8 31.8V32.9C72 31.7 73.5 31 75.3 30.7C79.1 30 81.5 31.9 81.5 35.4C81.5 38.9 79.1 41.8 75.2 42.5C73.6 42.8 72.3 42.7 71 42.1V46.7L66 47.7V32.7ZM73.6 39.4C75.1 39.1 76.2 37.9 76.2 36.4C76.2 34.9 75.2 34.1 73.6 34.4C72.1 34.7 71 35.9 71 37.4C71 38.9 72.1 39.6 73.6 39.4Z" fill="#292929"></path> </svg> 