<?xml version="1.0" encoding="UTF-8"?> <svg xmlns="http://www.w3.org/2000/svg" width="73" height="28" viewBox="0 0 73 28" fill="none"> <path d="M0 24.0192L7.1 21.4192L11.7 25.3192L9.2 26.2192L6 23.5192L4 24.3192L7.2 27.0192L4.7 27.9192L0 24.0192Z" fill="#292929"></path> <path d="M15.4999 24.1191C13.6999 24.8191 12.1999 24.7191 11.1999 23.8191C10.8999 23.5191 10.6999 23.2191 10.6999 23.0191C10.6999 22.4191 11.4999 22.0191 12.5999 21.5191C14.2999 20.8191 15.1999 20.6191 14.7999 20.2191C14.5999 20.0191 13.9999 20.0191 13.2999 20.2191C12.4999 20.5191 12.1999 20.7191 12.4999 21.1191L9.89993 22.1191C8.79993 21.0191 9.69993 20.3191 12.1999 19.4191C13.6999 18.9191 14.8999 18.6191 15.6999 18.7191C16.7999 18.8191 17.3999 19.2191 18.1999 19.9191L19.9999 21.4191C20.2999 21.7191 20.4999 21.8191 20.8999 21.8191L20.9999 21.9191L18.3999 22.8191C18.0999 22.7191 17.7999 22.5191 17.5999 22.3191C17.4999 23.2191 16.7999 23.7191 15.4999 24.1191ZM14.4999 22.0191C13.8999 22.3191 13.6999 22.5191 13.9999 22.7191C14.2999 22.9191 14.7999 23.0191 15.3999 22.8191C16.4999 22.4191 16.7999 21.8191 16.1999 21.3191L16.0999 21.2191C15.6999 21.5191 15.0999 21.7191 14.4999 22.0191Z" fill="#292929"></path> <path d="M17.4004 17.7192L19.8004 16.8192L20.3004 17.2192C20.5004 16.7192 21.1004 16.2192 22.0004 15.9192C23.9004 15.2192 26.1004 15.6192 27.5004 16.9192C29.0004 18.2192 28.7004 19.4192 26.8004 20.1192C26.0004 20.4192 25.2004 20.5192 24.2004 20.4192L26.1004 22.0192L23.6004 22.9192L17.4004 17.7192ZM24.5004 19.1192C25.3004 18.8192 25.4004 18.3192 24.8004 17.8192C24.2004 17.3192 23.2004 17.1192 22.5004 17.4192C21.7004 17.7192 21.6004 18.2192 22.2004 18.7192C22.8004 19.3192 23.8004 19.4192 24.5004 19.1192Z" fill="#292929"></path> <path d="M26.0996 14.5191L28.5996 13.6191L30.0996 14.9191L30.4996 13.0191L33.7996 11.8191L33.1996 14.0191L38.6996 15.7191L35.6996 16.8191L32.5996 15.8191L32.1996 16.8191L33.1996 17.7191L30.6996 18.6191L26.0996 14.5191Z" fill="#292929"></path> <path d="M38.0998 10.0193C40.6998 9.11928 42.9998 9.41928 44.4998 10.7193C46.0998 12.0193 45.5998 13.3193 42.9998 14.2193C40.3998 15.1193 38.0998 14.8193 36.5998 13.5193C34.9998 12.2193 35.4998 10.9193 38.0998 10.0193ZM41.5998 13.0193C42.3998 12.7193 42.4998 12.2193 41.8998 11.6193C41.2998 11.1193 40.2998 10.9193 39.5998 11.2193C38.8998 11.5193 38.6998 12.0193 39.2998 12.6193C39.8998 13.2193 40.7998 13.3193 41.5998 13.0193Z" fill="#292929"></path> <path d="M43.0996 8.31914L47.8996 6.61914C49.3996 6.11914 50.3996 6.21914 51.1996 6.91914C51.5996 7.31914 51.5996 7.81914 51.3996 8.01914C52.1996 7.91914 53.0996 8.11914 53.5996 8.51914C54.6996 9.41914 53.9996 10.0191 52.0996 10.7191L47.7996 12.3191L43.0996 8.31914ZM47.3996 8.91914L48.6996 8.41914C49.0996 8.31914 49.0996 8.11914 48.8996 7.91914C48.6996 7.71914 48.4996 7.71914 48.0996 7.81914L46.7996 8.31914L47.3996 8.91914ZM49.0996 10.4191L50.5996 9.81914C50.9996 9.71914 51.0996 9.51914 50.7996 9.31914C50.5996 9.11914 50.2996 9.11914 49.8996 9.21914L48.3996 9.81914L49.0996 10.4191Z" fill="#292929"></path> <path d="M51.4004 5.41924L53.9004 4.51924L55.4004 5.81924L55.8004 3.91924L59.2004 2.71924L58.6004 4.91924L64.1004 6.61924L61.1004 7.71924L58.0004 6.71924L57.6004 7.71924L58.6004 8.61924L56.0004 9.31924L51.4004 5.41924Z" fill="#292929"></path> <path d="M66.9003 5.51916C65.1003 6.21916 63.6003 6.11916 62.6003 5.21916C62.3003 4.91916 62.1003 4.61916 62.1003 4.41916C62.1003 3.81916 62.9003 3.41916 64.0003 2.91916C65.7003 2.21916 66.6003 2.01916 66.2003 1.61916C66.0003 1.41916 65.4003 1.41916 64.7003 1.61916C63.9003 1.91916 63.6003 2.11916 63.9003 2.51916L61.3003 3.41916C60.2003 2.31916 61.1003 1.61916 63.6003 0.71916C65.1003 0.21916 66.3003 -0.0808398 67.1003 0.0191602C68.2003 0.11916 68.8003 0.51916 69.6003 1.21916L71.4003 2.71916C71.7003 3.11916 72.0003 3.31916 72.3003 3.31916L72.4003 3.41916L69.8003 4.31916C69.5003 4.21916 69.2003 4.01916 69.0003 3.81916C68.9003 4.61916 68.2003 5.11916 66.9003 5.51916ZM65.9003 3.41916C65.3003 3.71916 65.1003 3.91916 65.4003 4.11916C65.7003 4.31916 66.2003 4.41916 66.8003 4.21916C67.9003 3.81916 68.2003 3.21916 67.6003 2.71916L67.5003 2.61916C67.2003 2.91916 66.5003 3.11916 65.9003 3.41916Z" fill="#292929"></path> </svg> 