<?xml version="1.0" encoding="UTF-8"?> <svg xmlns="http://www.w3.org/2000/svg" width="40" height="40" viewBox="0 0 40 40" fill="none"> <circle cx="20" cy="20" r="20" fill="#FFE600"></circle> <path d="M8.19763 28H29.4136V23.68H15.5416C16.9336 22.384 19.9336 22.264 24.0376 21.352C27.9976 20.488 29.7736 19.096 29.7736 16.144C29.7736 12.472 26.2696 10.576 19.2856 10.576C12.4936 10.576 9.01363 12.784 8.82163 17.248H16.0936V17.2C16.0936 15.568 17.2936 14.872 19.8136 14.872C21.7336 14.872 22.6936 15.352 22.6936 16.24C22.6936 17.584 20.5816 17.584 16.7656 18.496C10.9576 19.864 8.46163 22.408 8.19763 28Z" fill="#052D1E"></path> </svg> 