<?xml version="1.0" encoding="UTF-8"?> <svg xmlns="http://www.w3.org/2000/svg" width="182" height="92" viewBox="0 0 182 92" fill="none"> <path d="M0.699219 57.2678L5.49922 55.7678V59.3678L8.99922 54.5678L15.3992 52.4678L11.1992 57.6678L15.8992 63.4678L10.1992 65.2678L7.59922 61.7678L5.49922 64.2678V66.9678L0.699219 68.4678V57.2678V57.2678Z" fill="#292929"></path> <path d="M23.8008 49.3679C28.7008 47.7679 31.3008 49.1679 31.3008 52.9679C31.3008 56.7679 28.7008 59.8679 23.8008 61.3679C18.9008 62.8679 16.3008 61.5679 16.3008 57.7679C16.3008 53.9679 18.9008 50.9679 23.8008 49.3679ZM23.7008 57.9679C25.2008 57.4679 26.2008 56.1679 26.2008 54.6679C26.2008 53.1679 25.2008 52.4679 23.7008 52.9679C22.2008 53.4679 21.2008 54.7679 21.2008 56.2679C21.2008 57.7679 22.2008 58.4679 23.7008 57.9679Z" fill="#292929"></path> <path d="M39.4996 44.6678L41.4996 49.8678L43.4996 43.3678L49.8996 41.2678V52.4678L45.0996 53.9678V49.7678L45.6996 45.1678L42.7996 54.7678L40.0996 55.6678L37.2996 47.9678L37.8996 52.1678V56.3678L33.0996 57.9678V46.7678L39.4996 44.6678Z" fill="#292929"></path> <path d="M52.4008 40.568L66.0008 36.168V47.368L61.1008 48.968V41.268L57.1008 42.568V50.268L52.3008 51.768V40.568H52.4008Z" fill="#292929"></path> <path d="M68.3992 35.3678L72.8992 33.8678V34.9678C74.0992 33.6678 75.4992 32.7678 77.0992 32.2678C80.6992 31.0678 82.9992 32.6678 82.9992 36.2678C82.9992 39.8678 80.6992 42.8677 76.9992 44.0677C75.4992 44.5677 74.1992 44.5678 72.9992 44.1678V48.7677L68.1992 50.2677V35.3678H68.3992ZM75.5992 41.0677C77.0992 40.5677 78.0992 39.2678 78.0992 37.7678C78.0992 36.2678 77.0992 35.5677 75.5992 36.0677C74.1992 36.5677 73.0992 37.8678 73.0992 39.3678C73.1992 40.9678 74.1992 41.5677 75.5992 41.0677Z" fill="#292929"></path> <path d="M91.9008 39.3678C87.0008 40.9678 84.3008 39.5678 84.3008 35.8678C84.3008 32.0678 87.0008 28.9678 91.9008 27.3678C97.1008 25.6678 99.8008 27.4678 99.8008 31.9678L89.4008 35.2678C89.4008 36.4678 90.4008 36.8678 92.2008 36.2678C93.4008 35.8678 94.2008 35.2678 94.5008 34.6678L99.7008 32.9678C99.0008 35.7678 96.3008 37.9678 91.9008 39.3678ZM94.9008 31.1678C94.8008 29.9678 93.8008 29.5678 92.2008 30.0678C90.5008 30.5678 89.4008 31.6678 89.2008 32.9678L94.9008 31.1678Z" fill="#292929"></path> <path d="M108.501 33.9679C103.501 35.5679 100.801 34.1679 100.801 30.4679C100.801 26.7679 103.501 23.5679 108.501 21.9679C113.101 20.4679 115.601 21.3679 116.101 24.3679L111.001 26.0679C110.601 25.1679 109.801 24.8679 108.701 25.2679C107.001 25.7679 106.001 27.1679 106.001 28.8679C106.001 30.4679 107.001 31.1679 108.601 30.6679C109.901 30.2679 110.901 29.1679 111.201 27.8679L116.301 26.2679C115.801 29.8679 113.301 32.4679 108.501 33.9679Z" fill="#292929"></path> <path d="M124.9 16.668C129.8 15.068 132.4 16.468 132.4 20.268C132.4 24.068 129.8 27.168 124.9 28.668C120 30.268 117.4 28.868 117.4 25.068C117.4 21.268 120 18.268 124.9 16.668ZM124.9 25.268C126.4 24.768 127.4 23.468 127.4 21.968C127.4 20.468 126.4 19.768 124.9 20.268C123.4 20.768 122.4 22.068 122.4 23.568C122.4 25.068 123.4 25.768 124.9 25.268Z" fill="#292929"></path> <path d="M134.3 14.0679L138.8 12.5679V13.6679C140 12.3679 141.4 11.4679 143 10.9679C146.6 9.76795 148.9 11.3679 148.9 14.9679C148.9 18.5679 146.6 21.5679 142.9 22.7679C141.4 23.2679 140.1 23.2679 138.9 22.8679V27.4679L134.1 28.9679V14.0679H134.3ZM141.5 19.8679C143 19.3679 144 18.0679 144 16.5679C144 15.0679 143 14.3679 141.5 14.8679C140.1 15.3679 139 16.6679 139 18.1679C139.1 19.6679 140.1 20.2679 141.5 19.8679Z" fill="#292929"></path> <path d="M150.801 8.66792L155.601 7.16792V10.9679L159.601 9.66792V5.86792L164.401 4.36792V15.5679L159.601 17.0679V13.2679L155.601 14.5679V18.3679L150.801 19.8679V8.66792Z" fill="#292929"></path> <path d="M171.2 13.7679C167.7 14.8679 165.9 14.2679 165.9 11.7679C165.9 10.9679 166.1 10.1679 166.5 9.56786C167.5 7.96786 169.1 7.26786 171.4 6.36786C174.7 5.06786 176.3 4.76786 176.3 3.86786C176.3 3.26786 175.6 3.06786 174.2 3.56786C172.7 4.06786 171.9 4.56786 171.7 5.46786L166.8 7.06786C167 4.16786 169.3 2.46786 174.1 0.867857C176.9 -0.0321429 178.8 -0.232143 179.8 0.267857C181 0.867857 181.3 2.06786 181.3 4.06786V8.36786C181.3 9.06786 181.4 9.56786 181.8 9.66786V9.86786L176.8 11.4679C176.6 11.0679 176.5 10.5679 176.5 10.0679C175.3 11.9679 173.7 12.9679 171.2 13.7679ZM173.2 8.06786C171.9 8.56786 171.4 8.96786 171.4 9.66786C171.4 10.3679 172 10.5679 173.2 10.2679C175.4 9.56786 176.7 8.16786 176.7 6.66786C176.7 6.56786 176.7 6.46786 176.7 6.36786C175.6 7.16786 174.5 7.56786 173.2 8.06786Z" fill="#292929"></path> <path d="M7.7 90.5678C2.7 92.1678 0 90.7678 0 87.0678C0 83.3678 2.7 80.1678 7.7 78.5678C12.3 77.0678 14.8 77.9678 15.3 80.9678L10.2 82.6678C9.8 81.7678 9 81.4678 7.9 81.8678C6.1 82.3678 5 83.7678 5 85.4678C5 87.0678 6 87.7678 7.6 87.2678C8.9 86.8678 9.9 85.7678 10.2 84.4678L15.3 82.8678C15 86.4678 12.4 89.0678 7.7 90.5678Z" fill="#292929"></path> <path d="M20 78.568L16 79.868V76.268L28.8 72.168V75.768L24.8 77.068V84.768L20 86.168V78.568Z" fill="#292929"></path> <path d="M34.6008 81.868C31.1008 82.968 29.3008 82.368 29.3008 79.868C29.3008 79.068 29.5008 78.268 29.9008 77.668C30.9008 76.068 32.5008 75.368 34.8008 74.468C38.2008 73.168 39.7008 72.868 39.7008 71.968C39.7008 71.368 39.0008 71.168 37.6008 71.668C36.1008 72.168 35.3008 72.668 35.1008 73.568L30.2008 75.168C30.4008 72.268 32.7008 70.568 37.5008 68.968C40.3008 68.068 42.2008 67.868 43.2008 68.368C44.4008 68.968 44.7008 70.168 44.7008 72.168V76.468C44.7008 77.168 44.8008 77.668 45.2008 77.768V77.968L40.2008 79.568C40.0008 79.168 39.9008 78.668 39.9008 78.168C38.7008 80.068 37.0008 81.068 34.6008 81.868ZM36.6008 76.168C35.3008 76.668 34.8008 77.068 34.8008 77.768C34.8008 78.468 35.4008 78.668 36.6008 78.368C38.8008 77.668 40.1008 76.268 40.1008 74.768C40.1008 74.668 40.1008 74.568 40.1008 74.468C39.0008 75.368 37.8008 75.668 36.6008 76.168Z" fill="#292929"></path> <path d="M47.1992 66.1679L51.9992 64.6679V68.4679L55.9992 67.1679V63.3679L60.7992 61.8679V73.0679L55.9992 74.5679V70.7679L51.9992 72.0679V75.8679L47.1992 77.3679V66.1679Z" fill="#292929"></path> <path d="M63.1992 60.968L67.9992 59.468V67.168L71.9992 65.868V58.168L76.7992 56.668V64.368L78.1992 63.868V70.368L73.7992 71.768V68.868L63.1992 72.268V60.968V60.968Z" fill="#292929"></path> <path d="M79.8008 51.8678L84.7008 50.2678V53.1678L79.8008 54.7678V51.8678ZM79.8008 55.6678L84.7008 54.0678V65.3678L79.8008 66.9678V55.6678Z" fill="#292929"></path> <path d="M100.2 60.3679L95.3996 61.8679V57.9679L94.1996 58.3679L91.5996 63.0679L86.5996 64.6679L89.5996 59.5679C87.8996 59.5679 86.7996 58.7679 86.7996 57.0679C86.7996 54.3679 88.5996 52.7679 92.0996 51.6679L100.1 49.0679V60.3679H100.2ZM95.3996 53.4679L92.7996 54.2679C91.8996 54.5679 91.5996 54.9679 91.5996 55.5679C91.5996 56.1679 91.8996 56.3679 92.7996 56.0679L95.2996 55.2679V53.4679H95.3996Z" fill="#292929"></path> </svg> 