<?xml version="1.0" encoding="UTF-8"?> <svg xmlns="http://www.w3.org/2000/svg" width="167" height="88" viewBox="0 0 167 88" fill="none"> <path d="M90 13L147 2L155 6L165 39V61L24 86L9 55V38L4 33L25 29V25L44 22V25L90 16V13Z" stroke="#FFE600" stroke-width="3"></path> <mask id="mask0" maskUnits="userSpaceOnUse" x="4" y="2" width="161" height="84"> <path d="M90 13L147 2L155 6L165 39V61L24 86L9 55V38L4 33L25 29V25L44 22V25L90 16V13Z" fill="#FFE600"></path> </mask> <g mask="url(#mask0)"> <rect x="-151" y="49.4163" width="4" height="326" transform="rotate(-45 -151 49.4163)" fill="#FFE600"></rect> <rect x="-145.344" y="43.7595" width="4" height="326" transform="rotate(-45 -145.344 43.7595)" fill="#FFE600"></rect> <rect x="-139.686" y="38.1025" width="4" height="326" transform="rotate(-45 -139.686 38.1025)" fill="#FFE600"></rect> <rect x="-134.029" y="32.4458" width="4" height="326" transform="rotate(-45 -134.029 32.4458)" fill="#FFE600"></rect> <rect x="-128.373" y="26.7888" width="4" height="326" transform="rotate(-45 -128.373 26.7888)" fill="#FFE600"></rect> <rect x="-122.715" y="21.1321" width="4" height="326" transform="rotate(-45 -122.715 21.1321)" fill="#FFE600"></rect> <rect x="-117.059" y="15.4751" width="4" height="326" transform="rotate(-45 -117.059 15.4751)" fill="#FFE600"></rect> <rect x="-111.402" y="9.81836" width="4" height="326" transform="rotate(-45 -111.402 9.81836)" fill="#FFE600"></rect> <rect x="-105.746" y="4.16138" width="4" height="326" transform="rotate(-45 -105.746 4.16138)" fill="#FFE600"></rect> <rect x="-100.088" y="-1.49536" width="4" height="326" transform="rotate(-45 -100.088 -1.49536)" fill="#FFE600"></rect> <rect x="-94.4316" y="-7.15234" width="4" height="326" transform="rotate(-45 -94.4316 -7.15234)" fill="#FFE600"></rect> <rect x="-88.7754" y="-12.8091" width="4" height="326" transform="rotate(-45 -88.7754 -12.8091)" fill="#FFE600"></rect> <rect x="-83.1172" y="-18.4661" width="4" height="326" transform="rotate(-45 -83.1172 -18.4661)" fill="#FFE600"></rect> <rect x="-77.4609" y="-24.1228" width="4" height="326" transform="rotate(-45 -77.4609 -24.1228)" fill="#FFE600"></rect> <rect x="-71.8047" y="-29.7798" width="4" height="326" transform="rotate(-45 -71.8047 -29.7798)" fill="#FFE600"></rect> <rect x="-66.1465" y="-35.4365" width="4" height="326" transform="rotate(-45 -66.1465 -35.4365)" fill="#FFE600"></rect> <rect x="-60.4902" y="-41.0935" width="4" height="326" transform="rotate(-45 -60.4902 -41.0935)" fill="#FFE600"></rect> <rect x="-54.834" y="-46.7502" width="4" height="326" transform="rotate(-45 -54.834 -46.7502)" fill="#FFE600"></rect> <rect x="-49.1758" y="-52.4072" width="4" height="326" transform="rotate(-45 -49.1758 -52.4072)" fill="#FFE600"></rect> <rect x="-43.5195" y="-58.064" width="4" height="326" transform="rotate(-45 -43.5195 -58.064)" fill="#FFE600"></rect> <rect x="-37.8633" y="-63.7207" width="4" height="326" transform="rotate(-45 -37.8633 -63.7207)" fill="#FFE600"></rect> <rect x="-32.207" y="-69.3777" width="4" height="326" transform="rotate(-45 -32.207 -69.3777)" fill="#FFE600"></rect> <rect x="-26.5488" y="-75.0344" width="4" height="326" transform="rotate(-45 -26.5488 -75.0344)" fill="#FFE600"></rect> <rect x="-20.8926" y="-80.6914" width="4" height="326" transform="rotate(-45 -20.8926 -80.6914)" fill="#FFE600"></rect> <rect x="-15.2363" y="-86.3481" width="4" height="326" transform="rotate(-45 -15.2363 -86.3481)" fill="#FFE600"></rect> <rect x="-9.57812" y="-92.0051" width="4" height="326" transform="rotate(-45 -9.57812 -92.0051)" fill="#FFE600"></rect> <rect x="-3.92188" y="-97.6619" width="4" height="326" transform="rotate(-45 -3.92188 -97.6619)" fill="#FFE600"></rect> <rect x="1.73438" y="-103.319" width="4" height="326" transform="rotate(-45 1.73438 -103.319)" fill="#FFE600"></rect> <rect x="7.39258" y="-108.976" width="4" height="326" transform="rotate(-45 7.39258 -108.976)" fill="#FFE600"></rect> <rect x="13.0488" y="-114.633" width="4" height="326" transform="rotate(-45 13.0488 -114.633)" fill="#FFE600"></rect> <rect x="18.7051" y="-120.289" width="4" height="326" transform="rotate(-45 18.7051 -120.289)" fill="#FFE600"></rect> <rect x="24.3633" y="-125.946" width="4" height="326" transform="rotate(-45 24.3633 -125.946)" fill="#FFE600"></rect> <rect x="30.0195" y="-131.603" width="4" height="326" transform="rotate(-45 30.0195 -131.603)" fill="#FFE600"></rect> <rect x="35.6758" y="-137.26" width="4" height="326" transform="rotate(-45 35.6758 -137.26)" fill="#FFE600"></rect> <rect x="41.334" y="-142.917" width="4" height="326" transform="rotate(-45 41.334 -142.917)" fill="#FFE600"></rect> <rect x="46.9902" y="-148.574" width="4" height="326" transform="rotate(-45 46.9902 -148.574)" fill="#FFE600"></rect> <rect x="52.6465" y="-154.23" width="4" height="326" transform="rotate(-45 52.6465 -154.23)" fill="#FFE600"></rect> <rect x="58.3027" y="-159.887" width="4" height="326" transform="rotate(-45 58.3027 -159.887)" fill="#FFE600"></rect> <rect x="63.9609" y="-165.544" width="4" height="326" transform="rotate(-45 63.9609 -165.544)" fill="#FFE600"></rect> <rect x="69.6172" y="-171.201" width="4" height="326" transform="rotate(-45 69.6172 -171.201)" fill="#FFE600"></rect> <rect x="75.2734" y="-176.858" width="4" height="326" transform="rotate(-45 75.2734 -176.858)" fill="#FFE600"></rect> <rect x="80.9316" y="-182.515" width="4" height="326" transform="rotate(-45 80.9316 -182.515)" fill="#FFE600"></rect> <rect x="86.5879" y="-188.172" width="4" height="326" transform="rotate(-45 86.5879 -188.172)" fill="#FFE600"></rect> </g> </svg> 