<?xml version="1.0" encoding="UTF-8"?> <svg xmlns="http://www.w3.org/2000/svg" width="40" height="40" viewBox="0 0 40 40" fill="none"> <rect width="40" height="40" fill="#072918"></rect> <path fill-rule="evenodd" clip-rule="evenodd" d="M16.694 15.8C16.694 17.3464 15.4193 18.6 13.847 18.6C12.2746 18.6 11 17.3464 11 15.8C11 14.2536 12.2746 13 13.847 13C15.4193 13 16.694 14.2536 16.694 15.8ZM16.694 22.8C16.694 24.3464 15.4193 25.6 13.847 25.6C12.2746 25.6 11 24.3464 11 22.8C11 21.2536 12.2746 20 13.847 20C15.4193 20 16.694 21.2536 16.694 22.8ZM23.5303 13H18.0605L18 27H23.5303V24.2C26.569 24.2 29 21.75 29 18.6C29 15.45 26.569 13 23.5303 13Z" fill="#FFE600"></path> </svg> 