<?xml version="1.0" encoding="UTF-8"?> <svg xmlns="http://www.w3.org/2000/svg" width="181" height="47" viewBox="0 0 181 47" fill="none"> <path d="M0.900391 0L5.90039 0.8V8.5L10.0004 9.1V1.5L15.0004 2.3V10L16.5004 10.2V16.7L11.9004 16V13L0.900391 11.2V0V0Z" fill="#292929"></path> <path d="M25.0992 15.5C19.9992 14.7 17.1992 12 17.1992 8.19996C17.1992 4.39996 19.9992 2.59996 25.0992 3.49996C30.4992 4.39996 33.2992 7.39996 33.2992 12L22.5992 10.3C22.5992 11.5 23.5992 12.4 25.4992 12.7C26.6992 12.9 27.4992 12.7 27.8992 12.2L33.2992 13.1C32.4992 15.4 29.6992 16.3 25.0992 15.5ZM28.1992 8.79996C27.9992 7.49996 26.9992 6.59996 25.3992 6.39996C23.5992 6.09996 22.4992 6.59996 22.2992 7.89996L28.1992 8.79996Z" fill="#292929"></path> <path d="M35.0996 5.5L40.0996 6.3V10.1L44.1996 10.8V7L49.1996 7.8V19L44.1996 18.2V14.4L40.0996 13.7V17.5L35.0996 16.7V5.5Z" fill="#292929"></path> <path d="M54.6996 12.2L50.5996 11.5V8L63.8996 10.1V13.7L59.6996 13V20.7L54.6996 19.9V12.2Z" fill="#292929"></path> <path d="M65.2992 10.3L69.9992 11.1V12.2C71.1992 11.5 72.5992 11.3 74.3992 11.5C78.0992 12.1 80.4992 14.8 80.4992 18.4C80.4992 22 78.0992 23.9 74.2992 23.3C72.6992 23 71.3992 22.5 70.1992 21.4V26L65.1992 25.2V10.3H65.2992ZM72.7992 19.6C74.2992 19.8 75.2992 19 75.2992 17.5C75.2992 16 74.2992 14.8 72.7992 14.6C71.2992 14.4 70.2992 15.2 70.2992 16.7C70.1992 18.3 71.2992 19.4 72.7992 19.6Z" fill="#292929"></path> <path d="M87 25.4C83.4 24.8 81.5 23.3 81.5 20.8C81.5 20 81.7 19.3 82.1 18.9C83.1 17.8 84.8 17.9 87.2 18.1C90.7 18.4 92.3 18.9 92.3 18C92.3 17.4 91.5 16.9 90.1 16.6C88.5 16.3 87.7 16.5 87.6 17.3L82.5 16.5C82.7 13.7 85.1 13.1 90.1 13.9C93 14.4 95 15.1 96 16.1C97.3 17.3 97.5 18.6 97.5 20.6V25C97.5 25.7 97.6 26.2 98 26.6V26.8L92.9 26C92.7 25.5 92.6 25 92.6 24.4C91.3 25.6 89.5 25.8 87 25.4ZM89.1 20.7C87.8 20.6 87.2 20.7 87.2 21.4C87.2 22.1 87.9 22.6 89 22.8C91.2 23.2 92.6 22.4 92.6 20.9C92.6 20.8 92.6 20.7 92.6 20.6C91.6 21 90.4 20.8 89.1 20.7Z" fill="#292929"></path> <path d="M114.6 18.2V29.4L109.6 28.6V20.9L106.2 20.3V23.8C106.2 25.2 105.6 26.2 105 26.8C104.2 27.5 103.1 27.7 101.5 27.5C100.3 27.3 99.7004 27.2 98.9004 26.8V23.9C99.2004 24 99.6004 24.1 99.9004 24.1C101 24.3 101.3 23.6 101.3 20.8V16L114.6 18.2Z" fill="#292929"></path> <path d="M117.199 18.6L122.199 19.4V23.3L125.699 23.9C129.499 24.5 131.199 25.9 131.199 28.3C131.199 31 129.399 31.8 125.699 31.2L117.199 29.8V18.6V18.6ZM122.199 27.9L124.799 28.3C125.799 28.5 125.999 28.2 125.999 27.5C125.999 26.9 125.699 26.5 124.699 26.4L122.199 26V27.9Z" fill="#292929"></path> <path d="M133.4 21.2L138.4 22V25.7999L142.5 26.5V22.7L147.5 23.5V34.7L142.5 33.9V30.1L138.4 29.4V33.2L133.4 32.4V21.2Z" fill="#292929"></path> <path d="M149.6 23.8L154.6 24.6V28.1L154.4 30.8L158.7 25.4L164.4 26.3V37.5L159.4 36.7001V33.2001L159.6 30.2001L155.2 36L149.5 35.1V23.8H149.6Z" fill="#292929"></path> <path d="M166.2 26.5L171.2 27.3V30.8L171 33.5L175.3 28.1L181 29V40.2L176 39.4V35.9L176.2 32.9L171.8 38.7L166.1 37.8V26.5H166.2ZM172.4 22.9C172.4 23.5 172.8 24.2 173.8 24.4C174.8 24.6 175.2 24 175.2 23.4L177.8 23.8C177.8 24.8 177.4 25.5 176.6 25.9C175.8 26.3 174.9 26.4 173.8 26.2C172.6 26 171.6 25.6 171 25.1C170.2 24.5 169.9 23.6 169.9 22.5L172.4 22.9Z" fill="#292929"></path> <path d="M5.5 32.3C1.8 31.8 0 30.3 0 27.8C0 27 0.2 26.3 0.6 25.9C1.6 24.8 3.3 24.9 5.7 25.1C9.2 25.4 10.8 25.9 10.8 25C10.8 24.4 10 23.9 8.6 23.6C7 23.4 6.2 23.5 6 24.3L0.9 23.5C1.1 20.7 3.5 20.1 8.5 20.9C11.4 21.4 13.4 22.1 14.4 23.1C15.7 24.3 15.9 25.6 15.9 27.6V31.9C15.9 32.6 16 33.1 16.4 33.5V33.7L11.2 32.9C11 32.4 10.9 31.9 10.9 31.3C9.7 32.5 8 32.8 5.5 32.3ZM7.5 27.7C6.2 27.6 5.6 27.7 5.6 28.4C5.6 29.1 6.3 29.6 7.4 29.8C9.6 30.2 11 29.4 11 27.9C11 27.8 11 27.7 11 27.6C10 28 8.8 27.8 7.5 27.7Z" fill="#292929"></path> <path d="M18.6 22.8L23.6 23.6V27.4L27.7 28.1V24.3L32.7 25.1V36.3L27.7 35.5V31.7001L23.5 31V34.8L18.5 34V22.8H18.6Z" fill="#292929"></path> <path d="M35.1996 25.5L46.7996 27.4V31L40.0996 29.9V37.6L35.0996 36.8V25.5H35.1996Z" fill="#292929"></path> <path d="M52.9004 39.9C49.3004 39.3 47.4004 37.8 47.4004 35.3C47.4004 34.5 47.6004 33.8 48.0004 33.4C49.0004 32.3 50.7004 32.4 53.1004 32.6C56.6004 32.9 58.2004 33.4 58.2004 32.5C58.2004 31.9 57.4004 31.4 56.0004 31.1C54.4004 30.8 53.6004 31 53.5004 31.8L48.4004 31C48.6004 28.2 51.0004 27.6 56.0004 28.4C58.9004 28.9 60.9004 29.6 61.9004 30.6C63.2004 31.8 63.4004 33.1 63.4004 35.1V39.4C63.4004 40.1 63.5004 40.6 63.9004 41V41.2L58.7004 40.4C58.5004 39.9 58.4004 39.4 58.4004 38.8C57.1004 40.1 55.4004 40.3 52.9004 39.9ZM55.0004 35.3C53.7004 35.2 53.1004 35.3 53.1004 36C53.1004 36.7 53.8004 37.2 54.9004 37.4C57.1004 37.8 58.5004 37 58.5004 35.5C58.5004 35.4 58.5004 35.3 58.5004 35.2C57.5004 35.6 56.3004 35.3 55.0004 35.3Z" fill="#292929"></path> <path d="M66.1 30.4L70.8 31.2V32.3C72 31.6 73.4 31.4 75.2 31.6C78.9 32.2 81.3 34.9 81.3 38.5C81.3 42.1 78.9 44 75.1 43.4C73.5 43.1 72.2 42.6 71 41.5V46.1L66 45.3V30.4H66.1ZM73.6 39.8C75.1 40 76.1 39.2 76.1 37.7C76.1 36.2 75.1 35 73.6 34.8C72.1 34.6 71.1 35.4 71.1 36.9C71 38.4 72.1 39.5 73.6 39.8Z" fill="#292929"></path> </svg> 