<?xml version="1.0" encoding="UTF-8"?> <svg xmlns="http://www.w3.org/2000/svg" width="60" height="26" viewBox="0 0 60 26" fill="none"> <path d="M0.400391 8.30015L7.50039 7.40015V13.0001L5.00039 13.3001V9.50015L2.90039 9.70015V13.5001L0.400391 13.8001V8.30015V8.30015Z" fill="#292929"></path> <path d="M11.2004 12.7C9.40039 12.9 8.40039 12.4 8.40039 11.2C8.40039 10.8 8.50039 10.4 8.70039 10.2C9.20039 9.50005 10.1004 9.30005 11.3004 9.10005C13.1004 8.80005 13.9004 8.80005 13.9004 8.30005C13.9004 8.00005 13.5004 7.80005 12.8004 7.90005C12.0004 8.00005 11.6004 8.20005 11.5004 8.60005L8.90039 8.90005C9.00039 7.40005 10.2004 6.80005 12.8004 6.50005C14.3004 6.30005 15.3004 6.40005 15.8004 6.70005C16.4004 7.10005 16.6004 7.70005 16.6004 8.70005V11C16.6004 11.4 16.6004 11.6 16.9004 11.7V11.8L14.3004 12.1C14.0004 11.9 14.0004 11.7 14.0004 11.4C13.3004 12.2 12.4004 12.5 11.2004 12.7ZM12.2004 10.1C11.5004 10.2 11.2004 10.4 11.2004 10.7C11.2004 11.1 11.5004 11.2 12.1004 11.1C13.3004 11 14.0004 10.4 14.0004 9.70005V9.60005C13.5004 9.90005 12.9004 9.90005 12.2004 10.1Z" fill="#292929"></path> <path d="M17.8008 6.00004L20.2008 5.70004V6.20004C20.8008 5.70004 21.5008 5.30004 22.4008 5.20004C24.3008 5.00004 25.5008 6.00004 25.5008 7.80004C25.5008 9.60004 24.3008 10.9 22.4008 11.1C21.6008 11.2 20.9008 11.1 20.3008 10.8V13.1L17.8008 13.4V6.00004V6.00004ZM21.6008 9.60004C22.4008 9.50004 22.9008 9.00004 22.9008 8.20004C22.9008 7.40004 22.4008 7.00004 21.6008 7.10004C20.8008 7.20004 20.3008 7.70004 20.3008 8.50004C20.3008 9.30004 20.9008 9.70004 21.6008 9.60004Z" fill="#292929"></path> <path d="M26.5 5L29 4.7V6.5L30.8 4.5L34.2 4L32 6.2L34.5 9.5L31.5 9.9L30.2 7.9L29 9V10.3L26.5 10.6V5Z" fill="#292929"></path> <path d="M38.5996 3.19996C41.1996 2.89996 42.5996 3.79996 42.5996 5.69996C42.5996 7.59996 41.1996 8.89996 38.5996 9.19996C35.9996 9.49996 34.5996 8.59996 34.5996 6.69996C34.5996 4.79996 36.0996 3.49996 38.5996 3.19996ZM38.5996 7.49996C39.3996 7.39996 39.8996 6.79996 39.8996 6.09996C39.8996 5.39996 39.3996 4.89996 38.5996 4.99996C37.7996 5.09996 37.2996 5.69996 37.2996 6.39996C37.2996 7.09996 37.8996 7.59996 38.5996 7.49996Z" fill="#292929"></path> <path d="M43.5 2.80015L48.3 2.20015C49.8 2.00015 50.4 2.40015 50.4 3.40015C50.4 3.90015 50 4.50015 49.6 4.70015C50.3 4.80015 50.7 5.30015 50.7 5.90015C50.7 7.20015 49.7 7.60015 47.9 7.90015L43.5 8.50015V2.80015V2.80015ZM46.1 4.60015L47.4 4.40015C47.8 4.40015 47.9 4.20015 47.9 3.90015C47.9 3.60015 47.8 3.50015 47.4 3.60015L46.1 3.80015V4.60015ZM46.1 6.70015L47.6 6.50015C48 6.40015 48.2 6.30015 48.2 6.00015C48.2 5.70015 48 5.60015 47.6 5.60015L46.1 5.80015V6.70015Z" fill="#292929"></path> <path d="M54.1008 7.20005C52.3008 7.40005 51.3008 6.90005 51.3008 5.70005C51.3008 5.30005 51.4008 4.90005 51.6008 4.70005C52.1008 4.00005 53.0008 3.80005 54.2008 3.60005C56.0008 3.30005 56.8008 3.30005 56.8008 2.80005C56.8008 2.50005 56.4008 2.30005 55.7008 2.40005C54.9008 2.50005 54.5008 2.70005 54.4008 3.10005L51.8008 3.40005C51.9008 1.90005 53.1008 1.30005 55.7008 1.00005C57.2008 0.800048 58.2008 0.900048 58.7008 1.20005C59.3008 1.60005 59.5008 2.20005 59.5008 3.20005V5.40005C59.5008 5.80005 59.5008 6.00005 59.8008 6.10005V6.20005L57.2008 6.50005C57.1008 6.30005 57.0008 6.00005 57.0008 5.80005C56.2008 6.70005 55.3008 7.10005 54.1008 7.20005ZM55.1008 4.60005C54.4008 4.70005 54.1008 4.90005 54.1008 5.20005C54.1008 5.60005 54.4008 5.70005 55.0008 5.60005C56.1008 5.50005 56.8008 4.90005 56.8008 4.10005V4.00005C56.4008 4.40005 55.8008 4.50005 55.1008 4.60005Z" fill="#292929"></path> <path d="M2.7 23.3001V22.2001L3.8 22.1001C4.4 22.0001 4.8 21.7001 4.8 21.4001C4.8 21.1001 4.4 21.0001 3.9 21.0001C3.3 21.1001 3 21.2001 2.9 21.5001L0.4 21.8001C0.5 21.2001 0.9 20.7001 1.6 20.3001C2.1 20.0001 2.9 19.8001 4 19.7001C5.4 19.5001 7.3 19.5001 7.3 20.8001C7.3 21.5001 6.9 22.1001 6 22.3001C7.1 22.4001 7.6 22.8001 7.6 23.6001C7.6 24.1001 7.3 24.5001 6.9 24.8001C6.3 25.3001 4.6 25.6001 3.9 25.7001C2.8 25.8001 1.7 25.9001 1.1 25.7001C0.3 25.4001 0 24.9001 0 24.2001L2.5 23.9001C2.5 24.2001 3.1 24.5001 3.8 24.4001C4.5 24.3001 5 24.0001 5 23.6001C5 23.2001 4.6 23.1001 3.9 23.2001L2.7 23.3001Z" fill="#292929"></path> <path d="M12.3008 18.6001C14.9008 18.3001 16.3008 19.2001 16.3008 21.1001C16.3008 23.0001 14.9008 24.3001 12.3008 24.6001C9.70078 24.9001 8.30078 24.0001 8.30078 22.1001C8.30078 20.2001 9.70078 18.9001 12.3008 18.6001ZM12.2008 22.8001C13.0008 22.7001 13.5008 22.1001 13.5008 21.4001C13.5008 20.7001 13.0008 20.2001 12.2008 20.3001C11.4008 20.4001 10.9008 21.0001 10.9008 21.7001C10.9008 22.4001 11.5008 22.9001 12.2008 22.8001Z" fill="#292929"></path> <path d="M17.1992 18.1L19.6992 17.7999V19.7L21.7992 19.4V17.5L24.2992 17.2V22.7999L21.7992 23.1V21.2L19.6992 21.5V23.4L17.1992 23.7V18.1Z" fill="#292929"></path> <path d="M27.8996 22.6C26.0996 22.8 25.0996 22.3 25.0996 21.1C25.0996 20.7 25.1996 20.3 25.3996 20.1C25.8996 19.4 26.7996 19.2 27.9996 19C29.7996 18.7 30.5996 18.7 30.5996 18.2C30.5996 17.9 30.1996 17.6999 29.4996 17.7999C28.6996 17.8999 28.2996 18.1 28.1996 18.5L25.5996 18.7999C25.6996 17.2999 26.8996 16.7 29.4996 16.4C30.9996 16.2 31.9996 16.3 32.4996 16.6C33.0996 17 33.2996 17.6 33.2996 18.6V20.7999C33.2996 21.1999 33.2996 21.4 33.5996 21.5V21.6L30.8996 22C30.7996 21.8 30.6996 21.4999 30.6996 21.2999C29.9996 22.0999 29.1996 22.4 27.8996 22.6ZM28.8996 19.9C28.1996 20 27.8996 20.2 27.8996 20.5C27.8996 20.9 28.1996 21 28.7996 20.9C29.8996 20.8 30.5996 20.2 30.5996 19.4V19.2999C30.1996 19.6999 29.5996 19.8 28.8996 19.9Z" fill="#292929"></path> </svg> 