<?xml version="1.0" encoding="UTF-8"?> <svg xmlns="http://www.w3.org/2000/svg" width="90" height="268" viewBox="0 0 90 268" fill="none"> <path d="M70 260.89L70 237.4L18.97 237.4L70 222.1L70 202.3L18.97 186.82L70 186.82L70 163.33L4.65999 163.33L4.66 200.32L44.44 212.29L4.66 223.36L4.66 260.89L70 260.89ZM63.07 105.893C65.59 105.803 67.93 105.353 70 104.453L70 80.9631L68.92 80.9631C67.57 82.7631 65.5 83.2131 62.17 83.2131L42.64 83.2131C33.73 83.2131 28.06 84.3831 23.56 90.1431C19.96 94.8231 18.07 103.823 18.07 117.233C18.07 140.003 22.21 150.983 35.17 151.973L35.17 128.663C31.21 128.033 30.13 124.343 30.13 117.053C30.13 110.483 32.11 106.973 34.72 106.973C38.86 106.973 37.78 114.353 38.86 130.193C39.58 141.083 40.12 148.823 45.97 153.503C48.13 155.213 51.28 156.203 55.06 156.203C66.13 156.203 71.62 147.923 71.62 131.363C71.62 119.933 69.46 112.013 63.07 105.893ZM46.42 105.983C46.87 105.893 47.23 105.893 47.68 105.893C54.16 105.893 58.66 112.103 58.66 122.273C58.66 127.583 56.77 130.553 53.62 130.553C50.47 130.553 49.57 127.943 49.03 121.913C48.49 115.883 48.67 110.573 46.42 105.983ZM86.38 73.1753L86.38 50.5853L65.86 50.5853C69.55 45.0053 71.26 38.9753 71.26 31.7753C71.26 14.4953 60.82 3.60531 44.71 3.60531C28.6 3.60532 18.07 14.4953 18.07 31.4153C18.07 39.4253 20.05 45.9953 24.19 51.4853L19.33 51.6653L19.33 73.1753L86.38 73.1753ZM44.71 50.5853C37.78 50.5853 33.46 45.8153 33.46 38.9753C33.46 32.0453 37.78 27.3653 44.71 27.3653C51.55 27.3653 55.87 32.0453 55.87 38.9753C55.87 45.8153 51.55 50.5853 44.71 50.5853Z" fill="#052D1E"></path> <rect x="87" width="3" height="268" fill="#052D1E"></rect> </svg> 