<?xml version="1.0" encoding="UTF-8"?> <svg xmlns="http://www.w3.org/2000/svg" width="333" height="196" viewBox="0 0 333 196" fill="none"> <rect width="333" height="196" fill="white"></rect> <path d="M20.768 119.84H26.32V118.736H20.768V119.84ZM39.5095 119.584V120.864C39.5095 121.952 38.1815 122.928 36.1975 122.928C34.9815 122.928 34.2935 122.384 34.2935 121.568C34.2935 120.512 35.2215 120.368 36.9015 120.176C38.1975 120.032 39.0615 119.856 39.5095 119.584ZM39.5575 122.672C39.7175 123.6 40.1655 124.096 41.0615 124.096C41.3495 124.096 41.7975 124.064 42.2935 123.984V122.736C42.1015 122.768 41.9575 122.784 41.8295 122.784C41.2215 122.784 41.0615 122.352 41.0615 121.456V117.968C41.0615 115.872 39.9895 115.12 37.1255 115.12C34.4855 115.12 33.0935 116.128 32.9815 118.16H34.5975C34.6775 116.928 35.4935 116.432 37.2375 116.432C38.7895 116.432 39.5095 116.832 39.5095 117.76C39.5095 118.8 38.5175 118.752 36.6135 118.96C34.1655 119.232 32.6455 119.648 32.6455 121.648C32.6455 123.248 33.7815 124.24 35.9415 124.24C37.5255 124.24 38.7735 123.664 39.5575 122.672ZM44.9784 115.392H43.4264V124H44.9784V119.792C44.9784 117.968 46.2424 116.72 47.7144 116.72C48.0504 116.72 48.4024 116.768 48.8344 116.896V115.264C48.6264 115.152 48.4184 115.12 48.1464 115.12C46.8664 115.12 45.7624 115.712 44.9784 116.848V115.392ZM50.3107 113.2V115.392H48.8067V116.704H50.3107V122.256C50.3107 123.6 51.0147 124.24 52.5347 124.24C52.9667 124.24 53.4467 124.176 53.9747 124.096V122.672C53.5587 122.768 53.2227 122.8 52.9187 122.8C52.1507 122.8 51.8627 122.528 51.8627 121.808V116.704H53.9747V115.392H51.8627V113.2H50.3107ZM68.5066 118.256C68.1386 116.336 66.5066 115.12 64.2346 115.12C61.4506 115.12 59.5626 116.976 59.5626 119.712C59.5626 122.448 61.4666 124.24 64.2026 124.24C66.5546 124.24 68.2026 122.96 68.5706 120.784H66.9386C66.7306 122.048 65.6906 122.8 64.2666 122.8C62.4586 122.8 61.2106 121.664 61.2106 119.728C61.2106 117.776 62.4106 116.56 64.3786 116.56C65.6426 116.56 66.5866 117.2 66.8906 118.256H68.5066ZM78.8381 120.016V119.712C78.8381 116.848 77.0941 115.12 74.1501 115.12C71.2701 115.12 69.4301 116.928 69.4301 119.712C69.4301 122.48 71.2541 124.24 74.1501 124.24C76.4381 124.24 78.0861 123.184 78.6941 121.328H76.8861C76.5341 122.272 75.5101 122.8 74.1501 122.8C72.3101 122.8 71.0781 121.696 71.0781 120.016H78.8381ZM71.1101 118.912C71.3661 117.44 72.5021 116.56 74.1501 116.56C75.8141 116.56 76.9341 117.456 77.1741 118.912H71.1101ZM81.8159 115.392H80.2639V124H81.8159V119.632C81.8159 117.712 83.1759 116.432 84.9999 116.432C86.5519 116.432 87.0639 117.264 87.0639 119.008V124H88.6159V118.88C88.6159 116.624 87.9599 115.12 85.3519 115.12C83.8159 115.12 82.6159 115.824 81.8159 116.88V115.392ZM90.9608 113.2V115.392H89.4568V116.704H90.9608V122.256C90.9608 123.6 91.6648 124.24 93.1848 124.24C93.6168 124.24 94.0968 124.176 94.6248 124.096V122.672C94.2088 122.768 93.8728 122.8 93.5688 122.8C92.8008 122.8 92.5128 122.528 92.5128 121.808V116.704H94.6248V115.392H92.5128V113.2H90.9608ZM104.597 120.016V119.712C104.597 116.848 102.853 115.12 99.9089 115.12C97.0289 115.12 95.1889 116.928 95.1889 119.712C95.1889 122.48 97.0129 124.24 99.9089 124.24C102.197 124.24 103.845 123.184 104.453 121.328H102.645C102.293 122.272 101.269 122.8 99.9089 122.8C98.0689 122.8 96.8369 121.696 96.8369 120.016H104.597ZM96.8689 118.912C97.1249 117.44 98.2609 116.56 99.9089 116.56C101.573 116.56 102.693 117.456 102.933 118.912H96.8689ZM107.575 115.392H106.023V124H107.575V119.792C107.575 117.968 108.839 116.72 110.311 116.72C110.647 116.72 110.999 116.768 111.431 116.896V115.264C111.223 115.152 111.015 115.12 110.743 115.12C109.463 115.12 108.359 115.712 107.575 116.848V115.392ZM112.619 124H113.563V124.24C113.563 124.96 113.291 125.36 112.619 125.616V126.672C114.075 126.144 114.539 125.424 114.539 124V122.08H112.619V124ZM112.619 117.344H114.539V115.424H112.619V117.344ZM20.768 143.84H26.32V142.736H20.768V143.84ZM34.5015 139.392H32.9495V148H34.5015V143.632C34.5015 141.712 35.8615 140.432 37.6855 140.432C39.2375 140.432 39.7495 141.264 39.7495 143.008V148H41.2535V143.632C41.2535 141.712 42.6135 140.432 44.4375 140.432C45.9895 140.432 46.5015 141.264 46.5015 143.008V148H48.0535V143.072C48.0535 140.64 47.3815 139.12 44.7735 139.12C43.2535 139.12 42.1335 139.76 41.1095 141.024C40.7575 139.856 39.6695 139.12 38.0535 139.12C36.5175 139.12 35.3815 139.808 34.5015 140.88V139.392ZM58.8838 144.016V143.712C58.8838 140.848 57.1398 139.12 54.1958 139.12C51.3158 139.12 49.4758 140.928 49.4758 143.712C49.4758 146.48 51.2998 148.24 54.1958 148.24C56.4838 148.24 58.1318 147.184 58.7398 145.328H56.9318C56.5798 146.272 55.5558 146.8 54.1958 146.8C52.3558 146.8 51.1238 145.696 51.1238 144.016H58.8838ZM51.1558 142.912C51.4118 141.44 52.5478 140.56 54.1958 140.56C55.8598 140.56 56.9798 141.456 57.2198 142.912H51.1558ZM69.2215 136.384H67.6695V140.704C66.9975 139.712 65.7335 139.12 64.3575 139.12C61.6215 139.12 59.7495 141.056 59.7495 143.728C59.7495 146.416 61.6215 148.24 64.3415 148.24C65.7335 148.24 66.8215 147.76 67.6695 146.736V148H69.2215V136.384ZM64.5175 140.56C66.4695 140.56 67.6695 141.824 67.6695 143.728C67.6695 145.648 66.4695 146.8 64.5175 146.8C62.5655 146.8 61.3975 145.664 61.3975 143.728C61.3975 141.808 62.5655 140.56 64.5175 140.56ZM72.8883 139.392H71.3363V148H72.8883V139.392ZM72.8883 138.272V136.384H71.3363V138.272H72.8883ZM81.5576 143.584V144.864C81.5576 145.952 80.2296 146.928 78.2456 146.928C77.0296 146.928 76.3416 146.384 76.3416 145.568C76.3416 144.512 77.2696 144.368 78.9496 144.176C80.2456 144.032 81.1096 143.856 81.5576 143.584ZM81.6056 146.672C81.7656 147.6 82.2136 148.096 83.1096 148.096C83.3976 148.096 83.8456 148.064 84.3416 147.984V146.736C84.1496 146.768 84.0056 146.784 83.8776 146.784C83.2696 146.784 83.1096 146.352 83.1096 145.456V141.968C83.1096 139.872 82.0376 139.12 79.1736 139.12C76.5336 139.12 75.1416 140.128 75.0296 142.16H76.6456C76.7256 140.928 77.5416 140.432 79.2856 140.432C80.8376 140.432 81.5576 140.832 81.5576 141.76C81.5576 142.8 80.5656 142.752 78.6616 142.96C76.2136 143.232 74.6936 143.648 74.6936 145.648C74.6936 147.248 75.8296 148.24 77.9896 148.24C79.5736 148.24 80.8216 147.664 81.6056 146.672ZM92.1783 136.384H90.6263V148H92.1783V136.384ZM100.848 143.584V144.864C100.848 145.952 99.5196 146.928 97.5356 146.928C96.3196 146.928 95.6316 146.384 95.6316 145.568C95.6316 144.512 96.5596 144.368 98.2396 144.176C99.5356 144.032 100.4 143.856 100.848 143.584ZM100.896 146.672C101.056 147.6 101.504 148.096 102.4 148.096C102.688 148.096 103.136 148.064 103.632 147.984V146.736C103.44 146.768 103.296 146.784 103.168 146.784C102.56 146.784 102.4 146.352 102.4 145.456V141.968C102.4 139.872 101.328 139.12 98.4636 139.12C95.8236 139.12 94.4316 140.128 94.3196 142.16H95.9356C96.0156 140.928 96.8316 140.432 98.5756 140.432C100.128 140.432 100.848 140.832 100.848 141.76C100.848 142.8 99.8556 142.752 97.9516 142.96C95.5036 143.232 93.9836 143.648 93.9836 145.648C93.9836 147.248 95.1196 148.24 97.2796 148.24C98.8636 148.24 100.112 147.664 100.896 146.672ZM104.765 136.384V148H106.317V146.736C107.165 147.76 108.253 148.24 109.645 148.24C112.365 148.24 114.237 146.416 114.237 143.728C114.237 141.056 112.365 139.12 109.629 139.12C108.253 139.12 107.117 139.696 106.317 140.704V136.384H104.765ZM109.469 140.56C111.421 140.56 112.589 141.792 112.589 143.712C112.589 145.648 111.421 146.8 109.469 146.8C107.517 146.8 106.317 145.648 106.317 143.728C106.317 141.824 107.517 140.56 109.469 140.56ZM116.223 148H118.143V146.08H116.223V148Z" fill="#292929"></path> <path d="M40.04 53.072H33.608C33.32 54.512 32.072 55.424 30.392 55.424C28.4 55.424 27.08 54.2 27.08 52.232C27.08 50.24 28.4 49.016 30.536 49.016C32 49.016 32.984 49.64 33.464 50.888H39.92C39.368 47.048 36.152 45.056 30.392 45.056C24.128 45.056 20.72 47.768 20.72 52.256C20.72 56.768 24.128 59.456 30.392 59.456C36.368 59.456 39.608 57.32 40.04 53.072ZM41.0525 52.256C41.0525 56.768 44.4125 59.456 50.5565 59.456C56.7005 59.456 60.0365 56.768 60.0365 52.256C60.0365 47.744 56.7005 45.056 50.5565 45.056C44.4125 45.056 41.0525 47.744 41.0525 52.256ZM47.4125 52.256C47.4125 50.384 48.6605 49.208 50.5325 49.208C52.4045 49.208 53.6525 50.384 53.6525 52.256C53.6525 54.128 52.4045 55.304 50.5325 55.304C48.6605 55.304 47.4125 54.128 47.4125 52.256ZM61.8506 59H67.8266V52.4C67.8266 50.912 68.8586 50.024 70.5386 50.024C72.1466 50.024 72.6026 50.816 72.6026 52.664V59H78.4826V52.4C78.4826 50.912 79.4906 50.024 81.1706 50.024C82.8026 50.024 83.2586 50.816 83.2586 52.664V59H89.2106V51.536C89.2106 47.264 87.6026 45.248 83.6906 45.248C81.2906 45.248 79.4186 46.016 77.6426 47.672C76.5866 45.968 75.1706 45.248 73.0106 45.248C71.0666 45.248 69.4346 45.776 67.8266 46.904V45.512H61.8506V59ZM91.8873 63.368H97.9113V57.896C99.3993 58.88 101.007 59.336 102.927 59.336C107.535 59.336 110.439 56.552 110.439 52.256C110.439 47.96 107.535 45.152 103.023 45.152C100.887 45.152 99.1353 45.68 97.6713 46.784L97.6233 45.488H91.8873V63.368ZM97.9113 52.256C97.9113 50.408 99.1833 49.256 101.007 49.256C102.855 49.256 104.103 50.408 104.103 52.256C104.103 54.08 102.855 55.232 101.007 55.232C99.1833 55.232 97.9113 54.08 97.9113 52.256ZM112.385 59H118.505V52.04C118.505 50.336 118.817 49.472 119.921 49.472C120.881 49.472 121.337 50.168 121.337 51.512V51.608H126.665V50.432C126.665 46.832 125.321 45.176 122.177 45.176C120.521 45.176 119.297 45.68 118.433 46.544L118.361 45.512H112.385V59ZM146.884 54.896H140.332C139.924 55.568 138.94 55.952 137.452 55.952C135.196 55.952 133.948 55.088 133.948 53.648H147.004V53.408C147.004 47.936 143.62 45.056 137.092 45.056C130.876 45.056 127.492 47.744 127.492 52.256C127.492 56.768 130.876 59.456 137.092 59.456C142.684 59.456 145.996 57.848 146.884 54.896ZM133.636 50.768C133.948 49.232 135.292 48.416 137.428 48.416C139.42 48.416 140.644 49.28 140.812 50.768H133.636ZM147.798 54.704C147.942 58.088 150.87 59.456 156.846 59.456C163.518 59.456 166.59 58.136 166.59 54.56C166.59 52.616 165.75 51.704 163.758 51.008C162.918 50.72 160.878 50.552 157.638 50.264C155.502 50.072 154.518 50.12 154.518 49.208C154.518 48.56 155.214 48.272 156.606 48.272C158.19 48.272 158.982 48.608 159.054 49.568H166.014C165.822 46.424 162.894 45.056 157.11 45.056C151.038 45.056 148.134 46.352 148.134 49.544C148.134 51.128 148.83 52.304 150.03 52.832C151.59 53.528 153.582 53.72 156.054 53.96C158.502 54.2 159.63 54.176 159.63 55.112C159.63 55.712 158.91 56.024 157.542 56.024C156.006 56.024 155.262 55.688 155.166 54.704H147.798ZM167.521 54.704C167.665 58.088 170.593 59.456 176.569 59.456C183.241 59.456 186.313 58.136 186.313 54.56C186.313 52.616 185.473 51.704 183.481 51.008C182.641 50.72 180.601 50.552 177.361 50.264C175.225 50.072 174.241 50.12 174.241 49.208C174.241 48.56 174.937 48.272 176.329 48.272C177.913 48.272 178.705 48.608 178.777 49.568L185.737 49.568C185.545 46.424 182.617 45.056 176.833 45.056C170.761 45.056 167.857 46.352 167.857 49.544C167.857 51.128 168.553 52.304 169.753 52.832C171.313 53.528 173.305 53.72 175.777 53.96C178.225 54.2 179.353 54.176 179.353 55.112C179.353 55.712 178.633 56.024 177.265 56.024C175.729 56.024 174.985 55.688 174.889 54.704H167.521ZM187.364 52.256C187.364 56.768 190.724 59.456 196.868 59.456C203.012 59.456 206.348 56.768 206.348 52.256C206.348 47.744 203.012 45.056 196.868 45.056C190.724 45.056 187.364 47.744 187.364 52.256ZM193.724 52.256C193.724 50.384 194.972 49.208 196.844 49.208C198.716 49.208 199.964 50.384 199.964 52.256C199.964 54.128 198.716 55.304 196.844 55.304C194.972 55.304 193.724 54.128 193.724 52.256ZM208.258 59H214.378V52.04C214.378 50.336 214.69 49.472 215.794 49.472C216.754 49.472 217.21 50.168 217.21 51.512V51.608H222.538V50.432C222.538 46.832 221.194 45.176 218.05 45.176C216.394 45.176 215.17 45.68 214.306 46.544L214.234 45.512H208.258V59ZM20.6 78.704C20.744 82.088 23.672 83.456 29.648 83.456C36.32 83.456 39.392 82.136 39.392 78.56C39.392 76.616 38.552 75.704 36.56 75.008C35.72 74.72 33.68 74.552 30.44 74.264C28.304 74.072 27.32 74.12 27.32 73.208C27.32 72.56 28.016 72.272 29.408 72.272C30.992 72.272 31.784 72.608 31.856 73.568H38.816C38.624 70.424 35.696 69.056 29.912 69.056C23.84 69.056 20.936 70.352 20.936 73.544C20.936 75.128 21.632 76.304 22.832 76.832C24.392 77.528 26.384 77.72 28.856 77.96C31.304 78.2 32.432 78.176 32.432 79.112C32.432 79.712 31.712 80.024 30.344 80.024C28.808 80.024 28.064 79.688 27.968 78.704H20.6ZM50.4271 82.976V79.256H49.5631C48.0991 79.256 48.0991 78.512 48.0991 76.4V73.616H50.2591V69.824H48.0991V65.408H42.0031V69.824H39.8671V73.616H42.0031V78.896C42.0031 80.84 42.2431 82.04 43.8511 82.688C44.8111 83.072 46.0111 83.24 47.4511 83.24C48.4351 83.24 49.4191 83.144 50.4271 82.976ZM64.3423 81.152C64.3663 81.824 64.4863 82.448 64.7263 83H70.9903V82.712C70.5103 82.352 70.3903 81.8 70.3903 80.912V75.704C70.3903 73.328 70.0783 71.816 68.5423 70.616C67.2943 69.656 64.8943 69.152 61.3183 69.152C55.2463 69.152 52.3183 70.256 52.0543 73.712H58.2703C58.4383 72.656 59.4223 72.368 61.3663 72.368C63.1183 72.368 64.0543 72.896 64.0543 73.592C64.0543 74.696 62.0863 74.408 57.8623 74.696C54.9583 74.888 52.8943 75.032 51.6463 76.592C51.1903 77.168 50.9263 78.008 50.9263 79.016C50.9263 81.968 53.1343 83.432 57.5503 83.432C60.5983 83.432 62.7103 82.856 64.3423 81.152ZM64.3183 76.712C64.3423 76.832 64.3423 76.928 64.3423 77.048C64.3423 78.776 62.6863 79.976 59.9743 79.976C58.5583 79.976 57.7663 79.472 57.7663 78.632C57.7663 77.792 58.4623 77.552 60.0703 77.408C61.6783 77.264 63.0943 77.312 64.3183 76.712ZM82.139 82.976V79.256H81.275C79.811 79.256 79.811 78.512 79.811 76.4V73.616H81.971V69.824H79.811V65.408H73.715V69.824H71.579V73.616H73.715V78.896C73.715 80.84 73.955 82.04 75.563 82.688C76.523 83.072 77.723 83.24 79.163 83.24C80.147 83.24 81.131 83.144 82.139 82.976ZM84.1021 68.384H90.1261V64.952H84.1021V68.384ZM84.1021 83H90.1261V69.488H84.1021V83ZM92.1481 76.256C92.1481 80.768 95.5081 83.456 101.652 83.456C107.796 83.456 111.132 80.768 111.132 76.256C111.132 71.744 107.796 69.056 101.652 69.056C95.5081 69.056 92.1481 71.744 92.1481 76.256ZM98.5081 76.256C98.5081 74.384 99.7561 73.208 101.628 73.208C103.5 73.208 104.748 74.384 104.748 76.256C104.748 78.128 103.5 79.304 101.628 79.304C99.7561 79.304 98.5081 78.128 98.5081 76.256ZM112.946 83H118.97V76.4C118.97 74.912 120.074 74.024 121.826 74.024C123.53 74.024 124.01 74.792 124.01 76.664V83H130.034V75.536C130.034 71.264 128.354 69.248 124.322 69.248C122.306 69.248 120.602 69.776 118.97 70.904V69.512H112.946V83Z" fill="#052D1E"></path> </svg> 