<?xml version="1.0" encoding="UTF-8"?> <svg xmlns="http://www.w3.org/2000/svg" width="88" height="45" viewBox="0 0 88 45" fill="none"> <path d="M7.1 13.0002C2.5 12.2002 0 9.60014 0 5.80014C0 2.10014 2.5 0.200155 7.1 1.00015C11.3 1.70015 13.7 3.80015 14.1 7.00015L9.4 6.20017C9 5.10017 8.3 4.50014 7.2 4.30014C5.6 4.00014 4.7 4.90016 4.7 6.60016C4.7 8.20016 5.7 9.40017 7.1 9.70017C8.3 9.90017 9.3 9.30016 9.5 8.10016L14.2 8.90015C13.9 12.4001 11.5 13.8002 7.1 13.0002Z" fill="#292929"></path> <path d="M22.4 15.5002C17.8 14.7002 15.3 12.1001 15.3 8.30014C15.3 4.50014 17.8 2.70015 22.4 3.50015C27.2 4.30015 29.7 7.10017 29.7 11.7002V11.9001L20.1 10.3001C20.1 11.5001 21 12.4002 22.7 12.6002C23.8 12.8002 24.5 12.6002 24.8 12.1002L29.6 12.9001C28.9 15.3001 26.5 16.2002 22.4 15.5002ZM25.1 8.80014C25 7.50014 24.1 6.70015 22.6 6.40015C21 6.10015 20 6.70015 19.8 7.90015L25.1 8.80014Z" fill="#292929"></path> <path d="M31.3 5.40015L35.7001 6.10016V7.30014C36.9001 6.60014 38.2 6.30016 39.6 6.60016C42.6 7.10016 43.8 9.00015 43.8 12.5002V18.7002L39.4001 18.0002V12.7002C39.4001 11.1002 39 10.4002 37.8 10.2002C36.5 10.0002 35.7001 10.6001 35.7001 11.8001V17.3001L31.3 16.6002V5.40015Z" fill="#292929"></path> <path d="M50.7001 20.1002C49.6001 19.9002 48.8001 19.6002 48.1001 19.2002C46.9001 18.5002 46.7001 17.4001 46.7001 15.8001V11.4001L45.1001 11.1002V7.90015L46.7001 8.20016V4.50015L51.2001 5.20016V8.90015L52.8001 9.20016V12.4001L51.2001 12.1002V14.4001C51.2001 16.2001 51.2001 16.8002 52.3001 17.0002L52.9001 17.1002V20.2002C52.1001 20.2002 51.4001 20.2002 50.7001 20.1002Z" fill="#292929"></path> <path d="M54.5 9.20016L58.9 9.90015L59 10.8001C59.6 10.2001 60.5 9.90016 61.8 10.1002C64.1 10.5002 65.1 12.0002 65.1 15.0002V16.0002L61.2 15.4001V15.3001C61.2 14.2001 60.9 13.5001 60.2 13.4001C59.4 13.3001 59.2 13.9001 59.2 15.4001V21.2002L54.7 20.5002V9.20016H54.5Z" fill="#292929"></path> <path d="M70.6 23.5001C67.4 23.0001 65.7 21.5001 65.7 19.0001C65.7 18.2001 65.9 17.5002 66.2 17.1002C67.1 16.0002 68.6 16.1001 70.8 16.3001C73.9 16.6001 75.4 17.1002 75.4 16.1002C75.4 15.5002 74.7 15.0001 73.4 14.8001C72 14.6001 71.2 14.7001 71.1 15.5001L66.5 14.7002C66.7 11.9002 68.8 11.3001 73.3 12.0001C75.9 12.4001 77.7 13.1002 78.6 14.1002C79.7 15.3002 80 16.6002 80 18.6002V22.9001C80 23.6001 80.1 24.1001 80.4 24.5001V24.7002L75.8 23.9001C75.6 23.4001 75.5 22.9001 75.5 22.3001C74.4 23.7001 72.9 23.9001 70.6 23.5001ZM72.5 18.8001C71.3 18.7001 70.8 18.8001 70.8 19.5001C70.8 20.2001 71.4 20.7001 72.4 20.9001C74.4 21.2001 75.6 20.4001 75.6 19.0001C75.6 18.9001 75.6 18.8002 75.6 18.7002C74.7 19.1002 73.7 18.9001 72.5 18.8001Z" fill="#292929"></path> <path d="M82.5 10.5002L87 11.2002V25.8001L82.5 25.1002V10.5002Z" fill="#292929"></path> <path d="M0.699951 16.9001L5.09995 17.6002V22.1002C6.29995 21.4002 7.59995 21.1001 8.99995 21.4001C12 21.9001 13.2 23.8001 13.2 27.3001V33.5002L8.79995 32.8001V27.5002C8.79995 25.9002 8.39995 25.2002 7.19995 25.0002C5.89995 24.8002 5.09995 25.4002 5.09995 26.6002V32.1002L0.699951 31.4001V16.9001Z" fill="#292929"></path> <path d="M19.6 35.1002C16.4 34.6002 14.7 33.1002 14.7 30.6002C14.7 29.8002 14.9 29.1002 15.2 28.7002C16.1 27.6002 17.6 27.7001 19.8 27.9001C22.9 28.2001 24.4 28.7002 24.4 27.7002C24.4 27.1002 23.7 26.6001 22.4 26.4001C21 26.2001 20.2 26.3002 20.1 27.1002L15.5 26.3001C15.7 23.5001 17.8 22.9002 22.3 23.6002C24.9 24.0002 26.7 24.7002 27.6 25.7002C28.7 26.9002 29 28.2002 29 30.2002V34.5001C29 35.2001 29.1 35.7002 29.4 36.1002V36.3001L24.8 35.5001C24.6 35.0001 24.5 34.5001 24.5 33.9001C23.4 35.2001 21.8 35.4002 19.6 35.1002ZM21.4 30.4001C20.2 30.3001 19.7 30.4002 19.7 31.1002C19.7 31.8002 20.3 32.3001 21.3 32.5001C23.3 32.8001 24.5 32.0002 24.5 30.6002C24.5 30.5002 24.5 30.4001 24.5 30.3001C23.7 30.6001 22.6 30.4001 21.4 30.4001Z" fill="#292929"></path> <path d="M31.3 25.4001L35.7001 26.1002V27.3001C36.9001 26.6001 38.2 26.3002 39.6 26.6002C42.6 27.1002 43.8 29.0002 43.8 32.5002V38.7002L39.4001 38.0002V32.7002C39.4001 31.1002 39 30.4002 37.8 30.2002C36.5 30.0002 35.7001 30.6001 35.7001 31.8001V37.3001L31.3 36.6002V25.4001Z" fill="#292929"></path> <path d="M58.8001 41.9001C57.7001 43.9001 55.6001 44.4001 52.3001 43.8001C48.4001 43.2001 46.3001 41.7002 45.9001 39.0002L51.8001 40.0002C51.9001 40.5002 52.3001 40.8001 52.9001 40.9001C54.3001 41.1001 54.8001 40.6002 54.8001 39.1002C54.8001 38.9002 54.8001 38.7002 54.8001 38.5002C53.8001 39.2002 52.5001 39.4002 50.9001 39.1002C47.6001 38.6002 45.6001 36.1001 45.6001 32.8001C45.6001 29.6001 47.7001 27.7001 50.9001 28.3001C52.5001 28.6001 53.9001 29.2001 55.0001 30.3001V29.2002L59.2001 29.9001V38.7002C59.2001 40.2002 59.2001 41.3001 58.8001 41.9001ZM52.5001 36.2002C53.9001 36.4002 54.8001 35.8002 54.8001 34.5002C54.8001 33.2002 53.9001 32.2002 52.5001 32.0002C51.1001 31.8002 50.2001 32.5002 50.2001 33.7002C50.2001 35.0002 51.1001 36.0002 52.5001 36.2002Z" fill="#292929"></path> <path d="M65.5999 42.7002C62.3999 42.2002 60.7 40.7002 60.7 38.2002C60.7 37.4002 60.9 36.7001 61.2 36.3001C62.1 35.2001 63.6 35.3002 65.8 35.5002C68.9 35.8002 70.4 36.3001 70.4 35.3001C70.4 34.7001 69.7 34.2002 68.4 34.0002C67 33.8002 66.1999 33.9002 66.0999 34.7002L61.5 33.9001C61.7 31.1001 63.8 30.5002 68.3 31.2002C70.9 31.6002 72.6999 32.3001 73.5999 33.3001C74.6999 34.5001 75 35.8001 75 37.8001V42.1002C75 42.8002 75.1 43.3002 75.4 43.7002V43.9001L70.8 43.1002C70.6 42.6002 70.5 42.1002 70.5 41.5001C69.4 42.8001 67.8999 43.1002 65.5999 42.7002ZM67.5 38.0002C66.3 37.9002 65.8 38.0002 65.8 38.7002C65.8 39.4002 66.4 39.9002 67.4 40.1002C69.4 40.4002 70.5999 39.6002 70.5999 38.2002C70.5999 38.1002 70.5999 38.0001 70.5999 37.9001C69.6999 38.3001 68.7 38.0002 67.5 38.0002Z" fill="#292929"></path> <path d="M77.3999 33.0002L81.7999 33.7002L81.8999 34.6002C82.4999 34.0002 83.3999 33.7001 84.6999 33.9001C86.9999 34.3001 87.9999 35.8001 87.9999 38.8001V39.8001L84.0999 39.2002V39.1002C84.0999 38.0002 83.7999 37.3002 83.0999 37.2002C82.2999 37.1002 82.0999 37.7002 82.0999 39.2002V45.0002L77.5999 44.3001V33.0002H77.3999Z" fill="#292929"></path> </svg> 