<?xml version="1.0" encoding="UTF-8"?> <svg xmlns="http://www.w3.org/2000/svg" width="333" height="164" viewBox="0 0 333 164" fill="none"> <rect width="333" height="164" fill="white"></rect> <path d="M20.768 95.84H26.32V94.736H20.768V95.84ZM41.3335 94.256C40.9655 92.336 39.3335 91.12 37.0615 91.12C34.2775 91.12 32.3895 92.976 32.3895 95.712C32.3895 98.448 34.2935 100.24 37.0295 100.24C39.3815 100.24 41.0295 98.96 41.3975 96.784H39.7655C39.5575 98.048 38.5175 98.8 37.0935 98.8C35.2855 98.8 34.0375 97.664 34.0375 95.728C34.0375 93.776 35.2375 92.56 37.2055 92.56C38.4695 92.56 39.4135 93.2 39.7175 94.256H41.3335ZM47.073 91.12C44.113 91.12 42.257 92.944 42.257 95.712C42.257 98.48 44.113 100.24 47.073 100.24C50.033 100.24 51.873 98.48 51.873 95.712C51.873 92.944 50.033 91.12 47.073 91.12ZM47.073 92.56C49.041 92.56 50.225 93.728 50.225 95.68C50.225 97.632 49.041 98.8 47.073 98.8C45.105 98.8 43.905 97.632 43.905 95.68C43.905 93.728 45.105 92.56 47.073 92.56ZM52.9099 95.84H58.4619V94.736H52.9099V95.84ZM58.8836 91.392L62.1316 100H63.9076L66.0356 92.944L68.0676 100H69.8276L73.1556 91.392H71.3476L69.0116 98.544L66.9476 91.392H65.1876L62.9956 98.544L60.7716 91.392H58.8836ZM78.2068 91.12C75.2468 91.12 73.3908 92.944 73.3908 95.712C73.3908 98.48 75.2468 100.24 78.2068 100.24C81.1668 100.24 83.0068 98.48 83.0068 95.712C83.0068 92.944 81.1668 91.12 78.2068 91.12ZM78.2068 92.56C80.1748 92.56 81.3588 93.728 81.3588 95.68C81.3588 97.632 80.1748 98.8 78.2068 98.8C76.2388 98.8 75.0388 97.632 75.0388 95.68C75.0388 93.728 76.2388 92.56 78.2068 92.56ZM85.9796 91.392H84.4276V100H85.9796V95.792C85.9796 93.968 87.2436 92.72 88.7156 92.72C89.0516 92.72 89.4036 92.768 89.8356 92.896V91.264C89.6276 91.152 89.4196 91.12 89.1476 91.12C87.8676 91.12 86.7636 91.712 85.9796 92.848V91.392ZM92.144 88.384H90.592V100H92.144V96.896L93.744 95.616L97.184 100H99.28L94.896 94.672L98.976 91.392H96.672L92.144 95.152V88.384ZM101.765 91.392H100.213V100H101.765V91.392ZM101.765 90.272V88.384H100.213V90.272H101.765ZM105.426 91.392H103.874V100H105.426V95.632C105.426 93.712 106.786 92.432 108.61 92.432C110.162 92.432 110.674 93.264 110.674 95.008V100H112.226V94.88C112.226 92.624 111.57 91.12 108.962 91.12C107.426 91.12 106.226 91.824 105.426 92.88V91.392ZM121.586 91.392V92.8C120.898 91.744 119.746 91.12 118.242 91.12C115.538 91.12 113.65 93.024 113.65 95.712C113.65 98.384 115.522 100.24 118.258 100.24C119.634 100.24 120.69 99.744 121.586 98.736V99.024C121.586 100.896 120.706 101.648 118.354 101.648C116.93 101.648 116.13 101.216 115.97 100.288H114.226C114.402 102.08 115.826 103.088 118.338 103.088C121.698 103.088 123.138 101.792 123.138 98.896V91.392H121.586ZM118.482 92.56C120.466 92.56 121.698 93.744 121.698 95.712C121.698 97.648 120.466 98.8 118.482 98.8C116.498 98.8 115.282 97.664 115.282 95.712C115.282 93.744 116.498 92.56 118.482 92.56ZM125.557 100H126.501V100.24C126.501 100.96 126.229 101.36 125.557 101.616V102.672C127.013 102.144 127.477 101.424 127.477 100V98.08H125.557V100ZM125.557 93.344H127.477V91.424H125.557V93.344ZM20.768 119.84H26.32V118.736H20.768V119.84ZM34.5015 115.392H32.9495V124H34.5015V119.632C34.5015 117.712 35.8615 116.432 37.6855 116.432C39.2375 116.432 39.7495 117.264 39.7495 119.008V124H41.2535V119.632C41.2535 117.712 42.6135 116.432 44.4375 116.432C45.9895 116.432 46.5015 117.264 46.5015 119.008V124H48.0535V119.072C48.0535 116.64 47.3815 115.12 44.7735 115.12C43.2535 115.12 42.1335 115.76 41.1095 117.024C40.7575 115.856 39.6695 115.12 38.0535 115.12C36.5175 115.12 35.3815 115.808 34.5015 116.88V115.392ZM51.7158 115.392H50.1638V124H51.7158V115.392ZM51.7158 114.272V112.384H50.1638V114.272H51.7158ZM55.3771 115.392H53.8251V124H55.3771V119.632C55.3771 117.712 56.7371 116.432 58.5611 116.432C60.1131 116.432 60.6251 117.264 60.6251 119.008V124H62.1771V118.88C62.1771 116.624 61.5211 115.12 58.9131 115.12C57.3771 115.12 56.1771 115.824 55.3771 116.88V115.392ZM65.8414 115.392H64.2894V124H65.8414V115.392ZM65.8414 114.272V112.384H64.2894V114.272H65.8414ZM67.5668 119.84H73.1188V118.736H67.5668V119.84ZM78.9805 115.12C76.0205 115.12 74.1645 116.944 74.1645 119.712C74.1645 122.48 76.0205 124.24 78.9805 124.24C81.9405 124.24 83.7805 122.48 83.7805 119.712C83.7805 116.944 81.9405 115.12 78.9805 115.12ZM78.9805 116.56C80.9485 116.56 82.1325 117.728 82.1325 119.68C82.1325 121.632 80.9485 122.8 78.9805 122.8C77.0125 122.8 75.8125 121.632 75.8125 119.68C75.8125 117.728 77.0125 116.56 78.9805 116.56ZM89.6814 112.512C89.2174 112.416 88.7534 112.384 88.2414 112.384C86.6894 112.384 86.0174 113.024 86.0174 114.496V115.392H84.4974V116.704H86.0174V124H87.5694V116.704H89.6814V115.392H87.5694V114.816C87.5694 114.064 87.8414 113.824 88.6414 113.824C88.9454 113.824 89.2814 113.84 89.6814 113.92V112.512ZM95.6426 112.512C95.1786 112.416 94.7146 112.384 94.2026 112.384C92.6506 112.384 91.9786 113.024 91.9786 114.496V115.392H90.4586V116.704H91.9786V124H93.5306V116.704H95.6426V115.392H93.5306V114.816C93.5306 114.064 93.8026 113.824 94.6026 113.824C94.9066 113.824 95.2426 113.84 95.6426 113.92V112.512ZM98.4445 115.392H96.8925V124H98.4445V115.392ZM98.4445 114.272V112.384H96.8925V114.272H98.4445ZM108.938 118.256C108.57 116.336 106.938 115.12 104.666 115.12C101.882 115.12 99.9939 116.976 99.9939 119.712C99.9939 122.448 101.898 124.24 104.634 124.24C106.986 124.24 108.634 122.96 109.002 120.784H107.37C107.162 122.048 106.122 122.8 104.698 122.8C102.89 122.8 101.642 121.664 101.642 119.728C101.642 117.776 102.842 116.56 104.81 116.56C106.074 116.56 107.018 117.2 107.322 118.256H108.938ZM119.269 120.016V119.712C119.269 116.848 117.525 115.12 114.581 115.12C111.701 115.12 109.861 116.928 109.861 119.712C109.861 122.48 111.685 124.24 114.581 124.24C116.869 124.24 118.517 123.184 119.125 121.328H117.317C116.965 122.272 115.941 122.8 114.581 122.8C112.741 122.8 111.509 121.696 111.509 120.016H119.269ZM111.541 118.912C111.797 117.44 112.933 116.56 114.581 116.56C116.245 116.56 117.365 117.456 117.605 118.912H111.541ZM128.327 117.984C128.327 116.128 126.983 115.12 124.407 115.12C121.847 115.12 120.535 116.08 120.535 117.856C120.535 119.44 121.543 119.888 123.559 120.224L125.479 120.56C126.567 120.736 127.047 120.96 127.047 121.632C127.047 122.416 126.119 122.928 124.359 122.928C122.871 122.928 121.975 122.304 121.831 121.2H120.135C120.327 123.312 121.687 124.24 124.359 124.24C127.175 124.24 128.599 123.296 128.599 121.552C128.599 120 127.815 119.424 125.895 119.104L124.039 118.8C122.727 118.576 122.087 118.416 122.087 117.584C122.087 116.848 122.871 116.432 124.327 116.432C125.879 116.432 126.711 116.912 126.823 117.984H128.327ZM130.576 124H132.496V122.08H130.576V124Z" fill="#292929"></path> <path d="M21.632 59H27.656V52.376C27.656 50.888 28.76 50 30.512 50C32.216 50 32.72 50.768 32.72 52.664V59H38.744V51.512C38.744 47.24 37.04 45.224 33.008 45.224C30.992 45.224 29.288 45.752 27.656 46.88V41.432H21.632V59ZM40.49 52.256C40.49 56.768 43.85 59.456 49.994 59.456C56.138 59.456 59.474 56.768 59.474 52.256C59.474 47.744 56.138 45.056 49.994 45.056C43.85 45.056 40.49 47.744 40.49 52.256ZM46.85 52.256C46.85 50.384 48.098 49.208 49.97 49.208C51.842 49.208 53.09 50.384 53.09 52.256C53.09 54.128 51.842 55.304 49.97 55.304C48.098 55.304 46.85 54.128 46.85 52.256ZM60.3041 54.704C60.4481 58.088 63.3761 59.456 69.3521 59.456C76.0241 59.456 79.0961 58.136 79.0961 54.56C79.0961 52.616 78.2561 51.704 76.2641 51.008C75.4241 50.72 73.3841 50.552 70.1441 50.264C68.0081 50.072 67.0241 50.12 67.0241 49.208C67.0241 48.56 67.7201 48.272 69.1121 48.272C70.6961 48.272 71.4881 48.608 71.5601 49.568H78.5201C78.3281 46.424 75.4001 45.056 69.6161 45.056C63.5441 45.056 60.6401 46.352 60.6401 49.544C60.6401 51.128 61.3361 52.304 62.5361 52.832C64.0961 53.528 66.0881 53.72 68.5601 53.96C71.0081 54.2 72.1361 54.176 72.1361 55.112C72.1361 55.712 71.4161 56.024 70.0481 56.024C68.5121 56.024 67.7681 55.688 67.6721 54.704H60.3041ZM81.0592 63.368H87.0832V57.896C88.5712 58.88 90.1792 59.336 92.0992 59.336C96.7072 59.336 99.6112 56.552 99.6112 52.256C99.6112 47.96 96.7072 45.152 92.1952 45.152C90.0592 45.152 88.3072 45.68 86.8432 46.784L86.7952 45.488L81.0592 45.488V63.368ZM87.0832 52.256C87.0832 50.408 88.3552 49.256 90.1792 49.256C92.0272 49.256 93.2752 50.408 93.2752 52.256C93.2752 54.08 92.0272 55.232 90.1792 55.232C88.3552 55.232 87.0832 54.08 87.0832 52.256ZM101.821 44.384H107.845V40.952H101.821V44.384ZM101.821 59L107.845 59V45.488H101.821V59ZM119.851 58.976V55.256H118.987C117.523 55.256 117.523 54.512 117.523 52.4V49.616H119.683V45.824H117.523V41.408H111.427V45.824H109.291V49.616H111.427V54.896C111.427 56.84 111.667 58.04 113.275 58.688C114.235 59.072 115.435 59.24 116.875 59.24C117.859 59.24 118.843 59.144 119.851 58.976ZM133.766 57.152C133.79 57.824 133.91 58.448 134.15 59H140.414V58.712C139.934 58.352 139.814 57.8 139.814 56.912V51.704C139.814 49.328 139.502 47.816 137.966 46.616C136.718 45.656 134.318 45.152 130.742 45.152C124.67 45.152 121.742 46.256 121.478 49.712H127.694C127.862 48.656 128.846 48.368 130.79 48.368C132.542 48.368 133.478 48.896 133.478 49.592C133.478 50.696 131.51 50.408 127.286 50.696C124.382 50.888 122.318 51.032 121.07 52.592C120.614 53.168 120.35 54.008 120.35 55.016C120.35 57.968 122.558 59.432 126.974 59.432C130.022 59.432 132.134 58.856 133.766 57.152ZM133.742 52.712C133.766 52.832 133.766 52.928 133.766 53.048C133.766 54.776 132.11 55.976 129.398 55.976C127.982 55.976 127.19 55.472 127.19 54.632C127.19 53.792 127.886 53.552 129.494 53.408C131.102 53.264 132.518 53.312 133.742 52.712ZM142.659 59H148.827V41.432H142.659V59Z" fill="#052D1E"></path> </svg> 