<?xml version="1.0" encoding="UTF-8"?> <svg xmlns="http://www.w3.org/2000/svg" width="90" height="335" viewBox="0 0 90 335" fill="none"> <path d="M70 311.24L70 285.86L21.22 285.86L21.22 262.19L4.66 262.19L4.66 334.82L21.22 334.82L21.22 311.24L70 311.24ZM54.61 194.319L54.61 218.889C57.13 220.419 58.57 224.109 58.57 229.689C58.57 238.149 55.33 242.829 49.93 242.829L49.93 193.869L49.03 193.869C28.51 193.869 17.71 206.559 17.71 231.039C17.71 254.349 27.79 267.039 44.71 267.039C61.63 267.039 71.71 254.349 71.71 231.039C71.71 210.069 65.68 197.649 54.61 194.319ZM39.13 243.999C33.37 242.829 30.31 237.789 30.31 229.779C30.31 222.309 33.55 217.719 39.13 217.089L39.13 243.999ZM63.07 141.031C65.59 140.941 67.93 140.491 70 139.591L70 116.101L68.92 116.101C67.57 117.901 65.5 118.351 62.17 118.351L42.64 118.351C33.73 118.351 28.06 119.521 23.56 125.281C19.96 129.961 18.07 138.961 18.07 152.371C18.07 175.141 22.21 186.121 35.17 187.111L35.17 163.801C31.21 163.171 30.13 159.481 30.13 152.191C30.13 145.621 32.11 142.111 34.72 142.111C38.86 142.111 37.78 149.491 38.86 165.331C39.58 176.221 40.12 183.961 45.97 188.641C48.13 190.351 51.28 191.341 55.06 191.341C66.13 191.341 71.62 183.061 71.62 166.501C71.62 155.071 69.46 147.151 63.07 141.031ZM46.42 141.121C46.87 141.031 47.23 141.031 47.68 141.031C54.16 141.031 58.66 147.241 58.66 157.411C58.66 162.721 56.77 165.691 53.62 165.691C50.47 165.691 49.57 163.081 49.03 157.051C48.49 151.021 48.67 145.711 46.42 141.121ZM70 108.493L70 86.0832L45.25 86.0832C39.67 86.0832 36.34 82.2132 36.34 75.9132C36.34 69.8832 39.31 68.1732 46.24 68.1732L70 68.1732L70 46.1232L45.25 46.1232C39.67 46.1232 36.34 42.3432 36.34 36.0432C36.34 29.9232 39.31 28.2132 46.24 28.2132L70 28.2132L70 5.89319L42.01 5.89319C25.99 5.89319 18.43 11.9232 18.43 26.5932C18.43 35.5932 21.31 42.6132 27.52 49.2732C21.13 53.2332 18.43 58.5432 18.43 66.6432C18.43 73.9332 20.41 80.0532 24.64 86.0832L19.42 86.0832L19.42 108.493L70 108.493Z" fill="#052D1E"></path> <rect x="87" width="3" height="335" fill="#052D1E"></rect> </svg> 