<?xml version="1.0" encoding="UTF-8"?> <svg xmlns="http://www.w3.org/2000/svg" width="90" height="374" viewBox="0 0 90 374" fill="none"> <path d="M70 345.16L70 318.7L4.66 288.73L4.66 316.99L48.4 331.57L4.66 345.43L4.66 373.96L70 345.16ZM15.19 287.166L15.19 264.576L2.31999 264.576L2.31999 287.166L15.19 287.166ZM70 287.166L70 264.576L19.33 264.576L19.33 287.166L70 287.166ZM53.89 257.444C66.58 256.904 71.71 245.924 71.71 223.514C71.71 198.494 66.76 186.974 53.35 186.974C46.06 186.974 42.64 190.124 40.03 197.594C38.95 200.744 38.32 208.394 37.24 220.544C36.52 228.554 36.7 232.244 33.28 232.244C30.85 232.244 29.77 229.634 29.77 224.414C29.77 218.474 31.03 215.504 34.63 215.234L34.63 189.134C22.84 189.854 17.71 200.834 17.71 222.524C17.71 245.294 22.57 256.184 34.54 256.184C40.48 256.184 44.89 253.574 46.87 249.074C49.48 243.224 50.2 235.754 51.1 226.484C52 217.304 51.91 213.074 55.42 213.074C57.67 213.074 58.84 215.774 58.84 220.904C58.84 226.664 57.58 229.454 53.89 229.814L53.89 257.444ZM15.19 178.442L15.19 155.852L2.31999 155.852L2.31999 178.442L15.19 178.442ZM70 178.442L70 155.852L19.33 155.852L19.33 178.442L70 178.442ZM44.71 148.27C61.63 148.27 71.71 135.67 71.71 112.63C71.71 89.5895 61.63 77.0795 44.71 77.0795C27.79 77.0795 17.71 89.5895 17.71 112.63C17.71 135.67 27.79 148.27 44.71 148.27ZM44.71 124.42C37.69 124.42 33.28 119.74 33.28 112.72C33.28 105.7 37.69 101.02 44.71 101.02C51.73 101.02 56.14 105.7 56.14 112.72C56.14 119.74 51.73 124.42 44.71 124.42ZM70 70.2768L70 47.6868L45.25 47.6868C39.67 47.6868 36.34 43.5468 36.34 36.9768C36.34 30.5868 39.22 28.7868 46.24 28.7868L70 28.7868L70 6.19679L42.01 6.19679C25.99 6.19679 18.43 12.4968 18.43 27.6168C18.43 35.1768 20.41 41.5668 24.64 47.6868L19.42 47.6868L19.42 70.2768L70 70.2768Z" fill="#052D1E"></path> <rect x="87" width="3" height="370" fill="#052D1E"></rect> </svg> 