<?xml version="1.0" encoding="UTF-8"?> <svg xmlns="http://www.w3.org/2000/svg" width="48" height="48" viewBox="0 0 48 48" fill="none"> <circle cx="24" cy="24" r="24" fill="white"></circle> <path d="M23.9993 10.6665C16.4793 10.6665 10.666 16.1732 10.666 23.5998C10.666 27.4798 12.2527 30.8532 14.8527 33.1598C15.066 33.3332 15.1993 33.6265 15.2127 33.9198L15.2793 36.2932C15.3327 37.0532 16.0927 37.5465 16.786 37.2398L19.426 36.0798C19.6527 35.9998 19.906 35.9598 20.1327 35.9998C21.3327 36.3598 22.666 36.5332 23.9993 36.5332C31.5193 36.5332 37.3327 31.0265 37.3327 23.5998C37.3327 16.1732 31.5193 10.6665 23.9993 10.6665ZM31.9993 20.6132L28.0927 26.8398C27.466 27.8132 26.1327 28.0665 25.1993 27.3332L22.0793 25.0265C21.7993 24.8132 21.3993 24.8132 21.1193 25.0265L16.906 28.2265C16.346 28.6665 15.6127 27.9998 15.9993 27.3865L19.906 21.1598C20.5327 20.1865 21.866 19.9332 22.7993 20.6265L25.9193 22.9732C26.2127 23.1865 26.5993 23.1865 26.8793 22.9732L31.0927 19.7732C31.6527 19.3332 32.386 19.9998 31.9993 20.6132Z" fill="url(#paint0_linear)"></path> <defs> <linearGradient id="paint0_linear" x1="23.9993" y1="10.6665" x2="23.9993" y2="37.3322" gradientUnits="userSpaceOnUse"> <stop stop-color="#00C6FF"></stop> <stop offset="1" stop-color="#086DFF"></stop> </linearGradient> </defs> </svg> 