<?xml version="1.0" encoding="UTF-8"?> <svg xmlns="http://www.w3.org/2000/svg" width="333" height="164" viewBox="0 0 333 164" fill="none"> <rect width="333" height="164" fill="white"></rect> <path d="M20.768 95.84H28.944V94.736H20.768V95.84ZM37.1265 91.392H35.5745V100H37.1265V96.896L38.7265 95.616L42.1665 100H44.2625L39.8785 94.672L43.9585 91.392H41.6545L37.1265 95.152V91.392ZM49.323 91.12C46.363 91.12 44.507 92.944 44.507 95.712C44.507 98.48 46.363 100.24 49.323 100.24C52.283 100.24 54.123 98.48 54.123 95.712C54.123 92.944 52.283 91.12 49.323 91.12ZM49.323 92.56C51.291 92.56 52.475 93.728 52.475 95.68C52.475 97.632 51.291 98.8 49.323 98.8C47.355 98.8 46.155 97.632 46.155 95.68C46.155 93.728 47.355 92.56 49.323 92.56ZM55.1599 95.84H60.7119V94.736H55.1599V95.84ZM62.3176 100H67.0216C69.0696 100 70.3976 99.216 70.3976 97.6C70.3976 96.528 69.8056 95.744 68.7016 95.44C69.2296 95.168 69.8696 94.576 69.8696 93.6C69.8696 92.256 68.8616 91.392 67.0216 91.392H62.3176V100ZM63.8696 96.128H66.9576C68.2536 96.128 68.8456 96.512 68.8456 97.408C68.8456 98.288 68.3016 98.688 67.1176 98.688H63.8696V96.128ZM63.8696 92.704H66.8456C68.0296 92.704 68.3976 93.024 68.3976 93.824C68.3976 94.624 67.8536 94.928 66.8296 94.928H63.8696V92.704ZM76.3318 91.12C73.3718 91.12 71.5158 92.944 71.5158 95.712C71.5158 98.48 73.3718 100.24 76.3318 100.24C79.2918 100.24 81.1318 98.48 81.1318 95.712C81.1318 92.944 79.2918 91.12 76.3318 91.12ZM76.3318 92.56C78.2998 92.56 79.4838 93.728 79.4838 95.68C79.4838 97.632 78.2998 98.8 76.3318 98.8C74.3638 98.8 73.1638 97.632 73.1638 95.68C73.1638 93.728 74.3638 92.56 76.3318 92.56ZM84.1046 91.392H82.5526V103.056H84.1046V98.736C84.9846 99.744 86.0406 100.24 87.4166 100.24C90.1526 100.24 92.0406 98.384 92.0406 95.712C92.0406 93.024 90.1526 91.12 87.4326 91.12C85.9766 91.12 84.8246 91.728 84.1046 92.688V91.392ZM87.2566 92.56C89.2086 92.56 90.3926 93.776 90.3926 95.712C90.3926 97.632 89.2086 98.8 87.2566 98.8C85.3046 98.8 84.1046 97.616 84.1046 95.712C84.1046 93.792 85.3046 92.56 87.2566 92.56ZM95.019 91.392H93.467V100H95.019V96.896L96.619 95.616L100.059 100H102.155L97.771 94.672L101.851 91.392H99.547L95.019 95.152V91.392ZM104.64 91.392H103.088V100H104.64V91.392ZM104.64 90.272V88.384H103.088V90.272H104.64ZM108.301 91.392H106.749V100H108.301V96.144H113.549V100H115.101V91.392H113.549V94.832H108.301V91.392ZM117.085 91.392V100H118.637V92.704H124.221V91.392H117.085ZM125.65 100H126.594V100.24C126.594 100.96 126.322 101.36 125.65 101.616V102.672C127.106 102.144 127.57 101.424 127.57 100V98.08H125.65V100ZM125.65 93.344H127.57V91.424H125.65V93.344ZM20.768 119.84H28.944V118.736H20.768V119.84ZM35.5745 115.392V124H37.0625V118.304L36.9505 116.672L40.1505 123.76H41.5265L44.6625 116.672L44.5505 118.304V124H46.0385V115.392H43.8465L40.8065 122.16L37.7665 115.392H35.5745ZM49.7001 115.392H48.1481V124H49.7001V115.392ZM49.7001 114.272V112.384H48.1481V114.272H49.7001ZM53.3615 115.392H51.8095V124H53.3615V120.144H58.6095V124H60.1615V115.392H58.6095V118.832H53.3615V115.392ZM63.8258 115.392H62.2738V124H63.8258V115.392ZM63.8258 114.272V112.384H62.2738V114.272H63.8258ZM65.5511 119.84H71.1031V118.736H65.5511V119.84ZM76.9649 115.12C74.0049 115.12 72.1489 116.944 72.1489 119.712C72.1489 122.48 74.0049 124.24 76.9649 124.24C79.9249 124.24 81.7649 122.48 81.7649 119.712C81.7649 116.944 79.9249 115.12 76.9649 115.12ZM76.9649 116.56C78.9329 116.56 80.1169 117.728 80.1169 119.68C80.1169 121.632 78.9329 122.8 76.9649 122.8C74.9969 122.8 73.7969 121.632 73.7969 119.68C73.7969 117.728 74.9969 116.56 76.9649 116.56ZM89.6497 112.384V116.576C88.9297 115.744 87.9857 115.12 86.8177 115.12C84.2897 115.12 82.6257 117.088 82.6257 119.68C82.6257 122.688 84.5457 124.24 86.8177 124.24C87.9537 124.24 89.0257 123.568 89.6497 122.704V127.264H91.2017V122.704C91.8257 123.568 92.8977 124.24 94.0337 124.24C96.3537 124.24 98.2257 122.72 98.2257 119.696C98.2257 117.12 96.5617 115.12 94.0337 115.12C92.8657 115.12 91.9217 115.744 91.2017 116.576V112.384H89.6497ZM93.9857 116.56C95.7457 116.56 96.5777 117.728 96.5777 119.696C96.5777 121.68 95.7617 122.8 93.9857 122.8C92.6577 122.8 91.2017 121.84 91.2017 119.68C91.2017 117.68 92.3697 116.56 93.9857 116.56ZM86.8657 116.56C88.4817 116.56 89.6497 117.68 89.6497 119.68C89.6497 121.84 88.1937 122.8 86.8657 122.8C85.0897 122.8 84.2737 121.68 84.2737 119.696C84.2737 117.728 85.1057 116.56 86.8657 116.56ZM101.327 115.392H99.775V124H101.327V115.392ZM101.327 114.272V112.384H99.775V114.272H101.327ZM111.82 118.256C111.452 116.336 109.82 115.12 107.548 115.12C104.764 115.12 102.876 116.976 102.876 119.712C102.876 122.448 104.78 124.24 107.516 124.24C109.868 124.24 111.516 122.96 111.884 120.784H110.252C110.044 122.048 109.004 122.8 107.58 122.8C105.772 122.8 104.524 121.664 104.524 119.728C104.524 117.776 105.724 116.56 107.692 116.56C108.956 116.56 109.9 117.2 110.204 118.256H111.82ZM114.856 115.392H113.304V124H115.016L120.28 117.312V124H121.832V115.392H120.104L114.856 122.096V115.392ZM124.372 124H126.292V122.08H124.372V124Z" fill="#292929"></path> <path d="M21.584 59H27.608V49.784H32.648V59H38.672V45.512H21.584V59ZM40.4431 52.256C40.4431 56.768 43.8031 59.456 49.9471 59.456C56.0911 59.456 59.4271 56.768 59.4271 52.256C59.4271 47.744 56.0911 45.056 49.9471 45.056C43.8031 45.056 40.4431 47.744 40.4431 52.256ZM46.8031 52.256C46.8031 50.384 48.0511 49.208 49.9231 49.208C51.7951 49.208 53.0431 50.384 53.0431 52.256C53.0431 54.128 51.7951 55.304 49.9231 55.304C48.0511 55.304 46.8031 54.128 46.8031 52.256ZM62.4892 45.512V51.296C62.4892 54.656 62.1772 55.496 60.8332 55.496C60.4732 55.496 60.0652 55.472 59.6572 55.4V58.928C60.6412 59.216 61.3852 59.24 62.8732 59.24C64.7452 59.24 66.1612 58.76 67.0732 57.776C67.8652 56.936 68.5612 55.616 68.5612 53.912V49.736H72.7372V59H78.7612V45.512H62.4892ZM81.6256 44.384L87.7936 44.384V40.952H81.6256V44.384ZM81.6256 59H87.7936V45.488L81.6256 45.488V59ZM90.6796 59.024H96.7036V55.976L99.3676 53.792L102.584 59L109.784 59L103.856 50.24L109.16 45.584H101.12L96.7036 49.88V45.584H90.6796V59.024ZM111.885 45.512V51.296C111.885 54.656 111.573 55.496 110.229 55.496C109.869 55.496 109.461 55.472 109.053 55.4V58.928C110.037 59.216 110.781 59.24 112.269 59.24C114.141 59.24 115.557 58.76 116.469 57.776C117.261 56.936 117.957 55.616 117.957 53.912V49.736H122.133V59H128.157V45.512H111.885ZM131.022 44.384H137.19V40.952H131.022V44.384ZM131.022 59H137.19V45.488H131.022V59ZM140.076 59H146.1V54.392H151.14V59H157.164V45.512H151.14V50.12H146.1V45.512H140.076V59ZM160.015 44.384H166.183V40.952H160.015V44.384ZM160.015 59L166.183 59V45.488H160.015V59ZM169.069 59.024H175.093V55.976L177.757 53.792L180.973 59H188.173L182.245 50.24L187.549 45.584L179.509 45.584L175.093 49.88V45.584H169.069V59.024ZM201.338 57.152C201.362 57.824 201.482 58.448 201.722 59H207.986V58.712C207.506 58.352 207.386 57.8 207.386 56.912V51.704C207.386 49.328 207.074 47.816 205.538 46.616C204.29 45.656 201.89 45.152 198.314 45.152C192.242 45.152 189.314 46.256 189.05 49.712H195.266C195.434 48.656 196.418 48.368 198.362 48.368C200.114 48.368 201.05 48.896 201.05 49.592C201.05 50.696 199.082 50.408 194.858 50.696C191.954 50.888 189.89 51.032 188.642 52.592C188.186 53.168 187.922 54.008 187.922 55.016C187.922 57.968 190.13 59.432 194.546 59.432C197.594 59.432 199.706 58.856 201.338 57.152ZM201.314 52.712C201.338 52.832 201.338 52.928 201.338 53.048C201.338 54.776 199.682 55.976 196.97 55.976C195.554 55.976 194.762 55.472 194.762 54.632C194.762 53.792 195.458 53.552 197.066 53.408C198.674 53.264 200.09 53.312 201.314 52.712Z" fill="#052D1E"></path> </svg> 