<?xml version="1.0" encoding="UTF-8"?> <svg xmlns="http://www.w3.org/2000/svg" width="90" height="583" viewBox="0 0 90 583" fill="none"> <path d="M70 575.8L70 550.51L52.45 550.51L43.45 539.44L70 521.8L70 490.39L28.24 520.27L4.66 493.09L4.66 527.29L27.25 550.51L4.66 550.51L4.66 575.8L70 575.8ZM44.71 493.682C61.63 493.682 71.71 481.082 71.71 458.042C71.71 435.002 61.63 422.492 44.71 422.492C27.79 422.492 17.71 435.002 17.71 458.042C17.71 481.082 27.79 493.682 44.71 493.682ZM44.71 469.832C37.69 469.832 33.28 465.152 33.28 458.132C33.28 451.112 37.69 446.432 44.71 446.432C51.73 446.432 56.14 451.112 56.14 458.132C56.14 465.152 51.73 469.832 44.71 469.832ZM70 415.689L70 393.099L52.72 393.099L52.72 374.199L70 374.199L70 351.609L19.42 351.609L19.42 374.199L36.7 374.199L36.7 393.099L19.42 393.099L19.42 415.689L70 415.689ZM70 328.228L70 305.548L35.44 305.548L35.44 286.648L19.42 286.648L19.42 347.128L35.44 347.128L35.44 328.228L70 328.228ZM63.07 235.922C65.59 235.832 67.93 235.382 70 234.482L70 210.992L68.92 210.992C67.57 212.792 65.5 213.242 62.17 213.242L42.64 213.242C33.73 213.242 28.06 214.412 23.56 220.172C19.96 224.852 18.07 233.852 18.07 247.262C18.07 270.032 22.21 281.012 35.17 282.002L35.17 258.692C31.21 258.062 30.13 254.372 30.13 247.082C30.13 240.512 32.11 237.002 34.72 237.002C38.86 237.002 37.78 244.382 38.86 260.222C39.58 271.112 40.12 278.852 45.97 283.532C48.13 285.242 51.28 286.232 55.06 286.232C66.13 286.232 71.62 277.952 71.62 261.392C71.62 249.962 69.46 242.042 63.07 235.922ZM46.42 236.012C46.87 235.922 47.23 235.922 47.68 235.922C54.16 235.922 58.66 242.132 58.66 252.302C58.66 257.612 56.77 260.582 53.62 260.582C50.47 260.582 49.57 257.972 49.03 251.942C48.49 245.912 48.67 240.602 46.42 236.012ZM70.09 203.384L70.09 180.794L58.66 180.794L50.47 170.804L70 158.744L70 131.744L37.15 153.974L19.69 134.084L19.69 164.234L35.8 180.794L19.69 180.794L19.69 203.384L70.09 203.384ZM70 115.044L70 92.3636L35.44 92.3636L35.44 73.4636L19.42 73.4636L19.42 133.944L35.44 133.944L35.44 115.044L70 115.044ZM70 70.708L70 44.968L40.57 24.718L54.43 25.7081L70 25.708L70 3.11805L19.42 3.11805L19.42 29.1281L47.05 48.8381L34.99 48.118L19.42 48.1181L19.42 70.7081L70 70.708Z" fill="#052D1E"></path> <rect x="87" y="2" width="3" height="575" fill="#052D1E"></rect> </svg> 