<?xml version="1.0" encoding="UTF-8"?> <svg xmlns="http://www.w3.org/2000/svg" width="183" height="95" viewBox="0 0 183 95" fill="none"> <g clip-path="url(#clip0)"> <path d="M8.59961 68.3001C3.09961 70.1001 0.0996094 68.8001 0.0996094 64.8001C0.0996094 60.9001 3.09961 57.5001 8.59961 55.7001C13.6996 54.0001 16.4996 54.8001 16.9996 58.0001L11.2996 59.9001C10.8996 59.0001 9.99961 58.7001 8.69961 59.1001C6.79961 59.7001 5.59961 61.2001 5.59961 62.9001C5.59961 64.6001 6.79961 65.3001 8.49961 64.7001C9.99961 64.2001 11.0996 63.1001 11.2996 61.7001L16.9996 59.8001C16.7996 63.8001 13.8996 66.6001 8.59961 68.3001Z" fill="#292929"></path> <path d="M26.9 49.7999C32.3 47.9999 35.3 49.3999 35.3 53.2999C35.3 57.1999 32.4 60.4999 26.9 62.2999C21.5 64.0999 18.5 62.6999 18.5 58.7999C18.5 54.8999 21.4 51.5999 26.9 49.7999ZM26.9 58.6999C28.6 58.1999 29.7 56.7999 29.7 55.0999C29.7 53.4999 28.6 52.7999 26.9 53.2999C25.2 53.7999 24.1 55.1999 24.1 56.8999C24.1 58.5999 25.2 59.2999 26.9 58.6999Z" fill="#292929"></path> <path d="M37.2988 46.8L42.5988 45.1V46.3C43.9988 44.9 45.4988 43.9 47.1988 43.4C49.0988 42.8 50.3988 43 51.2988 44.2C52.8988 42.2 54.4988 41 56.5988 40.3C60.0988 39.2 61.4988 40.5 61.4988 44.2V50.7L56.1988 52.4V46.9C56.1988 45.3 55.7988 44.7 54.3988 45.2C52.8988 45.6 51.9988 46.7 51.9988 48V53.8L46.7988 55.5V50C46.7988 48.4 46.3988 47.8 44.9988 48.3C43.4988 48.8 42.5988 49.9 42.5988 51.2V57L37.2988 58.7V46.8V46.8Z" fill="#292929"></path> <path d="M64.1992 37.9L69.2992 36.2V37.3C70.5992 35.9 72.0992 34.9 73.9992 34.3C77.9992 33 80.5992 34.6 80.5992 38.3C80.5992 42 77.9992 45.3 73.9992 46.6C72.2992 47.2 70.8992 47.2 69.5992 46.8V51.6L64.2992 53.3V37.9H64.1992ZM72.2992 43.8C73.8992 43.3 74.9992 41.9 74.9992 40.3C74.9992 38.7 73.8992 38 72.2992 38.6C70.6992 39.1 69.5992 40.5 69.5992 42.1C69.5992 43.7 70.6992 44.3 72.2992 43.8Z" fill="#292929"></path> <path d="M82.7988 31.9L88.0988 30.2L88.1988 31.1C88.9988 30.1 89.9988 29.3 91.4988 28.8C94.2988 27.9 95.4988 28.9 95.4988 32.1V33.1L90.7988 34.6V34.5C90.7988 33.3 90.3988 32.9 89.4988 33.1C88.4988 33.4 88.1988 34.3 88.1988 35.7V41.8L82.7988 43.6V31.9V31.9Z" fill="#292929"></path> <path d="M105 36.7C99.5 38.5 96.5 37.1 96.5 33.2C96.5 29.3 99.5 25.9 105 24.1C110.8 22.2 113.8 23.7 113.8 28.5V28.7L102.3 32.5C102.3 33.8 103.4 34.1 105.4 33.5C106.7 33.1 107.6 32.5 107.9 31.7L113.7 29.8C112.9 32.8 109.9 35.1 105 36.7ZM108.3 28.1C108.2 26.9 107.1 26.5 105.3 27C103.4 27.6 102.2 28.7 102 30.1L108.3 28.1Z" fill="#292929"></path> <path d="M121.4 27.2C121.5 28 122.1 28.1 123.5 27.7C124.7 27.3 125.3 26.8 125.3 26.3C125.3 25.5 124.3 25.8 122.1 26.3C119.9 26.8 118.2 27.2 116.8 27.1C115.7 27 115.1 26.2 115.1 24.8C115.1 22 117.7 20 123 18.3C128.1 16.6 130.7 17 130.9 19.7L124.8 21.7C124.7 20.9 124 20.8 122.6 21.3C121.4 21.7 120.8 22.2 120.8 22.7C120.8 23.5 121.7 23.2 123.6 22.7C126.5 22 128.3 21.6 129 21.6C130.8 21.6 131.5 22.2 131.5 23.9C131.5 27 128.8 29.1 122.9 31C117.6 32.7 115 32.4 114.9 29.5L121.4 27.2Z" fill="#292929"></path> <path d="M139.199 21.4C139.299 22.2 139.899 22.3 141.299 21.9C142.499 21.5 143.099 21 143.099 20.5C143.099 19.7 142.099 20 139.899 20.5C137.699 21 135.999 21.4 134.599 21.3C133.499 21.2 132.899 20.4 132.899 19C132.899 16.2 135.499 14.2 140.799 12.5C145.899 10.8 148.499 11.2 148.699 13.9L142.599 15.9C142.499 15.1 141.799 15 140.399 15.5C139.199 15.9 138.599 16.4 138.599 16.9C138.599 17.7 139.499 17.4 141.399 16.9C144.299 16.2 146.099 15.8 146.799 15.8C148.599 15.8 149.299 16.4 149.299 18.1C149.299 21.2 146.599 23.3 140.699 25.2C135.399 26.9 132.799 26.6 132.699 23.7L139.199 21.4Z" fill="#292929"></path> <path d="M159.099 6.50008C164.499 4.70008 167.499 6.10008 167.499 10.0001C167.499 13.9001 164.599 17.2001 159.099 19.0001C153.699 20.8001 150.699 19.4001 150.699 15.5001C150.699 11.6001 153.599 8.30008 159.099 6.50008ZM158.999 15.4001C160.699 14.9001 161.799 13.5001 161.799 11.8001C161.799 10.2001 160.699 9.50008 158.999 10.0001C157.299 10.5001 156.199 11.9001 156.199 13.6001C156.299 15.3001 157.399 16.0001 158.999 15.4001Z" fill="#292929"></path> <path d="M169.5 3.39999L174.8 1.69999L174.9 2.59999C175.7 1.59999 176.7 0.79999 178.2 0.29999C181 -0.60001 182.2 0.39999 182.2 3.59999V4.59999L177.5 6.09999C177.5 4.89999 177.1 4.49999 176.2 4.69999C175.2 4.99999 174.9 5.89999 174.9 7.29999V13.4L169.5 15.2V3.39999Z" fill="#292929"></path> <path d="M6.49961 90C6.59961 90.8 7.19961 90.9 8.59961 90.5C9.79961 90.1 10.3996 89.6 10.3996 89.1C10.3996 88.3 9.39961 88.6 7.19961 89.1C5.09961 89.6 3.29961 90 1.99961 89.8C0.899609 89.7 0.299609 88.9 0.299609 87.5C0.299609 84.7 2.89961 82.7 8.19961 81C13.2996 79.3 15.8996 79.7 16.0996 82.4L9.99961 84.4C9.89961 83.6 9.19961 83.5 7.79961 84C6.59961 84.4 5.99961 84.9 5.99961 85.4C5.99961 86.2 6.89961 85.9 8.79961 85.4C11.6996 84.7 13.4996 84.3 14.1996 84.3C15.9996 84.3 16.6996 84.9 16.6996 86.6C16.6996 89.7 13.9996 91.8 8.09961 93.7C2.79961 95.4 0.199609 95.1 0.0996094 92.2L6.49961 90Z" fill="#292929"></path> <path d="M24.1004 88.1C22.8004 88.5 21.8004 88.7 20.9004 88.7C19.5004 88.6 19.3004 87.6 19.3004 85.9V81.3L17.4004 82V78.7L19.3004 78.1V74.3L24.7004 72.5V76.3L26.6004 75.7V79L24.7004 79.6V82C24.7004 83.8 24.7004 84.5 26.0004 84.1L26.8004 83.8V87C25.9004 87.5 25.0004 87.9 24.1004 88.1Z" fill="#292929"></path> <path d="M33.4996 85.3001C29.5996 86.6001 27.5996 85.9001 27.5996 83.4001C27.5996 82.5001 27.7996 81.7001 28.1996 81.1001C29.2996 79.4001 31.0996 78.7001 33.6996 77.6001C37.3996 76.1001 39.1996 75.8001 39.1996 74.8001C39.1996 74.2001 38.3996 74.0001 36.7996 74.5001C35.0996 75.1001 34.1996 75.6001 34.0996 76.6001L28.5996 78.4001C28.7996 75.3001 31.3996 73.5001 36.7996 71.7001C39.9996 70.7001 42.0996 70.4001 43.1996 70.9001C44.5996 71.5001 44.7996 72.7001 44.7996 74.8001V79.3001C44.7996 80.1001 44.8996 80.5001 45.2996 80.7001V81.0001L39.7996 82.8001C39.5996 82.4001 39.4996 81.9001 39.4996 81.3001C37.9996 83.3001 36.1996 84.4001 33.4996 85.3001ZM35.6996 79.3001C34.2996 79.9001 33.6996 80.3001 33.6996 81.0001C33.6996 81.7001 34.3996 81.9001 35.6996 81.5001C38.0996 80.7001 39.5996 79.2001 39.5996 77.7001C39.5996 77.6001 39.5996 77.5001 39.5996 77.4001C38.3996 78.3001 37.0996 78.7001 35.6996 79.3001Z" fill="#292929"></path> <path d="M52.9988 78.7C51.6988 79.1 50.6988 79.3 49.7988 79.3C48.3988 79.2 48.1988 78.2 48.1988 76.5V71.9L46.2988 72.5V69.2L48.1988 68.6V64.8L53.5988 63V66.8L55.4988 66.2V69.5L53.5988 70.1V72.5C53.5988 74.3 53.5988 75 54.8988 74.6L55.6988 74.3V77.5C54.6988 78 53.8988 78.4 52.9988 78.7Z" fill="#292929"></path> <path d="M57.7988 61.2L63.0988 59.5V62.5L57.7988 64.2V61.2ZM57.7988 65.1L63.0988 63.4V75.2L57.7988 76.9V65.1Z" fill="#292929"></path> <path d="M73.6988 59.5001C79.0988 57.7001 82.0988 59.1001 82.0988 63.0001C82.0988 66.9001 79.1988 70.2001 73.6988 72.0001C68.2988 73.8001 65.2988 72.4001 65.2988 68.5001C65.2988 64.6001 68.2988 61.3001 73.6988 59.5001ZM73.6988 68.5001C75.3988 68.0001 76.4988 66.6001 76.4988 64.9001C76.4988 63.3001 75.3988 62.6001 73.6988 63.1001C71.9988 63.6001 70.8988 65.0001 70.8988 66.7001C70.8988 68.4001 71.9988 69.0001 73.6988 68.5001Z" fill="#292929"></path> <path d="M84.0996 56.5L89.3996 54.8V56C90.7996 54.5 92.2996 53.6 94.0996 53C97.6996 51.8 99.0996 53.1 99.0996 56.8V63.3L93.7996 65V59.5C93.7996 57.9 93.3996 57.3 91.8996 57.8C90.3996 58.3 89.3996 59.4 89.3996 60.7V66.5L84.0996 68.2V56.5Z" fill="#292929"></path> </g> <defs> <clipPath id="clip0"> <rect width="182.2" height="94.7" fill="white"></rect> </clipPath> </defs> </svg> 