<?xml version="1.0" encoding="UTF-8"?> <svg xmlns="http://www.w3.org/2000/svg" width="40" height="40" viewBox="0 0 40 40" fill="none"> <circle cx="20" cy="20" r="20" fill="#FFE600"></circle> <path d="M8.46163 22.36C8.62963 26.752 11.9656 28.408 19.0696 28.408C26.1976 28.408 29.8456 26.176 29.8456 22.144C29.8456 18.376 26.5576 16.312 20.1736 16.312C18.2536 16.312 16.5256 16.504 14.9656 16.984L15.3016 15.112H28.8376V11.008L10.9576 11.008L9.25363 20.632H15.9256C16.9096 20.248 17.9416 20.08 19.0696 20.08C21.5896 20.08 22.8136 20.728 22.8136 22.048C22.8136 23.32 21.6376 23.968 19.2616 23.968C16.9336 23.968 15.6856 23.464 15.5656 22.36H8.46163Z" fill="#052D1E"></path> </svg> 