<?xml version="1.0" encoding="UTF-8"?> <svg xmlns="http://www.w3.org/2000/svg" width="97" height="32" viewBox="0 0 97 32" fill="none"> <path d="M0 0L4.4 0.800003V5.3C5.6 4.6 6.9 4.30001 8.3 4.60001C11.3 5.10001 12.5 7.00001 12.5 10.6V16.8L8.1 16V10.7C8.1 9.1 7.7 8.4 6.5 8.2C5.2 8 4.4 8.6 4.4 9.8V15.3L0 14.5V0Z" fill="#292929"></path> <path d="M21.2 6.7C25.7 7.5 28.2 10.1 28.2 13.9C28.2 17.7 25.7 19.5 21.2 18.7C16.7 17.9 14.2 15.3 14.2 11.5C14.2 7.7 16.7 5.9 21.2 6.7ZM21.2 15.2C22.6 15.4 23.5 14.6 23.5 13.1C23.5 11.5 22.6 10.4 21.2 10.2C19.8 10 18.9 10.8 18.9 12.3C18.9 13.8 19.8 15 21.2 15.2Z" fill="#292929"></path> <path d="M34.6001 17.1C34.7001 17.9 35.2001 18.3 36.4001 18.5C37.4001 18.7 37.9001 18.5 37.9001 18C37.9001 17.2 37.1 17.1 35.3 16.6C33.5 16.1 32.0001 15.7 30.9001 14.9C30.0001 14.3 29.5001 13.2 29.5001 11.9C29.5001 9.2 31.6001 8.50001 36.1001 9.30001C40.4001 10 42.5001 11.5 42.7001 14.2L37.6001 13.3C37.5001 12.5 37 12.1 35.8 11.9C34.8 11.7 34.3 11.9 34.3 12.4C34.3 13.2 35.0001 13.2 36.6001 13.7C39.0001 14.4 40.5001 14.8 41.1001 15.1C42.6001 15.9 43.2001 16.8 43.2001 18.4C43.2001 21.4 40.9001 22.1 36.0001 21.2C31.6001 20.4 29.4 18.9 29.3 16.1L34.6001 17.1Z" fill="#292929"></path> <path d="M44.8 11.1L49.0001 11.8V12.9C50.1001 12.2 51.4001 11.9 52.9001 12.2C56.2001 12.8 58.4001 15.5 58.4001 19.1C58.4001 22.7 56.3001 24.6 52.9001 24C51.5001 23.8 50.3001 23.2 49.2001 22.2V26.8L44.8 26V11.1ZM51.6001 20.4C53.0001 20.6 53.9001 19.8 53.9001 18.3C53.9001 16.8 53.0001 15.6 51.6001 15.4C50.3001 15.2 49.3 16 49.3 17.5C49.3 19.1 50.2001 20.2 51.6001 20.4Z" fill="#292929"></path> <path d="M60.5 10.1L64.9 10.9V13.8L60.5 13V10.1ZM60.5 13.8L64.9 14.6V25.9L60.5 25.1V13.8Z" fill="#292929"></path> <path d="M72.0001 27.3C70.9001 27.1 70.1 26.8 69.3 26.4C68.1 25.7 67.9001 24.6 67.9001 23V18.6L66.3 18.3V15.1L67.9001 15.4V11.7L72.4001 12.5V16.2L74.0001 16.5V19.7L72.4001 19.4V21.7C72.4001 23.5 72.4001 24.1 73.5001 24.3L74.1001 24.4V27.5C73.4001 27.4 72.7001 27.4 72.0001 27.3Z" fill="#292929"></path> <path d="M79.7999 28.8C76.4999 28.2 74.8999 26.7 74.8999 24.3C74.8999 23.5 75.0999 22.8 75.3999 22.4C76.2999 21.3 77.7999 21.4 79.9999 21.6C83.0999 21.9 84.5999 22.4 84.5999 21.5C84.5999 20.9 83.8999 20.4 82.5999 20.1C81.1999 19.9 80.3999 20 80.2999 20.8L75.6999 20C75.8999 17.2 78.0999 16.6 82.4999 17.4C85.0999 17.9 86.8999 18.6 87.7999 19.5C88.8999 20.7 89.1999 22 89.1999 24V28.3C89.1999 29 89.2999 29.5 89.5999 29.9V30.1L84.9999 29.3C84.7999 28.8 84.6999 28.3 84.6999 27.7C83.5999 29 81.9999 29.2 79.7999 28.8ZM81.5999 24.1C80.3999 24 79.8999 24.1 79.8999 24.8C79.8999 25.5 80.4999 26 81.4999 26.2C83.4999 26.5 84.6999 25.8 84.6999 24.3C84.6999 24.2 84.6999 24.1 84.6999 24C83.7999 24.4 82.7999 24.2 81.5999 24.1Z" fill="#292929"></path> <path d="M91.7 15.8L96.2 16.6V31.2L91.7 30.4V15.8Z" fill="#292929"></path> </svg> 