<?xml version="1.0" encoding="UTF-8"?> <svg xmlns="http://www.w3.org/2000/svg" width="292" height="153" viewBox="0 0 292 153" fill="none"> <path d="M118 72L19 2L3 10L92 77V120L98 126L104 124V118L114 128V139L128 151L278 100V94L290 89V76L272 55L269 56L251 34L242 30L181 47L118 72Z" stroke="#FFE600" stroke-width="3"></path> <mask id="mask0" maskUnits="userSpaceOnUse" x="3" y="2" width="287" height="149"> <path d="M118 72L19 2L3 10L92 77V120L98 126L104 124V118L114 128V139L128 151L278 100V94L290 89V76L272 55L269 56L251 34L242 30L181 47L118 72Z" fill="#FFE600"></path> </mask> <g mask="url(#mask0)"> <rect x="-89" y="81.4163" width="4" height="326" transform="rotate(-45 -89 81.4163)" fill="#FFE600"></rect> <rect x="-83.3438" y="75.7595" width="4" height="326" transform="rotate(-45 -83.3438 75.7595)" fill="#FFE600"></rect> <rect x="-77.6855" y="70.1025" width="4" height="326" transform="rotate(-45 -77.6855 70.1025)" fill="#FFE600"></rect> <rect x="-72.0293" y="64.4458" width="4" height="326" transform="rotate(-45 -72.0293 64.4458)" fill="#FFE600"></rect> <rect x="-66.373" y="58.7888" width="4" height="326" transform="rotate(-45 -66.373 58.7888)" fill="#FFE600"></rect> <rect x="-60.7148" y="53.1321" width="4" height="326" transform="rotate(-45 -60.7148 53.1321)" fill="#FFE600"></rect> <rect x="-55.0586" y="47.4751" width="4" height="326" transform="rotate(-45 -55.0586 47.4751)" fill="#FFE600"></rect> <rect x="-49.4023" y="41.8184" width="4" height="326" transform="rotate(-45 -49.4023 41.8184)" fill="#FFE600"></rect> <rect x="-43.7461" y="36.1614" width="4" height="326" transform="rotate(-45 -43.7461 36.1614)" fill="#FFE600"></rect> <rect x="-38.0879" y="30.5046" width="4" height="326" transform="rotate(-45 -38.0879 30.5046)" fill="#FFE600"></rect> <rect x="-32.4316" y="24.8477" width="4" height="326" transform="rotate(-45 -32.4316 24.8477)" fill="#FFE600"></rect> <rect x="-26.7754" y="19.1909" width="4" height="326" transform="rotate(-45 -26.7754 19.1909)" fill="#FFE600"></rect> <rect x="-21.1172" y="13.5339" width="4" height="326" transform="rotate(-45 -21.1172 13.5339)" fill="#FFE600"></rect> <rect x="-15.4609" y="7.8772" width="4" height="326" transform="rotate(-45 -15.4609 7.8772)" fill="#FFE600"></rect> <rect x="-9.80469" y="2.22021" width="4" height="326" transform="rotate(-45 -9.80469 2.22021)" fill="#FFE600"></rect> <rect x="-4.14648" y="-3.43652" width="4" height="326" transform="rotate(-45 -4.14648 -3.43652)" fill="#FFE600"></rect> <rect x="1.50977" y="-9.09351" width="4" height="326" transform="rotate(-45 1.50977 -9.09351)" fill="#FFE600"></rect> <rect x="7.16602" y="-14.7502" width="4" height="326" transform="rotate(-45 7.16602 -14.7502)" fill="#FFE600"></rect> <rect x="12.8242" y="-20.4072" width="4" height="326" transform="rotate(-45 12.8242 -20.4072)" fill="#FFE600"></rect> <rect x="18.4805" y="-26.064" width="4" height="326" transform="rotate(-45 18.4805 -26.064)" fill="#FFE600"></rect> <rect x="24.1367" y="-31.7207" width="4" height="326" transform="rotate(-45 24.1367 -31.7207)" fill="#FFE600"></rect> <rect x="29.793" y="-37.3777" width="4" height="326" transform="rotate(-45 29.793 -37.3777)" fill="#FFE600"></rect> <rect x="35.4512" y="-43.0344" width="4" height="326" transform="rotate(-45 35.4512 -43.0344)" fill="#FFE600"></rect> <rect x="41.1074" y="-48.6914" width="4" height="326" transform="rotate(-45 41.1074 -48.6914)" fill="#FFE600"></rect> <rect x="46.7637" y="-54.3481" width="4" height="326" transform="rotate(-45 46.7637 -54.3481)" fill="#FFE600"></rect> <rect x="52.4219" y="-60.0051" width="4" height="326" transform="rotate(-45 52.4219 -60.0051)" fill="#FFE600"></rect> <rect x="58.0781" y="-65.6619" width="4" height="326" transform="rotate(-45 58.0781 -65.6619)" fill="#FFE600"></rect> <rect x="63.7344" y="-71.3188" width="4" height="326" transform="rotate(-45 63.7344 -71.3188)" fill="#FFE600"></rect> <rect x="69.3926" y="-76.9756" width="4" height="326" transform="rotate(-45 69.3926 -76.9756)" fill="#FFE600"></rect> <rect x="75.0488" y="-82.6326" width="4" height="326" transform="rotate(-45 75.0488 -82.6326)" fill="#FFE600"></rect> <rect x="80.7051" y="-88.2893" width="4" height="326" transform="rotate(-45 80.7051 -88.2893)" fill="#FFE600"></rect> <rect x="86.3633" y="-93.9463" width="4" height="326" transform="rotate(-45 86.3633 -93.9463)" fill="#FFE600"></rect> <rect x="92.0195" y="-99.603" width="4" height="326" transform="rotate(-45 92.0195 -99.603)" fill="#FFE600"></rect> <rect x="97.6758" y="-105.26" width="4" height="326" transform="rotate(-45 97.6758 -105.26)" fill="#FFE600"></rect> <rect x="103.334" y="-110.917" width="4" height="326" transform="rotate(-45 103.334 -110.917)" fill="#FFE600"></rect> <rect x="108.99" y="-116.574" width="4" height="326" transform="rotate(-45 108.99 -116.574)" fill="#FFE600"></rect> <rect x="114.646" y="-122.23" width="4" height="326" transform="rotate(-45 114.646 -122.23)" fill="#FFE600"></rect> <rect x="120.303" y="-127.887" width="4" height="326" transform="rotate(-45 120.303 -127.887)" fill="#FFE600"></rect> <rect x="125.961" y="-133.544" width="4" height="326" transform="rotate(-45 125.961 -133.544)" fill="#FFE600"></rect> <rect x="131.617" y="-139.201" width="4" height="326" transform="rotate(-45 131.617 -139.201)" fill="#FFE600"></rect> <rect x="137.273" y="-144.858" width="4" height="326" transform="rotate(-45 137.273 -144.858)" fill="#FFE600"></rect> <rect x="142.932" y="-150.515" width="4" height="326" transform="rotate(-45 142.932 -150.515)" fill="#FFE600"></rect> <rect x="148.588" y="-156.172" width="4" height="326" transform="rotate(-45 148.588 -156.172)" fill="#FFE600"></rect> </g> </svg> 