<?xml version="1.0" encoding="UTF-8"?> <svg xmlns="http://www.w3.org/2000/svg" width="65" height="20" viewBox="0 0 65 20" fill="none"> <path d="M5.80078 0L12.9008 0.6L11.4008 6L8.90078 5.8L9.90078 2.1L7.80078 1.9L6.80078 5.6L4.30078 5.4L5.80078 0Z" fill="#292929"></path> <path d="M14.9006 6.50002C13.1006 6.30002 12.3006 5.70002 12.7006 4.50002C12.8006 4.10002 13.0006 3.80002 13.3006 3.60002C13.9006 2.90002 14.8006 2.90002 16.0006 3.00002C17.8006 3.00002 18.6006 3.20002 18.7006 2.80002C18.8006 2.50002 18.5006 2.30002 17.7006 2.20002C16.9006 2.10002 16.5006 2.20002 16.3006 2.60002L13.7006 2.40002C14.2006 1.00002 15.5006 0.700017 18.1006 0.900017C19.6006 1.00002 20.5006 1.30002 20.9006 1.70002C21.4006 2.20002 21.4006 2.90002 21.1006 3.80002L20.5006 5.90002C20.4006 6.30002 20.4006 6.50002 20.5006 6.60002V6.70002L18.0006 6.50002C18.0006 6.30002 18.0006 6.00002 18.1006 5.70002C17.1006 6.40002 16.2006 6.60002 14.9006 6.50002ZM16.7006 4.10002C16.0006 4.10002 15.7006 4.20002 15.6006 4.50002C15.5006 4.80002 15.8006 5.10002 16.4006 5.10002C17.5006 5.20002 18.3006 4.80002 18.5006 4.10002V4.00002C17.9006 4.20002 17.3006 4.10002 16.7006 4.10002Z" fill="#292929"></path> <path d="M23.2008 1.40002L25.6008 1.60002L25.5008 2.10002C26.2008 1.70002 27.0008 1.60002 27.9008 1.60002C29.8008 1.80002 30.7008 3.00002 30.2008 4.70002C29.7008 6.40002 28.2008 7.40002 26.3008 7.30002C25.5008 7.20002 24.9008 7.00002 24.4008 6.60002L23.8008 8.80002L21.3008 8.60002L23.2008 1.40002ZM25.8008 5.60002C26.6008 5.70002 27.2008 5.20002 27.4008 4.50002C27.6008 3.80002 27.2008 3.30002 26.5008 3.20002C25.7008 3.10002 25.1008 3.60002 24.9008 4.30002C24.7008 5.10002 25.1008 5.60002 25.8008 5.60002Z" fill="#292929"></path> <path d="M31.8008 2.19995L34.3008 2.39995L33.8008 4.09995L36.1008 2.49995L39.4008 2.79995L36.7008 4.49995L38.2008 8.19995L35.2008 7.99995L34.5008 5.79995L33.1008 6.59995L32.8008 7.79995L30.3008 7.59995L31.8008 2.19995Z" fill="#292929"></path> <path d="M43.9 2.99994C46.4 3.19994 47.5 4.39994 47 6.19994C46.5 7.99994 44.8 8.99994 42.3 8.79994C39.8 8.59994 38.7 7.39994 39.2 5.59994C39.7 3.69994 41.4 2.69994 43.9 2.99994ZM42.8 7.09994C43.6 7.19994 44.2 6.69994 44.4 5.99994C44.6 5.19994 44.2 4.69994 43.4 4.69994C42.6 4.69994 42 4.99994 41.8 5.69994C41.6 6.49994 42 6.99994 42.8 7.09994Z" fill="#292929"></path> <path d="M48.8008 3.5L53.6008 3.9C55.1008 4 55.6008 4.5 55.3008 5.5C55.2008 6 54.6008 6.5 54.2008 6.6C54.7008 6.9 55.0008 7.4 54.8008 8C54.4008 9.3 53.4008 9.5 51.5008 9.3L47.3008 9L48.8008 3.5ZM50.1008 7.8L51.6008 7.9C52.0008 7.9 52.2008 7.8 52.3008 7.5C52.4008 7.2 52.3008 7.1 51.9008 7H50.4008L50.1008 7.8ZM50.7008 5.8L52.0008 5.9C52.4008 5.9 52.5008 5.8 52.6008 5.6C52.7008 5.3 52.6008 5.2 52.2008 5.2L50.9008 5L50.7008 5.8Z" fill="#292929"></path> <path d="M57.6994 10C55.8994 9.80002 55.0994 9.20002 55.4994 8.00002C55.4994 7.60002 55.7994 7.30002 55.9994 7.00002C56.6994 6.40002 57.5994 6.40002 58.7994 6.50002C60.5994 6.50002 61.3994 6.70002 61.4994 6.30002C61.5994 6.00002 61.2994 5.80002 60.4994 5.70002C59.6994 5.60002 59.2994 5.70002 59.0994 6.10002L56.4994 5.90002C56.9994 4.50002 58.2994 4.20002 60.8994 4.40002C62.3994 4.50002 63.2994 4.80002 63.6994 5.20002C64.1994 5.70002 64.1994 6.30002 63.8994 7.30002L63.2994 9.40002C63.1994 9.80002 63.1994 10 63.2994 10.1V10.2L60.6994 10C60.6994 9.80002 60.6994 9.50002 60.7994 9.20002C59.8994 9.90002 58.8994 10.1 57.6994 10ZM59.3994 7.70002C58.6994 7.70002 58.3994 7.80002 58.2994 8.10002C58.1994 8.40002 58.4994 8.70002 59.0994 8.70002C60.1994 8.80002 60.9994 8.40002 61.1994 7.70002V7.60002C60.6994 7.70002 60.0994 7.70002 59.3994 7.70002Z" fill="#292929"></path> <path d="M3.90003 14.9L4.20003 13.8L5.30003 14C5.90003 14 6.40003 13.8 6.50003 13.5C6.60003 13.2 6.30003 13 5.70003 13C5.10003 13 4.80003 13.1 4.60003 13.3L2.00003 13C2.30003 12.4 2.80003 12 3.60003 11.8C4.20003 11.6 5.10003 11.6 6.10003 11.7C7.50003 11.8 9.30003 12.2 9.00003 13.4C8.80003 14.1 8.30003 14.6 7.30003 14.6C8.40003 14.9 8.70003 15.4 8.50003 16.2C8.40003 16.6 8.00003 17 7.50003 17.2C6.80003 17.5 5.10003 17.5 4.30003 17.4C3.20003 17.3 2.20003 17.1 1.60003 16.9C0.90003 16.5 0.80003 15.9 0.90003 15.3L3.40003 15.5C3.30003 15.8 3.90003 16.2 4.50003 16.2C5.20003 16.3 5.80003 16.1 5.90003 15.7C6.00003 15.3 5.60003 15.1 5.00003 15.1L3.90003 14.9Z" fill="#292929"></path> <path d="M14.4 12.3C16.9 12.5 18 13.7 17.5 15.5C17 17.3 15.3 18.3 12.8 18.1C10.3 17.9 9.19999 16.7 9.69999 14.9C10.1 13.1 11.8 12.1 14.4 12.3ZM13.2 16.4C14 16.5 14.6 16 14.8 15.3C15 14.6 14.6 14 13.9 14C13.1 13.9 12.5 14.4 12.3 15.1C12.1 15.9 12.4 16.4 13.2 16.4Z" fill="#292929"></path> <path d="M19.1992 12.9L21.6992 13.1L21.1992 15L23.2992 15.2L23.7992 13.4L26.2992 13.6L24.7992 19L22.2992 18.8L22.7992 17L20.6992 16.8L20.1992 18.6L17.6992 18.4L19.1992 12.9Z" fill="#292929"></path> <path d="M28.3009 19.4C26.5009 19.2 25.7009 18.6 26.1009 17.4C26.2009 17 26.4009 16.7 26.7009 16.5C27.4009 15.9 28.3009 15.9 29.5009 16C31.3009 16 32.1009 16.2 32.2009 15.8C32.3009 15.5 32.0009 15.3 31.2009 15.2C30.4009 15.1 30.0009 15.2 29.8009 15.6L27.2009 15.4C27.7009 14 29.0009 13.7 31.6009 13.9C33.1009 14 34.0009 14.3 34.4009 14.7C34.9009 15.2 34.9009 15.9 34.6009 16.8L34.0009 18.9C33.9009 19.3 33.9009 19.5 34.0009 19.6V19.7L31.4009 19.5C31.4009 19.3 31.4009 19 31.5009 18.7C30.5009 19.3 29.6009 19.5 28.3009 19.4ZM30.1009 17.1C29.4009 17.1 29.1009 17.2 29.0009 17.5C28.9009 17.8 29.2009 18.1 29.8009 18.1C30.9009 18.2 31.7009 17.8 31.9009 17.1V17C31.3009 17.1 30.7009 17.1 30.1009 17.1Z" fill="#292929"></path> </svg> 