<?xml version="1.0" encoding="UTF-8"?> <svg xmlns="http://www.w3.org/2000/svg" width="100" height="47" viewBox="0 0 100 47" fill="none"> <path d="M0.900391 0L14.9004 2.2V13.4L10.0004 12.7V5L5.80039 4.4V12L0.900391 11.2V0V0Z" fill="#292929"></path> <path d="M17.5 2.59998L22.2 3.39998V4.49998C23.4 3.79998 24.8 3.59998 26.6 3.79998C30.3 4.39998 32.7 7.09998 32.7 10.7C32.7 14.3 30.3 16.2 26.5 15.6C24.9 15.3 23.6 14.8 22.4 13.7V18.3L17.5 17.5V2.59998V2.59998ZM25 12C26.5 12.2 27.5 11.4 27.5 9.89998C27.5 8.39998 26.5 7.19998 25 6.99998C23.5 6.79998 22.5 7.59998 22.5 9.09998C22.5 10.6 23.5 11.7 25 12Z" fill="#292929"></path> <path d="M39.2008 17.6999C35.6008 17.0999 33.8008 15.5999 33.8008 13.0999C33.8008 12.2999 34.0008 11.5999 34.4008 11.1999C35.4008 10.0999 37.1008 10.1999 39.5008 10.3999C43.0008 10.6999 44.6008 11.1999 44.6008 10.2999C44.6008 9.69995 43.8008 9.19995 42.4008 8.89995C40.8008 8.59995 40.0008 8.79995 39.9008 9.59995L34.8008 8.79995C35.0008 5.99995 37.4008 5.39995 42.4008 6.19995C45.3008 6.69995 47.3008 7.39995 48.3008 8.39995C49.6008 9.59995 49.8008 10.8999 49.8008 12.8999V17.1999C49.8008 17.8999 49.9008 18.3999 50.3008 18.7999V18.9999L45.2008 18.1999C45.0008 17.6999 44.9008 17.1999 44.9008 16.5999C43.4008 17.8999 41.7008 18.0999 39.2008 17.6999ZM41.3008 12.9999C40.0008 12.8999 39.4008 12.9999 39.4008 13.6999C39.4008 14.3999 40.0008 14.8999 41.2008 15.0999C43.4008 15.4999 44.8008 14.6999 44.8008 13.1999C44.8008 13.0999 44.8008 12.9999 44.8008 12.8999C43.7008 13.3999 42.6008 13.0999 41.3008 12.9999Z" fill="#292929"></path> <path d="M52.2992 8.19995L61.6992 9.69995C64.6992 10.2 65.7992 11.3 65.7992 13.4C65.7992 14.4 64.8992 15.4 64.1992 15.5C65.5992 16.1 66.3992 17.3 66.3992 18.5C66.3992 21.2 64.4992 21.4 60.7992 20.8L52.1992 19.4V8.19995H52.2992ZM57.1992 13.3L59.7992 13.7C60.5992 13.8 60.7992 13.6 60.7992 13.1C60.7992 12.6 60.5992 12.3 59.7992 12.1L57.1992 11.7V13.3ZM57.1992 17.5L60.1992 18C60.9992 18.1 61.2992 17.9 61.2992 17.3C61.2992 16.8 60.9992 16.4 60.1992 16.2L57.1992 15.7V17.5Z" fill="#292929"></path> <path d="M68.0996 10.8L72.9996 11.6V15L72.7996 17.7L77.0996 12.2L82.7996 13.1V24.3L77.8996 23.5V20L78.0996 17L73.6996 22.8L68.0996 22V10.8Z" fill="#292929"></path> <path d="M84.6992 13.4L89.5992 14.2V17.7L89.3992 20.4L93.6992 14.9L99.3992 15.8V27L94.4992 26.2V22.7L94.6992 19.7L90.2992 25.5L84.6992 24.6V13.4ZM90.8992 9.9C90.8992 10.5 91.2992 11.2 92.2992 11.4C93.2992 11.6 93.6992 11 93.6992 10.4L96.2992 10.8C96.2992 11.8 95.8992 12.5 95.0992 12.9C94.3992 13.3 93.3992 13.4 92.2992 13.2C91.0992 13 90.0992 12.6 89.4992 12.1C88.7992 11.5 88.3992 10.6 88.3992 9.5L90.8992 9.9Z" fill="#292929"></path> <path d="M5.4 32.3C1.8 31.7 0 30.2 0 27.8C0 27 0.2 26.3 0.6 25.9C1.6 24.8 3.3 24.9 5.7 25.1C9.2 25.4 10.8 25.9 10.8 25C10.8 24.4 10 23.9 8.6 23.6C7 23.4 6.2 23.5 6 24.3L0.9 23.5C1.1 20.7 3.5 20.1 8.5 20.9C11.4 21.4 13.4 22.1 14.4 23.1C15.7 24.3 15.9 25.6 15.9 27.6V31.9C15.9 32.6 16 33.1 16.4 33.5V33.7L11.3 32.9C11.1 32.4 11 31.9 11 31.3C9.7 32.5 7.9 32.7 5.4 32.3ZM7.5 27.6C6.2 27.5 5.6 27.6 5.6 28.3C5.6 29 6.2 29.5 7.4 29.7C9.6 30.1 11 29.3 11 27.8C11 27.7 11 27.6 11 27.5C10 28 8.8 27.7 7.5 27.6Z" fill="#292929"></path> <path d="M18.5 22.8L23.4 23.6V27.4L27.5 28.1V24.3L32.4 25.1V36.3L27.5 35.5V31.7001L23.5 31V34.8L18.6 34V22.8H18.5Z" fill="#292929"></path> <path d="M35.0996 25.5L46.6996 27.4V31L40.0996 29.9V37.6L35.1996 36.8V25.5H35.0996Z" fill="#292929"></path> <path d="M52.8004 39.9C49.2004 39.3 47.4004 37.8 47.4004 35.3C47.4004 34.5 47.6004 33.8 48.0004 33.4C49.0004 32.3 50.7004 32.4 53.1004 32.6C56.6004 32.9 58.2004 33.4 58.2004 32.5C58.2004 31.9 57.4004 31.4 56.0004 31.1C54.4004 30.8 53.6004 31 53.5004 31.8L48.4004 31C48.6004 28.2 51.0004 27.6 56.0004 28.4C58.9004 28.9 60.9004 29.6 61.9004 30.6C63.2004 31.8 63.4004 33.1 63.4004 35.1V39.4C63.4004 40.1 63.5004 40.6 63.9004 41V41.2L58.8004 40.4C58.6004 39.9 58.5004 39.4 58.5004 38.8C57.0004 40.1 55.3004 40.3 52.8004 39.9ZM54.8004 35.2C53.5004 35.1 52.9004 35.2 52.9004 35.9C52.9004 36.6 53.6004 37.1 54.7004 37.3C56.9004 37.7 58.3004 36.9 58.3004 35.4C58.3004 35.3 58.3004 35.2 58.3004 35.1C57.3004 35.5 56.1004 35.3 54.8004 35.2Z" fill="#292929"></path> <path d="M65.9004 30.4L70.6004 31.2V32.3C71.8004 31.6 73.2004 31.4 75.0004 31.6C78.7004 32.2 81.1004 34.9 81.1004 38.5C81.1004 42.1 78.7004 44 74.9004 43.4C73.3004 43.1 72.0004 42.6 70.8004 41.5V46.1L65.9004 45.3V30.4ZM73.4004 39.7C74.9004 39.9 75.9004 39.1 75.9004 37.6C75.9004 36.1 74.9004 34.9 73.4004 34.7C71.9004 34.5 70.9004 35.3 70.9004 36.8C70.8004 38.3 71.9004 39.5 73.4004 39.7Z" fill="#292929"></path> </svg> 