<?xml version="1.0" encoding="UTF-8"?> <svg xmlns="http://www.w3.org/2000/svg" width="90" height="552" viewBox="0 0 90 552" fill="none"> <path d="M32.11 490.35L32.11 461.46C13.48 462.36 2.94999 477.3 2.94999 504.66C2.94999 533.82 14.74 548.58 37.33 548.58C59.92 548.58 71.71 533.82 71.71 504.66C71.71 478.65 62.17 463.89 44.26 461.28L44.26 490.44C51.37 491.97 54.88 496.92 54.88 504.66C54.88 515.55 48.76 521.4 37.33 521.4C25.9 521.4 19.69 515.55 19.69 504.66C19.69 496.2 24.01 491.16 32.11 490.35ZM44.71 458.024C61.63 458.024 71.71 445.424 71.71 422.384C71.71 399.344 61.63 386.834 44.71 386.834C27.79 386.834 17.71 399.344 17.71 422.384C17.71 445.424 27.79 458.024 44.71 458.024ZM44.71 434.174C37.69 434.174 33.28 429.494 33.28 422.474C33.28 415.454 37.69 410.774 44.71 410.774C51.73 410.774 56.14 415.454 56.14 422.474C56.14 429.494 51.73 434.174 44.71 434.174ZM70 380.031L70 357.441L45.25 357.441C39.67 357.441 36.34 353.301 36.34 346.731C36.34 340.341 39.22 338.541 46.24 338.541L70 338.541L70 315.951L42.01 315.951C25.99 315.951 18.43 322.251 18.43 337.371C18.43 344.931 20.41 351.321 24.64 357.441L19.42 357.441L19.42 380.031L70 380.031ZM69.91 271.869L55.96 271.869L55.96 275.109C55.96 280.599 53.17 280.599 45.25 280.599L34.81 280.599L34.81 272.499L20.59 272.499L20.59 280.599L4.02998 280.599L4.02999 303.459L20.59 303.459L20.59 311.469L34.81 311.469L34.81 303.459L54.61 303.459C61.9 303.459 66.4 302.559 68.83 296.529C70.27 292.929 70.9 288.429 70.9 283.029C70.9 279.339 70.54 275.649 69.91 271.869ZM63.07 219.688C65.59 219.598 67.93 219.148 70 218.248L70 194.758L68.92 194.758C67.57 196.558 65.5 197.008 62.17 197.008L42.64 197.008C33.73 197.008 28.06 198.178 23.56 203.938C19.96 208.618 18.07 217.618 18.07 231.028C18.07 253.798 22.21 264.778 35.17 265.768L35.17 242.458C31.21 241.828 30.13 238.138 30.13 230.848C30.13 224.278 32.11 220.768 34.72 220.768C38.86 220.768 37.78 228.148 38.86 243.988C39.58 254.878 40.12 262.618 45.97 267.298C48.13 269.008 51.28 269.998 55.06 269.998C66.13 269.998 71.62 261.718 71.62 245.158C71.62 233.728 69.46 225.808 63.07 219.688ZM46.42 219.778C46.87 219.688 47.23 219.688 47.68 219.688C54.16 219.688 58.66 225.898 58.66 236.068C58.66 241.378 56.77 244.348 53.62 244.348C50.47 244.348 49.57 241.738 49.03 235.708C48.49 229.678 48.67 224.368 46.42 219.778ZM47.77 117.94L47.77 142.06C53.17 143.14 56.59 147.82 56.59 154.12C56.59 161.59 52 166.54 44.62 166.54C37.15 166.54 32.56 161.59 32.56 153.58C32.56 148.09 34.9 144.4 39.58 142.6L39.58 118.39C25.18 120.46 17.71 132.52 17.71 154.12C17.71 177.61 27.88 190.39 44.71 190.39C61.63 190.39 71.71 177.61 71.71 154.12C71.71 131.71 63.7 119.56 47.77 117.94ZM69.91 76.703L55.96 76.703L55.96 79.943C55.96 85.433 53.17 85.433 45.25 85.433L34.81 85.433L34.81 77.333L20.59 77.333L20.59 85.433L4.02998 85.433L4.02998 108.293L20.59 108.293L20.59 116.303L34.81 116.303L34.81 108.293L54.61 108.293C61.9 108.293 66.4 107.393 68.83 101.363C70.27 97.763 70.9 93.263 70.9 87.863C70.9 84.173 70.54 80.483 69.91 76.703ZM53.89 74.3813C66.58 73.8413 71.71 62.8613 71.71 40.4513C71.71 15.4313 66.76 3.91125 53.35 3.91125C46.06 3.91125 42.64 7.06125 40.03 14.5312C38.95 17.6813 38.32 25.3312 37.24 37.4813C36.52 45.4913 36.7 49.1813 33.28 49.1813C30.85 49.1813 29.77 46.5713 29.77 41.3513C29.77 35.4113 31.03 32.4413 34.63 32.1713L34.63 6.07125C22.84 6.79125 17.71 17.7713 17.71 39.4613C17.71 62.2313 22.57 73.1213 34.54 73.1213C40.48 73.1213 44.89 70.5113 46.87 66.0113C49.48 60.1613 50.2 52.6913 51.1 43.4213C52 34.2413 51.91 30.0113 55.42 30.0113C57.67 30.0113 58.84 32.7113 58.84 37.8413C58.84 43.6013 57.58 46.3913 53.89 46.7513L53.89 74.3813Z" fill="#052D1E"></path> <rect x="87" width="3" height="552" fill="#052D1E"></rect> </svg> 