<?xml version="1.0" encoding="UTF-8"?> <svg xmlns="http://www.w3.org/2000/svg" width="333" height="287" viewBox="0 0 333 287" fill="none"> <rect width="333" height="287" fill="white"></rect> <path d="M20.768 119.84H26.32V118.736H20.768V119.84ZM37.4295 112.512C36.9655 112.416 36.5015 112.384 35.9895 112.384C34.4375 112.384 33.7655 113.024 33.7655 114.496V115.392H32.2455V116.704H33.7655V124H35.3175V116.704H37.4295V115.392H35.3175V114.816C35.3175 114.064 35.5895 113.824 36.3895 113.824C36.6935 113.824 37.0295 113.84 37.4295 113.92V112.512ZM42.8074 115.12C39.8474 115.12 37.9914 116.944 37.9914 119.712C37.9914 122.48 39.8474 124.24 42.8074 124.24C45.7674 124.24 47.6074 122.48 47.6074 119.712C47.6074 116.944 45.7674 115.12 42.8074 115.12ZM42.8074 116.56C44.7754 116.56 45.9594 117.728 45.9594 119.68C45.9594 121.632 44.7754 122.8 42.8074 122.8C40.8394 122.8 39.6394 121.632 39.6394 119.68C39.6394 117.728 40.8394 116.56 42.8074 116.56ZM53.2842 115.12C50.3242 115.12 48.4682 116.944 48.4682 119.712C48.4682 122.48 50.3242 124.24 53.2842 124.24C56.2442 124.24 58.0842 122.48 58.0842 119.712C58.0842 116.944 56.2442 115.12 53.2842 115.12ZM53.2842 116.56C55.2522 116.56 56.4362 117.728 56.4362 119.68C56.4362 121.632 55.2522 122.8 53.2842 122.8C51.3162 122.8 50.1162 121.632 50.1162 119.68C50.1162 117.728 51.3162 116.56 53.2842 116.56ZM68.4171 112.384H66.8651V116.704C66.1931 115.712 64.9291 115.12 63.5531 115.12C60.8171 115.12 58.9451 117.056 58.9451 119.728C58.9451 122.416 60.8171 124.24 63.5371 124.24C64.9291 124.24 66.0171 123.76 66.8651 122.736V124H68.4171V112.384ZM63.7131 116.56C65.6651 116.56 66.8651 117.824 66.8651 119.728C66.8651 121.648 65.6651 122.8 63.7131 122.8C61.7611 122.8 60.5931 121.664 60.5931 119.728C60.5931 117.808 61.7611 116.56 63.7131 116.56ZM83.8116 118.256C83.4436 116.336 81.8116 115.12 79.5396 115.12C76.7556 115.12 74.8676 116.976 74.8676 119.712C74.8676 122.448 76.7716 124.24 79.5076 124.24C81.8596 124.24 83.5076 122.96 83.8756 120.784H82.2436C82.0356 122.048 80.9956 122.8 79.5716 122.8C77.7636 122.8 76.5156 121.664 76.5156 119.728C76.5156 117.776 77.7156 116.56 79.6836 116.56C80.9476 116.56 81.8916 117.2 82.1956 118.256H83.8116ZM89.5511 115.12C86.5911 115.12 84.7351 116.944 84.7351 119.712C84.7351 122.48 86.5911 124.24 89.5511 124.24C92.5111 124.24 94.3511 122.48 94.3511 119.712C94.3511 116.944 92.5111 115.12 89.5511 115.12ZM89.5511 116.56C91.5191 116.56 92.7031 117.728 92.7031 119.68C92.7031 121.632 91.5191 122.8 89.5511 122.8C87.5831 122.8 86.3831 121.632 86.3831 119.68C86.3831 117.728 87.5831 116.56 89.5511 116.56ZM95.772 115.392V120.848C95.772 123.264 96.956 124.24 99.036 124.24C100.492 124.24 101.628 123.696 102.572 122.544V124H104.124V115.392H102.572V119.776C102.572 121.696 101.212 122.928 99.388 122.928C97.836 122.928 97.324 122.144 97.324 120.4V115.392H95.772ZM107.66 115.392H106.108V124H107.66V119.792C107.66 117.968 108.924 116.72 110.396 116.72C110.732 116.72 111.084 116.768 111.516 116.896V115.264C111.308 115.152 111.1 115.12 110.828 115.12C109.548 115.12 108.444 115.712 107.66 116.848V115.392ZM112.993 113.2V115.392H111.489V116.704H112.993V122.256C112.993 123.6 113.697 124.24 115.217 124.24C115.649 124.24 116.129 124.176 116.657 124.096V122.672C116.241 122.768 115.905 122.8 115.601 122.8C114.833 122.8 114.545 122.528 114.545 121.808V116.704H116.657V115.392H114.545V113.2H112.993ZM20.768 143.84H26.32V142.736H20.768V143.84ZM34.5015 139.392H32.9495V148H34.5015V143.632C34.5015 141.712 35.8615 140.432 37.6855 140.432C39.2375 140.432 39.7495 141.264 39.7495 143.008V148H41.2535V143.632C41.2535 141.712 42.6135 140.432 44.4375 140.432C45.9895 140.432 46.5015 141.264 46.5015 143.008V148H48.0535V143.072C48.0535 140.64 47.3815 139.12 44.7735 139.12C43.2535 139.12 42.1335 139.76 41.1095 141.024C40.7575 139.856 39.6695 139.12 38.0535 139.12C36.5175 139.12 35.3815 139.808 34.5015 140.88V139.392ZM58.8838 144.016V143.712C58.8838 140.848 57.1398 139.12 54.1958 139.12C51.3158 139.12 49.4758 140.928 49.4758 143.712C49.4758 146.48 51.2998 148.24 54.1958 148.24C56.4838 148.24 58.1318 147.184 58.7398 145.328H56.9318C56.5798 146.272 55.5558 146.8 54.1958 146.8C52.3558 146.8 51.1238 145.696 51.1238 144.016H58.8838ZM51.1558 142.912C51.4118 141.44 52.5478 140.56 54.1958 140.56C55.8598 140.56 56.9798 141.456 57.2198 142.912H51.1558ZM69.2215 136.384H67.6695V140.704C66.9975 139.712 65.7335 139.12 64.3575 139.12C61.6215 139.12 59.7495 141.056 59.7495 143.728C59.7495 146.416 61.6215 148.24 64.3415 148.24C65.7335 148.24 66.8215 147.76 67.6695 146.736V148H69.2215V136.384ZM64.5175 140.56C66.4695 140.56 67.6695 141.824 67.6695 143.728C67.6695 145.648 66.4695 146.8 64.5175 146.8C62.5655 146.8 61.3975 145.664 61.3975 143.728C61.3975 141.808 62.5655 140.56 64.5175 140.56ZM72.8883 139.392H71.3363V148H72.8883V139.392ZM72.8883 138.272V136.384H71.3363V138.272H72.8883ZM81.5576 143.584V144.864C81.5576 145.952 80.2296 146.928 78.2456 146.928C77.0296 146.928 76.3416 146.384 76.3416 145.568C76.3416 144.512 77.2696 144.368 78.9496 144.176C80.2456 144.032 81.1096 143.856 81.5576 143.584ZM81.6056 146.672C81.7656 147.6 82.2136 148.096 83.1096 148.096C83.3976 148.096 83.8456 148.064 84.3416 147.984V146.736C84.1496 146.768 84.0056 146.784 83.8776 146.784C83.2696 146.784 83.1096 146.352 83.1096 145.456V141.968C83.1096 139.872 82.0376 139.12 79.1736 139.12C76.5336 139.12 75.1416 140.128 75.0296 142.16H76.6456C76.7256 140.928 77.5416 140.432 79.2856 140.432C80.8376 140.432 81.5576 140.832 81.5576 141.76C81.5576 142.8 80.5656 142.752 78.6616 142.96C76.2136 143.232 74.6936 143.648 74.6936 145.648C74.6936 147.248 75.8296 148.24 77.9896 148.24C79.5736 148.24 80.8216 147.664 81.6056 146.672ZM92.0503 136.384H90.4983V148H92.0503V143.632C92.0503 141.712 93.4103 140.432 95.2343 140.432C96.7863 140.432 97.2983 141.264 97.2983 143.008V148H98.8503V142.88C98.8503 140.624 98.1943 139.12 95.5863 139.12C94.0503 139.12 92.8503 139.824 92.0503 140.88V136.384ZM100.835 139.392V144.848C100.835 147.264 102.019 148.24 104.099 148.24C105.555 148.24 106.691 147.696 107.635 146.544V148H109.187V139.392H107.635V143.776C107.635 145.696 106.275 146.928 104.451 146.928C102.899 146.928 102.387 146.144 102.387 144.4V139.392H100.835ZM111.171 136.384V148H112.723V146.736C113.571 147.76 114.659 148.24 116.051 148.24C118.771 148.24 120.643 146.416 120.643 143.728C120.643 141.056 118.771 139.12 116.035 139.12C114.659 139.12 113.523 139.696 112.723 140.704V136.384H111.171ZM115.875 140.56C117.827 140.56 118.995 141.792 118.995 143.712C118.995 145.648 117.827 146.8 115.875 146.8C113.923 146.8 112.723 145.648 112.723 143.728C112.723 141.824 113.923 140.56 115.875 140.56ZM122.502 148H123.446V148.24C123.446 148.96 123.174 149.36 122.502 149.616V150.672C123.958 150.144 124.422 149.424 124.422 148V146.08H122.502V148ZM122.502 141.344H124.422V139.424H122.502V141.344ZM20.768 167.84H26.32V166.736H20.768V167.84ZM34.5015 163.392H32.9495V175.056H34.5015V170.736C35.3815 171.744 36.4375 172.24 37.8135 172.24C40.5495 172.24 42.4375 170.384 42.4375 167.712C42.4375 165.024 40.5495 163.12 37.8295 163.12C36.3735 163.12 35.2215 163.728 34.5015 164.688V163.392ZM37.6535 164.56C39.6055 164.56 40.7895 165.776 40.7895 167.712C40.7895 169.632 39.6055 170.8 37.6535 170.8C35.7015 170.8 34.5015 169.616 34.5015 167.712C34.5015 165.792 35.7015 164.56 37.6535 164.56ZM45.5439 160.384H43.9919V172H45.5439V160.384ZM54.2132 167.584V168.864C54.2132 169.952 52.8852 170.928 50.9012 170.928C49.6852 170.928 48.9972 170.384 48.9972 169.568C48.9972 168.512 49.9252 168.368 51.6052 168.176C52.9012 168.032 53.7652 167.856 54.2132 167.584ZM54.2612 170.672C54.4212 171.6 54.8692 172.096 55.7653 172.096C56.0532 172.096 56.5012 172.064 56.9972 171.984V170.736C56.8053 170.768 56.6613 170.784 56.5332 170.784C55.9253 170.784 55.7653 170.352 55.7653 169.456V165.968C55.7653 163.872 54.6932 163.12 51.8292 163.12C49.1892 163.12 47.7972 164.128 47.6852 166.16H49.3012C49.3812 164.928 50.1972 164.432 51.9412 164.432C53.4932 164.432 54.2132 164.832 54.2132 165.76C54.2132 166.8 53.2212 166.752 51.3172 166.96C48.8692 167.232 47.3492 167.648 47.3492 169.648C47.3492 171.248 48.4852 172.24 50.6452 172.24C52.2292 172.24 53.4772 171.664 54.2612 170.672ZM66.5141 166.256C66.1461 164.336 64.5141 163.12 62.2421 163.12C59.4581 163.12 57.5701 164.976 57.5701 167.712C57.5701 170.448 59.4741 172.24 62.2101 172.24C64.5621 172.24 66.2101 170.96 66.5781 168.784H64.9461C64.7381 170.048 63.6981 170.8 62.2741 170.8C60.4661 170.8 59.2181 169.664 59.2181 167.728C59.2181 165.776 60.4181 164.56 62.3861 164.56C63.6501 164.56 64.5941 165.2 64.8981 166.256H66.5141ZM76.8456 168.016V167.712C76.8456 164.848 75.1016 163.12 72.1576 163.12C69.2776 163.12 67.4376 164.928 67.4376 167.712C67.4376 170.48 69.2616 172.24 72.1576 172.24C74.4456 172.24 76.0936 171.184 76.7016 169.328H74.8936C74.5416 170.272 73.5176 170.8 72.1576 170.8C70.3176 170.8 69.0856 169.696 69.0856 168.016H76.8456ZM69.1176 166.912C69.3736 165.44 70.5096 164.56 72.1576 164.56C73.8216 164.56 74.9416 165.456 75.1816 166.912H69.1176ZM85.9034 165.984C85.9034 164.128 84.5594 163.12 81.9834 163.12C79.4234 163.12 78.1114 164.08 78.1114 165.856C78.1114 167.44 79.1194 167.888 81.1354 168.224L83.0554 168.56C84.1434 168.736 84.6234 168.96 84.6234 169.632C84.6234 170.416 83.6954 170.928 81.9354 170.928C80.4474 170.928 79.5514 170.304 79.4074 169.2H77.7114C77.9034 171.312 79.2634 172.24 81.9354 172.24C84.7514 172.24 86.1754 171.296 86.1754 169.552C86.1754 168 85.3914 167.424 83.4714 167.104L81.6154 166.8C80.3034 166.576 79.6634 166.416 79.6634 165.584C79.6634 164.848 80.4474 164.432 81.9034 164.432C83.4554 164.432 84.2874 164.912 84.3994 165.984H85.9034ZM93.3358 161.2V163.392H91.8318V164.704H93.3358V170.256C93.3358 171.6 94.0398 172.24 95.5598 172.24C95.9918 172.24 96.4718 172.176 96.9998 172.096V170.672C96.5838 170.768 96.2478 170.8 95.9438 170.8C95.1758 170.8 94.8878 170.528 94.8878 169.808V164.704H96.9998V163.392H94.8878V161.2H93.3358ZM102.38 163.12C99.4199 163.12 97.5639 164.944 97.5639 167.712C97.5639 170.48 99.4199 172.24 102.38 172.24C105.34 172.24 107.18 170.48 107.18 167.712C107.18 164.944 105.34 163.12 102.38 163.12ZM102.38 164.56C104.348 164.56 105.532 165.728 105.532 167.68C105.532 169.632 104.348 170.8 102.38 170.8C100.412 170.8 99.2119 169.632 99.2119 167.68C99.2119 165.728 100.412 164.56 102.38 164.56ZM112.441 163.392L115.689 172H117.465L119.593 164.944L121.625 172H123.385L126.713 163.392H124.905L122.569 170.544L120.505 163.392H118.745L116.553 170.544L114.329 163.392H112.441ZM131.764 163.12C128.804 163.12 126.948 164.944 126.948 167.712C126.948 170.48 128.804 172.24 131.764 172.24C134.724 172.24 136.564 170.48 136.564 167.712C136.564 164.944 134.724 163.12 131.764 163.12ZM131.764 164.56C133.732 164.56 134.916 165.728 134.916 167.68C134.916 169.632 133.732 170.8 131.764 170.8C129.796 170.8 128.596 169.632 128.596 167.68C128.596 165.728 129.796 164.56 131.764 164.56ZM139.536 163.392H137.984V172H139.536V167.792C139.536 165.968 140.8 164.72 142.272 164.72C142.608 164.72 142.96 164.768 143.392 164.896V163.264C143.184 163.152 142.976 163.12 142.704 163.12C141.424 163.12 140.32 163.712 139.536 164.848V163.392ZM145.701 160.384H144.149V172H145.701V168.896L147.301 167.616L150.741 172H152.837L148.453 166.672L152.533 163.392H150.229L145.701 167.152V160.384ZM154.137 172H155.081V172.24C155.081 172.96 154.809 173.36 154.137 173.616V174.672C155.593 174.144 156.057 173.424 156.057 172V170.08H154.137V172ZM29.536 190.256C29.168 188.336 27.536 187.12 25.264 187.12C22.48 187.12 20.592 188.976 20.592 191.712C20.592 194.448 22.496 196.24 25.232 196.24C27.584 196.24 29.232 194.96 29.6 192.784H27.968C27.76 194.048 26.72 194.8 25.296 194.8C23.488 194.8 22.24 193.664 22.24 191.728C22.24 189.776 23.44 188.56 25.408 188.56C26.672 188.56 27.616 189.2 27.92 190.256H29.536ZM35.2755 187.12C32.3155 187.12 30.4595 188.944 30.4595 191.712C30.4595 194.48 32.3155 196.24 35.2755 196.24C38.2355 196.24 40.0755 194.48 40.0755 191.712C40.0755 188.944 38.2355 187.12 35.2755 187.12ZM35.2755 188.56C37.2435 188.56 38.4275 189.728 38.4275 191.68C38.4275 193.632 37.2435 194.8 35.2755 194.8C33.3075 194.8 32.1075 193.632 32.1075 191.68C32.1075 189.728 33.3075 188.56 35.2755 188.56ZM43.0484 187.392H41.4964V196H43.0484V191.632C43.0484 189.712 44.4084 188.432 46.2324 188.432C47.7844 188.432 48.2964 189.264 48.2964 191.008V196H49.8004V191.632C49.8004 189.712 51.1604 188.432 52.9844 188.432C54.5364 188.432 55.0484 189.264 55.0484 191.008V196H56.6004V191.072C56.6004 188.64 55.9284 187.12 53.3204 187.12C51.8004 187.12 50.6804 187.76 49.6564 189.024C49.3044 187.856 48.2164 187.12 46.6004 187.12C45.0644 187.12 43.9284 187.808 43.0484 188.88V187.392ZM60.1346 187.392H58.5826V196H60.1346V191.632C60.1346 189.712 61.4946 188.432 63.3186 188.432C64.8706 188.432 65.3826 189.264 65.3826 191.008V196H66.8866V191.632C66.8866 189.712 68.2466 188.432 70.0706 188.432C71.6226 188.432 72.1346 189.264 72.1346 191.008V196H73.6866V191.072C73.6866 188.64 73.0146 187.12 70.4066 187.12C68.8866 187.12 67.7666 187.76 66.7426 189.024C66.3906 187.856 65.3026 187.12 63.6866 187.12C62.1506 187.12 61.0146 187.808 60.1346 188.88V187.392ZM75.6689 187.392V192.848C75.6689 195.264 76.8529 196.24 78.9329 196.24C80.3889 196.24 81.5249 195.696 82.4689 194.544V196H84.0209V187.392H82.4689V191.776C82.4689 193.696 81.1089 194.928 79.2849 194.928C77.7329 194.928 77.2209 194.144 77.2209 192.4V187.392H75.6689ZM87.5571 187.392H86.0051V196H87.5571V191.632C87.5571 189.712 88.9171 188.432 90.7411 188.432C92.2931 188.432 92.8051 189.264 92.8051 191.008V196H94.3571V190.88C94.3571 188.624 93.7011 187.12 91.0931 187.12C89.5571 187.12 88.3571 187.824 87.5571 188.88V187.392ZM98.0214 187.392H96.4694V196H98.0214V187.392ZM98.0214 186.272V184.384H96.4694V186.272H98.0214ZM108.515 190.256C108.147 188.336 106.515 187.12 104.243 187.12C101.459 187.12 99.5708 188.976 99.5708 191.712C99.5708 194.448 101.475 196.24 104.211 196.24C106.563 196.24 108.211 194.96 108.579 192.784H106.947C106.739 194.048 105.699 194.8 104.275 194.8C102.467 194.8 101.219 193.664 101.219 191.728C101.219 189.776 102.419 188.56 104.387 188.56C105.651 188.56 106.595 189.2 106.899 190.256H108.515ZM116.558 191.584V192.864C116.558 193.952 115.23 194.928 113.246 194.928C112.03 194.928 111.342 194.384 111.342 193.568C111.342 192.512 112.27 192.368 113.95 192.176C115.246 192.032 116.11 191.856 116.558 191.584ZM116.606 194.672C116.766 195.6 117.214 196.096 118.11 196.096C118.398 196.096 118.846 196.064 119.342 195.984V194.736C119.15 194.768 119.006 194.784 118.878 194.784C118.27 194.784 118.11 194.352 118.11 193.456V189.968C118.11 187.872 117.038 187.12 114.174 187.12C111.534 187.12 110.142 188.128 110.03 190.16H111.646C111.726 188.928 112.542 188.432 114.286 188.432C115.838 188.432 116.558 188.832 116.558 189.76C116.558 190.8 115.566 190.752 113.662 190.96C111.214 191.232 109.694 191.648 109.694 193.648C109.694 195.248 110.83 196.24 112.99 196.24C114.574 196.24 115.822 195.664 116.606 194.672ZM120.836 185.2V187.392H119.332V188.704H120.836V194.256C120.836 195.6 121.54 196.24 123.06 196.24C123.492 196.24 123.972 196.176 124.5 196.096V194.672C124.084 194.768 123.748 194.8 123.444 194.8C122.676 194.8 122.388 194.528 122.388 193.808V188.704H124.5V187.392H122.388V185.2H120.836ZM127.304 187.392H125.752V196H127.304V187.392ZM127.304 186.272V184.384H125.752V186.272H127.304ZM133.669 187.12C130.709 187.12 128.853 188.944 128.853 191.712C128.853 194.48 130.709 196.24 133.669 196.24C136.629 196.24 138.469 194.48 138.469 191.712C138.469 188.944 136.629 187.12 133.669 187.12ZM133.669 188.56C135.637 188.56 136.821 189.728 136.821 191.68C136.821 193.632 135.637 194.8 133.669 194.8C131.701 194.8 130.501 193.632 130.501 191.68C130.501 189.728 131.701 188.56 133.669 188.56ZM141.442 187.392H139.89V196H141.442V191.632C141.442 189.712 142.802 188.432 144.626 188.432C146.178 188.432 146.69 189.264 146.69 191.008V196H148.242V190.88C148.242 188.624 147.586 187.12 144.978 187.12C143.442 187.12 142.242 187.824 141.442 188.88V187.392ZM161.81 191.584V192.864C161.81 193.952 160.482 194.928 158.498 194.928C157.282 194.928 156.594 194.384 156.594 193.568C156.594 192.512 157.522 192.368 159.202 192.176C160.498 192.032 161.362 191.856 161.81 191.584ZM161.858 194.672C162.018 195.6 162.466 196.096 163.362 196.096C163.65 196.096 164.098 196.064 164.594 195.984V194.736C164.402 194.768 164.258 194.784 164.13 194.784C163.522 194.784 163.362 194.352 163.362 193.456V189.968C163.362 187.872 162.29 187.12 159.426 187.12C156.786 187.12 155.394 188.128 155.282 190.16H156.898C156.978 188.928 157.794 188.432 159.538 188.432C161.09 188.432 161.81 188.832 161.81 189.76C161.81 190.8 160.818 190.752 158.914 190.96C156.466 191.232 154.946 191.648 154.946 193.648C154.946 195.248 156.082 196.24 158.242 196.24C159.826 196.24 161.074 195.664 161.858 194.672ZM167.279 187.392H165.727V196H167.279V191.632C167.279 189.712 168.639 188.432 170.463 188.432C172.015 188.432 172.527 189.264 172.527 191.008V196H174.079V190.88C174.079 188.624 173.423 187.12 170.815 187.12C169.279 187.12 168.079 187.824 167.279 188.88V187.392ZM184.975 184.384H183.423V188.704C182.751 187.712 181.487 187.12 180.111 187.12C177.375 187.12 175.503 189.056 175.503 191.728C175.503 194.416 177.375 196.24 180.095 196.24C181.487 196.24 182.575 195.76 183.423 194.736V196H184.975V184.384ZM180.271 188.56C182.223 188.56 183.423 189.824 183.423 191.728C183.423 193.648 182.223 194.8 180.271 194.8C178.319 194.8 177.151 193.664 177.151 191.728C177.151 189.808 178.319 188.56 180.271 188.56ZM193.538 187.392H191.986V196H193.538V191.792C193.538 189.968 194.802 188.72 196.274 188.72C196.61 188.72 196.962 188.768 197.394 188.896V187.264C197.186 187.152 196.978 187.12 196.706 187.12C195.426 187.12 194.322 187.712 193.538 188.848V187.392ZM206.998 192.016V191.712C206.998 188.848 205.254 187.12 202.31 187.12C199.43 187.12 197.59 188.928 197.59 191.712C197.59 194.48 199.414 196.24 202.31 196.24C204.598 196.24 206.246 195.184 206.854 193.328H205.046C204.694 194.272 203.67 194.8 202.31 194.8C200.47 194.8 199.238 193.696 199.238 192.016H206.998ZM199.27 190.912C199.526 189.44 200.662 188.56 202.31 188.56C203.974 188.56 205.094 189.456 205.334 190.912H199.27ZM216.808 190.256C216.44 188.336 214.808 187.12 212.536 187.12C209.752 187.12 207.864 188.976 207.864 191.712C207.864 194.448 209.768 196.24 212.504 196.24C214.856 196.24 216.504 194.96 216.872 192.784H215.24C215.032 194.048 213.992 194.8 212.568 194.8C210.76 194.8 209.512 193.664 209.512 191.728C209.512 189.776 210.712 188.56 212.68 188.56C213.944 188.56 214.888 189.2 215.192 190.256H216.808ZM219.843 187.392H218.291V196H219.843V191.792C219.843 189.968 221.107 188.72 222.579 188.72C222.915 188.72 223.267 188.768 223.699 188.896V187.264C223.491 187.152 223.283 187.12 223.011 187.12C221.731 187.12 220.627 187.712 219.843 188.848V187.392ZM233.304 192.016V191.712C233.304 188.848 231.56 187.12 228.616 187.12C225.736 187.12 223.896 188.928 223.896 191.712C223.896 194.48 225.72 196.24 228.616 196.24C230.904 196.24 232.552 195.184 233.16 193.328H231.352C231 194.272 229.976 194.8 228.616 194.8C226.776 194.8 225.544 193.696 225.544 192.016H233.304ZM225.576 190.912C225.832 189.44 226.968 188.56 228.616 188.56C230.28 188.56 231.4 189.456 231.64 190.912H225.576ZM241.289 191.584V192.864C241.289 193.952 239.961 194.928 237.977 194.928C236.761 194.928 236.073 194.384 236.073 193.568C236.073 192.512 237.001 192.368 238.681 192.176C239.977 192.032 240.841 191.856 241.289 191.584ZM241.337 194.672C241.497 195.6 241.945 196.096 242.842 196.096C243.129 196.096 243.577 196.064 244.073 195.984V194.736C243.882 194.768 243.738 194.784 243.609 194.784C243.002 194.784 242.842 194.352 242.842 193.456V189.968C242.842 187.872 241.769 187.12 238.905 187.12C236.265 187.12 234.873 188.128 234.761 190.16H236.377C236.457 188.928 237.273 188.432 239.017 188.432C240.569 188.432 241.289 188.832 241.289 189.76C241.289 190.8 240.297 190.752 238.393 190.96C235.945 191.232 234.425 191.648 234.425 193.648C234.425 195.248 235.561 196.24 237.721 196.24C239.305 196.24 240.553 195.664 241.337 194.672ZM245.567 185.2V187.392H244.063V188.704H245.567V194.256C245.567 195.6 246.271 196.24 247.791 196.24C248.223 196.24 248.703 196.176 249.231 196.096V194.672C248.815 194.768 248.479 194.8 248.175 194.8C247.407 194.8 247.119 194.528 247.119 193.808V188.704H249.231V187.392H247.119V185.2H245.567ZM252.035 187.392H250.483V196H252.035V187.392ZM252.035 186.272V184.384H250.483V186.272H252.035ZM258.4 187.12C255.44 187.12 253.584 188.944 253.584 191.712C253.584 194.48 255.44 196.24 258.4 196.24C261.36 196.24 263.2 194.48 263.2 191.712C263.2 188.944 261.36 187.12 258.4 187.12ZM258.4 188.56C260.368 188.56 261.552 189.728 261.552 191.68C261.552 193.632 260.368 194.8 258.4 194.8C256.432 194.8 255.232 193.632 255.232 191.68C255.232 189.728 256.432 188.56 258.4 188.56ZM266.173 187.392H264.621V196H266.173V191.632C266.173 189.712 267.533 188.432 269.357 188.432C270.909 188.432 271.421 189.264 271.421 191.008V196H272.973V190.88C272.973 188.624 272.317 187.12 269.709 187.12C268.173 187.12 266.973 187.824 266.173 188.88V187.392ZM275.39 196H276.334V196.24C276.334 196.96 276.062 197.36 275.39 197.616V198.672C276.846 198.144 277.31 197.424 277.31 196V194.08H275.39V196ZM275.39 189.344H277.31V187.424H275.39V189.344ZM20.768 215.84H26.32V214.736H20.768V215.84ZM34.5015 211.392H32.9495V220H34.5015V215.632C34.5015 213.712 35.8615 212.432 37.6855 212.432C39.2375 212.432 39.7495 213.264 39.7495 215.008V220H41.2535V215.632C41.2535 213.712 42.6135 212.432 44.4375 212.432C45.9895 212.432 46.5015 213.264 46.5015 215.008V220H48.0535V215.072C48.0535 212.64 47.3815 211.12 44.7735 211.12C43.2535 211.12 42.1335 211.76 41.1095 213.024C40.7575 211.856 39.6695 211.12 38.0535 211.12C36.5175 211.12 35.3815 211.808 34.5015 212.88V211.392ZM51.7158 211.392H50.1638V220H51.7158V211.392ZM51.7158 210.272V208.384H50.1638V210.272H51.7158ZM54.5451 209.2V211.392H53.0411V212.704H54.5451V218.256C54.5451 219.6 55.2491 220.24 56.7691 220.24C57.2011 220.24 57.6811 220.176 58.2091 220.096V218.672C57.7931 218.768 57.4571 218.8 57.1531 218.8C56.3851 218.8 56.0971 218.528 56.0971 217.808V212.704H58.2091V211.392H56.0971V209.2H54.5451ZM65.8933 215.584V216.864C65.8933 217.952 64.5653 218.928 62.5813 218.928C61.3653 218.928 60.6773 218.384 60.6773 217.568C60.6773 216.512 61.6053 216.368 63.2853 216.176C64.5813 216.032 65.4453 215.856 65.8933 215.584ZM65.9413 218.672C66.1013 219.6 66.5493 220.096 67.4453 220.096C67.7333 220.096 68.1813 220.064 68.6773 219.984V218.736C68.4853 218.768 68.3413 218.784 68.2133 218.784C67.6053 218.784 67.4453 218.352 67.4453 217.456V213.968C67.4453 211.872 66.3733 211.12 63.5093 211.12C60.8693 211.12 59.4773 212.128 59.3653 214.16H60.9813C61.0613 212.928 61.8773 212.432 63.6213 212.432C65.1733 212.432 65.8933 212.832 65.8933 213.76C65.8933 214.8 64.9013 214.752 62.9973 214.96C60.5493 215.232 59.0293 215.648 59.0293 217.648C59.0293 219.248 60.1653 220.24 62.3253 220.24C63.9093 220.24 65.1573 219.664 65.9413 218.672ZM71.3621 211.392H69.8101V223.056H71.3621V218.736C72.2421 219.744 73.2981 220.24 74.6741 220.24C77.4101 220.24 79.2981 218.384 79.2981 215.712C79.2981 213.024 77.4101 211.12 74.6901 211.12C73.2341 211.12 72.0821 211.728 71.3621 212.688V211.392ZM74.5141 212.56C76.4661 212.56 77.6501 213.776 77.6501 215.712C77.6501 217.632 76.4661 218.8 74.5141 218.8C72.5621 218.8 71.3621 217.616 71.3621 215.712C71.3621 213.792 72.5621 212.56 74.5141 212.56ZM85.4443 211.392V212.704H91.5723L85.1083 218.464V220H93.6043V218.688H87.0763L93.4443 212.768V211.392H85.4443ZM99.1999 211.12C96.2399 211.12 94.3839 212.944 94.3839 215.712C94.3839 218.48 96.2399 220.24 99.1999 220.24C102.16 220.24 104 218.48 104 215.712C104 212.944 102.16 211.12 99.1999 211.12ZM99.1999 212.56C101.168 212.56 102.352 213.728 102.352 215.68C102.352 217.632 101.168 218.8 99.1999 218.8C97.2319 218.8 96.0319 217.632 96.0319 215.68C96.0319 213.728 97.2319 212.56 99.1999 212.56ZM106.973 211.392H105.421V220H106.973V215.632C106.973 213.712 108.333 212.432 110.157 212.432C111.709 212.432 112.221 213.264 112.221 215.008V220H113.773V214.88C113.773 212.624 113.117 211.12 110.509 211.12C108.973 211.12 107.773 211.824 106.973 212.88V211.392ZM124.605 216.016V215.712C124.605 212.848 122.861 211.12 119.917 211.12C117.037 211.12 115.197 212.928 115.197 215.712C115.197 218.48 117.021 220.24 119.917 220.24C122.205 220.24 123.853 219.184 124.461 217.328H122.653C122.301 218.272 121.277 218.8 119.917 218.8C118.077 218.8 116.845 217.696 116.845 216.016H124.605ZM116.877 214.912C117.133 213.44 118.269 212.56 119.917 212.56C121.581 212.56 122.701 213.456 122.941 214.912H116.877ZM135.534 208.512C135.07 208.416 134.606 208.384 134.094 208.384C132.542 208.384 131.87 209.024 131.87 210.496V211.392H130.35V212.704H131.87V220H133.422V212.704H135.534V211.392H133.422V210.816C133.422 210.064 133.694 209.824 134.494 209.824C134.798 209.824 135.134 209.84 135.534 209.92V208.512ZM140.912 211.12C137.952 211.12 136.096 212.944 136.096 215.712C136.096 218.48 137.952 220.24 140.912 220.24C143.872 220.24 145.712 218.48 145.712 215.712C145.712 212.944 143.872 211.12 140.912 211.12ZM140.912 212.56C142.88 212.56 144.064 213.728 144.064 215.68C144.064 217.632 142.88 218.8 140.912 218.8C138.944 218.8 137.744 217.632 137.744 215.68C137.744 213.728 138.944 212.56 140.912 212.56ZM148.685 211.392H147.133V220H148.685V215.792C148.685 213.968 149.949 212.72 151.421 212.72C151.757 212.72 152.109 212.768 152.541 212.896V211.264C152.333 211.152 152.125 211.12 151.853 211.12C150.573 211.12 149.469 211.712 148.685 212.848V211.392ZM157.985 216.4V216.48C157.985 219.056 159.473 220.304 162.513 220.304C165.457 220.304 167.137 218.816 167.137 216.64C167.137 215.104 166.257 214.176 164.609 214.016C165.969 213.664 166.641 212.816 166.641 211.552C166.641 209.744 165.089 208.384 162.513 208.384C159.777 208.384 158.225 209.76 158.225 212.256H159.889C159.889 210.608 160.865 209.824 162.545 209.824C164.081 209.824 164.993 210.624 164.993 211.76C164.993 212.928 164.033 213.472 162.161 213.472H161.537V214.768H162.225C164.369 214.768 165.425 215.408 165.425 216.784C165.425 218.048 164.353 218.864 162.449 218.864C160.577 218.864 159.601 218.016 159.601 216.4H157.985ZM172.944 208.384C169.984 208.384 168.304 210.496 168.304 214.336C168.304 218.176 169.984 220.304 172.944 220.304C175.904 220.304 177.6 218.192 177.6 214.336C177.6 210.48 175.904 208.384 172.944 208.384ZM172.96 209.904C174.992 209.904 175.952 211.344 175.952 214.336C175.952 217.328 174.992 218.784 172.96 218.784C170.944 218.784 169.952 217.328 169.952 214.336C169.952 211.344 170.944 209.904 172.96 209.904ZM178.766 215.84H184.318V214.736H178.766V215.84ZM186.836 208.672L185.828 214.88H187.428C187.924 214.096 188.804 213.664 189.972 213.664C191.78 213.664 192.964 214.72 192.964 216.208C192.964 217.728 191.748 218.864 189.892 218.864C188.292 218.864 187.38 218.144 187.172 216.88H185.524C185.764 219.008 187.38 220.304 189.908 220.304C192.82 220.304 194.612 218.512 194.612 216.064C194.612 213.808 192.772 212.304 190.42 212.304C189.172 212.304 188.196 212.656 187.524 213.344L188.068 210.112H193.796V208.672H186.836ZM200.546 208.384C197.586 208.384 195.906 210.496 195.906 214.336C195.906 218.176 197.586 220.304 200.546 220.304C203.506 220.304 205.202 218.192 205.202 214.336C205.202 210.48 203.506 208.384 200.546 208.384ZM200.562 209.904C202.594 209.904 203.554 211.344 203.554 214.336C203.554 217.328 202.594 218.784 200.562 218.784C198.546 218.784 197.554 217.328 197.554 214.336C197.554 211.344 198.546 209.904 200.562 209.904ZM213.328 211.392H211.776V223.056H213.328V218.736C214.208 219.744 215.264 220.24 216.64 220.24C219.376 220.24 221.264 218.384 221.264 215.712C221.264 213.024 219.376 211.12 216.656 211.12C215.2 211.12 214.048 211.728 213.328 212.688V211.392ZM216.48 212.56C218.432 212.56 219.616 213.776 219.616 215.712C219.616 217.632 218.432 218.8 216.48 218.8C214.528 218.8 213.328 217.616 213.328 215.712C213.328 213.792 214.528 212.56 216.48 212.56ZM231.539 216.016V215.712C231.539 212.848 229.795 211.12 226.851 211.12C223.971 211.12 222.131 212.928 222.131 215.712C222.131 218.48 223.955 220.24 226.851 220.24C229.139 220.24 230.787 219.184 231.395 217.328H229.587C229.235 218.272 228.211 218.8 226.851 218.8C225.011 218.8 223.779 217.696 223.779 216.016H231.539ZM223.811 214.912C224.067 213.44 225.203 212.56 226.851 212.56C228.515 212.56 229.635 213.456 229.875 214.912H223.811ZM237.221 211.12C234.261 211.12 232.405 212.944 232.405 215.712C232.405 218.48 234.261 220.24 237.221 220.24C240.181 220.24 242.021 218.48 242.021 215.712C242.021 212.944 240.181 211.12 237.221 211.12ZM237.221 212.56C239.189 212.56 240.373 213.728 240.373 215.68C240.373 217.632 239.189 218.8 237.221 218.8C235.253 218.8 234.053 217.632 234.053 215.68C234.053 213.728 235.253 212.56 237.221 212.56ZM244.993 211.392H243.441V223.056H244.993V218.736C245.873 219.744 246.929 220.24 248.305 220.24C251.041 220.24 252.929 218.384 252.929 215.712C252.929 213.024 251.041 211.12 248.321 211.12C246.865 211.12 245.713 211.728 244.993 212.688V211.392ZM248.145 212.56C250.097 212.56 251.281 213.776 251.281 215.712C251.281 217.632 250.097 218.8 248.145 218.8C246.193 218.8 244.993 217.616 244.993 215.712C244.993 213.792 246.193 212.56 248.145 212.56ZM256.036 208.384H254.484V220H256.036V208.384ZM266.993 216.016V215.712C266.993 212.848 265.249 211.12 262.305 211.12C259.425 211.12 257.585 212.928 257.585 215.712C257.585 218.48 259.409 220.24 262.305 220.24C264.593 220.24 266.241 219.184 266.849 217.328H265.041C264.689 218.272 263.665 218.8 262.305 218.8C260.465 218.8 259.233 217.696 259.233 216.016H266.993ZM259.265 214.912C259.521 213.44 260.657 212.56 262.305 212.56C263.969 212.56 265.089 213.456 265.329 214.912H259.265ZM268.851 220H269.795V220.24C269.795 220.96 269.523 221.36 268.851 221.616V222.672C270.307 222.144 270.771 221.424 270.771 220V218.08H268.851V220ZM268.851 213.344H270.771V211.424H268.851V213.344ZM20.768 239.84H26.32V238.736H20.768V239.84ZM39.5095 239.584V240.864C39.5095 241.952 38.1815 242.928 36.1975 242.928C34.9815 242.928 34.2935 242.384 34.2935 241.568C34.2935 240.512 35.2215 240.368 36.9015 240.176C38.1975 240.032 39.0615 239.856 39.5095 239.584ZM39.5575 242.672C39.7175 243.6 40.1655 244.096 41.0615 244.096C41.3495 244.096 41.7975 244.064 42.2935 243.984V242.736C42.1015 242.768 41.9575 242.784 41.8295 242.784C41.2215 242.784 41.0615 242.352 41.0615 241.456V237.968C41.0615 235.872 39.9895 235.12 37.1255 235.12C34.4855 235.12 33.0935 236.128 32.9815 238.16H34.5975C34.6775 236.928 35.4935 236.432 37.2375 236.432C38.7895 236.432 39.5095 236.832 39.5095 237.76C39.5095 238.8 38.5175 238.752 36.6135 238.96C34.1655 239.232 32.6455 239.648 32.6455 241.648C32.6455 243.248 33.7815 244.24 35.9415 244.24C37.5255 244.24 38.7735 243.664 39.5575 242.672ZM44.9784 235.392H43.4264V244H44.9784V239.792C44.9784 237.968 46.2424 236.72 47.7144 236.72C48.0504 236.72 48.4024 236.768 48.8344 236.896V235.264C48.6264 235.152 48.4184 235.12 48.1464 235.12C46.8664 235.12 45.7624 235.712 44.9784 236.848V235.392ZM58.4387 240.016V239.712C58.4387 236.848 56.6947 235.12 53.7507 235.12C50.8707 235.12 49.0307 236.928 49.0307 239.712C49.0307 242.48 50.8547 244.24 53.7507 244.24C56.0387 244.24 57.6867 243.184 58.2948 241.328H56.4867C56.1347 242.272 55.1107 242.8 53.7507 242.8C51.9107 242.8 50.6787 241.696 50.6787 240.016H58.4387ZM50.7107 238.912C50.9667 237.44 52.1027 236.56 53.7507 236.56C55.4147 236.56 56.5347 237.456 56.7747 238.912H50.7107ZM66.4245 239.584V240.864C66.4245 241.952 65.0965 242.928 63.1125 242.928C61.8965 242.928 61.2085 242.384 61.2085 241.568C61.2085 240.512 62.1365 240.368 63.8165 240.176C65.1125 240.032 65.9765 239.856 66.4245 239.584ZM66.4725 242.672C66.6325 243.6 67.0805 244.096 67.9765 244.096C68.2645 244.096 68.7125 244.064 69.2085 243.984V242.736C69.0165 242.768 68.8725 242.784 68.7445 242.784C68.1365 242.784 67.9765 242.352 67.9765 241.456V237.968C67.9765 235.872 66.9045 235.12 64.0405 235.12C61.4005 235.12 60.0085 236.128 59.8965 238.16H61.5125C61.5925 236.928 62.4085 236.432 64.1525 236.432C65.7045 236.432 66.4245 236.832 66.4245 237.76C66.4245 238.8 65.4325 238.752 63.5285 238.96C61.0805 239.232 59.5605 239.648 59.5605 241.648C59.5605 243.248 60.6965 244.24 62.8565 244.24C64.4405 244.24 65.6885 243.664 66.4725 242.672ZM79.6211 235.12C76.6611 235.12 74.8051 236.944 74.8051 239.712C74.8051 242.48 76.6611 244.24 79.6211 244.24C82.5811 244.24 84.4211 242.48 84.4211 239.712C84.4211 236.944 82.5811 235.12 79.6211 235.12ZM79.6211 236.56C81.5891 236.56 82.7731 237.728 82.7731 239.68C82.7731 241.632 81.5891 242.8 79.6211 242.8C77.6531 242.8 76.4531 241.632 76.4531 239.68C76.4531 237.728 77.6531 236.56 79.6211 236.56ZM90.322 232.512C89.858 232.416 89.394 232.384 88.882 232.384C87.33 232.384 86.658 233.024 86.658 234.496V235.392H85.138V236.704H86.658V244H88.21V236.704H90.322V235.392H88.21V234.816C88.21 234.064 88.482 233.824 89.282 233.824C89.586 233.824 89.922 233.84 90.322 233.92V232.512ZM103.028 239.584V240.864C103.028 241.952 101.7 242.928 99.7156 242.928C98.4996 242.928 97.8116 242.384 97.8116 241.568C97.8116 240.512 98.7396 240.368 100.42 240.176C101.716 240.032 102.58 239.856 103.028 239.584ZM103.076 242.672C103.236 243.6 103.684 244.096 104.58 244.096C104.868 244.096 105.316 244.064 105.812 243.984V242.736C105.62 242.768 105.476 242.784 105.348 242.784C104.74 242.784 104.58 242.352 104.58 241.456V237.968C104.58 235.872 103.508 235.12 100.644 235.12C98.0036 235.12 96.6116 236.128 96.4996 238.16H98.1156C98.1956 236.928 99.0116 236.432 100.756 236.432C102.308 236.432 103.028 236.832 103.028 237.76C103.028 238.8 102.036 238.752 100.132 238.96C97.6836 239.232 96.1636 239.648 96.1636 241.648C96.1636 243.248 97.2996 244.24 99.4596 244.24C101.044 244.24 102.292 243.664 103.076 242.672ZM108.497 235.392H106.945V244H108.497V239.792C108.497 237.968 109.761 236.72 111.233 236.72C111.569 236.72 111.921 236.768 112.353 236.896V235.264C112.145 235.152 111.937 235.12 111.665 235.12C110.385 235.12 109.281 235.712 108.497 236.848V235.392ZM113.829 233.2V235.392H112.325V236.704H113.829V242.256C113.829 243.6 114.533 244.24 116.053 244.24C116.485 244.24 116.965 244.176 117.493 244.096V242.672C117.077 242.768 116.741 242.8 116.437 242.8C115.669 242.8 115.381 242.528 115.381 241.808V236.704H117.493V235.392H115.381V233.2H113.829ZM132.489 240.016V239.712C132.489 236.848 130.745 235.12 127.801 235.12C124.921 235.12 123.081 236.928 123.081 239.712C123.081 242.48 124.905 244.24 127.801 244.24C130.089 244.24 131.737 243.184 132.345 241.328H130.537C130.185 242.272 129.161 242.8 127.801 242.8C125.961 242.8 124.729 241.696 124.729 240.016H132.489ZM124.761 238.912C125.017 237.44 126.153 236.56 127.801 236.56C129.465 236.56 130.585 237.456 130.825 238.912H124.761ZM132.864 235.392L136.336 239.632L132.496 244H134.544L137.424 240.64L140.048 244H142.224L138.368 239.632L142.064 235.392H139.984L137.424 238.688L134.976 235.392H132.864ZM144.568 232.384H143.016V244H144.568V239.632C144.568 237.712 145.928 236.432 147.752 236.432C149.304 236.432 149.816 237.264 149.816 239.008V244H151.368V238.88C151.368 236.624 150.712 235.12 148.104 235.12C146.568 235.12 145.368 235.824 144.568 236.88V232.384ZM155.033 235.392H153.481V244H155.033V235.392ZM155.033 234.272V232.384H153.481V234.272H155.033ZM157.142 232.384V244H158.694V242.736C159.542 243.76 160.63 244.24 162.022 244.24C164.742 244.24 166.614 242.416 166.614 239.728C166.614 237.056 164.742 235.12 162.006 235.12C160.63 235.12 159.494 235.696 158.694 236.704V232.384H157.142ZM161.846 236.56C163.798 236.56 164.966 237.792 164.966 239.712C164.966 241.648 163.798 242.8 161.846 242.8C159.894 242.8 158.694 241.648 158.694 239.728C158.694 237.824 159.894 236.56 161.846 236.56ZM169.721 235.392H168.169V244H169.721V235.392ZM169.721 234.272V232.384H168.169V234.272H169.721ZM172.55 233.2V235.392H171.046V236.704H172.55V242.256C172.55 243.6 173.254 244.24 174.774 244.24C175.206 244.24 175.686 244.176 176.214 244.096V242.672C175.798 242.768 175.462 242.8 175.158 242.8C174.39 242.8 174.102 242.528 174.102 241.808V236.704H176.214V235.392H174.102V233.2H172.55ZM179.018 235.392H177.466V244H179.018V235.392ZM179.018 234.272V232.384H177.466V234.272H179.018ZM185.384 235.12C182.424 235.12 180.568 236.944 180.568 239.712C180.568 242.48 182.424 244.24 185.384 244.24C188.344 244.24 190.184 242.48 190.184 239.712C190.184 236.944 188.344 235.12 185.384 235.12ZM185.384 236.56C187.352 236.56 188.536 237.728 188.536 239.68C188.536 241.632 187.352 242.8 185.384 242.8C183.416 242.8 182.216 241.632 182.216 239.68C182.216 237.728 183.416 236.56 185.384 236.56ZM193.156 235.392H191.604V244H193.156V239.632C193.156 237.712 194.516 236.432 196.34 236.432C197.892 236.432 198.404 237.264 198.404 239.008V244H199.957V238.88C199.957 236.624 199.3 235.12 196.692 235.12C195.156 235.12 193.956 235.824 193.156 236.88V235.392ZM209.573 237.984C209.573 236.128 208.229 235.12 205.653 235.12C203.093 235.12 201.781 236.08 201.781 237.856C201.781 239.44 202.789 239.888 204.805 240.224L206.725 240.56C207.813 240.736 208.293 240.96 208.293 241.632C208.293 242.416 207.365 242.928 205.605 242.928C204.117 242.928 203.221 242.304 203.077 241.2H201.381C201.573 243.312 202.933 244.24 205.605 244.24C208.421 244.24 209.845 243.296 209.845 241.552C209.845 240 209.061 239.424 207.141 239.104L205.285 238.8C203.973 238.576 203.333 238.416 203.333 237.584C203.333 236.848 204.117 236.432 205.573 236.432C207.125 236.432 207.957 236.912 208.069 237.984H209.573ZM211.821 244H213.741V242.08H211.821V244Z" fill="#292929"></path> <path d="M40.04 53.072H33.608C33.32 54.512 32.072 55.424 30.392 55.424C28.4 55.424 27.08 54.2 27.08 52.232C27.08 50.24 28.4 49.016 30.536 49.016C32 49.016 32.984 49.64 33.464 50.888H39.92C39.368 47.048 36.152 45.056 30.392 45.056C24.128 45.056 20.72 47.768 20.72 52.256C20.72 56.768 24.128 59.456 30.392 59.456C36.368 59.456 39.608 57.32 40.04 53.072ZM60.4445 54.896H53.8925C53.4845 55.568 52.5005 55.952 51.0125 55.952C48.7565 55.952 47.5085 55.088 47.5085 53.648H60.5645V53.408C60.5645 47.936 57.1805 45.056 50.6525 45.056C44.4365 45.056 41.0525 47.744 41.0525 52.256C41.0525 56.768 44.4365 59.456 50.6525 59.456C56.2445 59.456 59.5565 57.848 60.4445 54.896ZM47.1965 50.768C47.5085 49.232 48.8525 48.416 50.9885 48.416C52.9805 48.416 54.2045 49.28 54.3725 50.768H47.1965ZM62.3428 59H68.3668V52.4C68.3668 50.912 69.4708 50.024 71.2228 50.024C72.9268 50.024 73.4068 50.792 73.4068 52.664V59H79.4308V51.536C79.4308 47.264 77.7508 45.248 73.7188 45.248C71.7028 45.248 69.9988 45.776 68.3668 46.904V45.512H62.3428V59ZM91.1859 58.976V55.256H90.3219C88.8579 55.256 88.8579 54.512 88.8579 52.4V49.616H91.0179V45.824H88.8579V41.408H82.7619V45.824H80.6259V49.616H82.7619V54.896C82.7619 56.84 83.0019 58.04 84.6099 58.688C85.5699 59.072 86.7699 59.24 88.2099 59.24C89.1939 59.24 90.1779 59.144 91.1859 58.976ZM92.885 59H99.005V52.04C99.005 50.336 99.317 49.472 100.421 49.472C101.381 49.472 101.837 50.168 101.837 51.512V51.608H107.165V50.432C107.165 46.832 105.821 45.176 102.677 45.176C101.021 45.176 99.797 45.68 98.933 46.544L98.861 45.512H92.885V59ZM121.168 57.152C121.192 57.824 121.312 58.448 121.552 59H127.816V58.712C127.336 58.352 127.216 57.8 127.216 56.912V51.704C127.216 49.328 126.904 47.816 125.368 46.616C124.12 45.656 121.72 45.152 118.144 45.152C112.072 45.152 109.144 46.256 108.88 49.712H115.096C115.264 48.656 116.248 48.368 118.192 48.368C119.944 48.368 120.88 48.896 120.88 49.592C120.88 50.696 118.912 50.408 114.688 50.696C111.784 50.888 109.72 51.032 108.472 52.592C108.016 53.168 107.752 54.008 107.752 55.016C107.752 57.968 109.96 59.432 114.376 59.432C117.424 59.432 119.536 58.856 121.168 57.152ZM121.144 52.712C121.168 52.832 121.168 52.928 121.168 53.048C121.168 54.776 119.512 55.976 116.8 55.976C115.384 55.976 114.592 55.472 114.592 54.632C114.592 53.792 115.288 53.552 116.896 53.408C118.504 53.264 119.92 53.312 121.144 52.712ZM130.061 59H136.229V41.432H130.061V59ZM21.632 83H27.656V76.376C27.656 74.888 28.76 74 30.512 74C32.216 74 32.72 74.768 32.72 76.664V83H38.744V75.512C38.744 71.24 37.04 69.224 33.008 69.224C30.992 69.224 29.288 69.752 27.656 70.88V65.432H21.632L21.632 83ZM53.666 81.152C53.69 81.824 53.81 82.448 54.05 83H60.314V82.712C59.834 82.352 59.714 81.8 59.714 80.912V75.704C59.714 73.328 59.402 71.816 57.866 70.616C56.618 69.656 54.218 69.152 50.642 69.152C44.57 69.152 41.642 70.256 41.378 73.712H47.594C47.762 72.656 48.746 72.368 50.69 72.368C52.442 72.368 53.378 72.896 53.378 73.592C53.378 74.696 51.41 74.408 47.186 74.696C44.282 74.888 42.218 75.032 40.97 76.592C40.514 77.168 40.25 78.008 40.25 79.016C40.25 81.968 42.458 83.432 46.874 83.432C49.922 83.432 52.034 82.856 53.666 81.152ZM53.642 76.712C53.666 76.832 53.666 76.928 53.666 77.048C53.666 78.776 52.01 79.976 49.298 79.976C47.882 79.976 47.09 79.472 47.09 78.632C47.09 77.792 47.786 77.552 49.394 77.408C51.002 77.264 52.418 77.312 53.642 76.712ZM62.3428 83H68.3668V76.4C68.3668 74.912 69.4708 74.024 71.2228 74.024C72.9268 74.024 73.4068 74.792 73.4068 76.664V83H79.4308V75.536C79.4308 71.264 77.7508 69.248 73.7188 69.248C71.7028 69.248 69.9988 69.776 68.3668 70.904V69.512H62.3428V83ZM99.7779 80V69.488H94.0419L93.9939 70.784C92.5299 69.656 90.7059 69.152 88.4739 69.152C84.0339 69.152 81.2259 71.768 81.2259 75.632C81.2259 79.52 84.0099 82.112 88.4499 82.112C90.6099 82.112 92.3379 81.656 93.7539 80.6C93.7779 80.888 93.7779 81.104 93.7779 81.344C93.7779 83.12 93.0819 83.864 91.2339 83.864C90.3699 83.864 89.8899 83.624 89.6979 83H81.6099C82.1859 86.144 85.0179 87.488 90.3459 87.488C94.9059 87.488 97.6899 86.48 99.2499 83.888C99.7299 83.072 99.7779 81.776 99.7779 80ZM87.5619 75.752C87.5619 74.216 88.8099 73.208 90.6579 73.208C92.5059 73.208 93.7539 74.216 93.7539 75.752C93.7539 77.312 92.5299 78.296 90.6579 78.296C88.7859 78.296 87.5619 77.312 87.5619 75.752ZM114.828 81.152C114.852 81.824 114.972 82.448 115.212 83H121.476V82.712C120.996 82.352 120.876 81.8 120.876 80.912V75.704C120.876 73.328 120.564 71.816 119.028 70.616C117.78 69.656 115.38 69.152 111.804 69.152C105.732 69.152 102.804 70.256 102.54 73.712H108.756C108.924 72.656 109.908 72.368 111.852 72.368C113.604 72.368 114.54 72.896 114.54 73.592C114.54 74.696 112.572 74.408 108.348 74.696C105.444 74.888 103.38 75.032 102.132 76.592C101.676 77.168 101.412 78.008 101.412 79.016C101.412 81.968 103.62 83.432 108.036 83.432C111.084 83.432 113.196 82.856 114.828 81.152ZM114.804 76.712C114.828 76.832 114.828 76.928 114.828 77.048C114.828 78.776 113.172 79.976 110.46 79.976C109.044 79.976 108.252 79.472 108.252 78.632C108.252 77.792 108.948 77.552 110.556 77.408C112.164 77.264 113.58 77.312 114.804 76.712ZM123.6 83H129.72V76.04C129.72 74.336 130.032 73.472 131.136 73.472C132.096 73.472 132.552 74.168 132.552 75.512V75.608H137.88V74.432C137.88 70.832 136.536 69.176 133.392 69.176C131.736 69.176 130.512 69.68 129.648 70.544L129.576 69.512H123.6V83Z" fill="#052D1E"></path> </svg> 