<?xml version="1.0" encoding="UTF-8"?> <svg xmlns="http://www.w3.org/2000/svg" width="145" height="212" viewBox="0 0 145 212" fill="none"> <path d="M79 9.5L101 6V4L108 2L115 5V8L138 20V16H143V41L137.5 52V58L66 210H60L59 207L50 206L45 209V205L36 204L30 206V203L21 202L16 204V201L7 199L2 202V178L3.39554 175L79 9.5Z" stroke="#FFE600" stroke-width="3"></path> <mask id="mask0" maskUnits="userSpaceOnUse" x="2" y="2" width="141" height="208"> <path d="M79 9.5L101 6V4L108 2L115 5V8L138 20V16H143V41L137.5 52V58L66 210H60L59 207L50 206L45 209V205L36 204L30 206V203L21 202L16 204V201L7 199L2 202V178L3.39554 175L79 9.5Z" fill="#FFE600"></path> </mask> <g mask="url(#mask0)"> <rect x="-163" y="111.416" width="4" height="326" transform="rotate(-45 -163 111.416)" fill="#FFE600"></rect> <rect x="-157.344" y="105.759" width="4" height="326" transform="rotate(-45 -157.344 105.759)" fill="#FFE600"></rect> <rect x="-151.686" y="100.103" width="4" height="326" transform="rotate(-45 -151.686 100.103)" fill="#FFE600"></rect> <rect x="-146.029" y="94.4457" width="4" height="326" transform="rotate(-45 -146.029 94.4457)" fill="#FFE600"></rect> <rect x="-140.373" y="88.7888" width="4" height="326" transform="rotate(-45 -140.373 88.7888)" fill="#FFE600"></rect> <rect x="-134.715" y="83.132" width="4" height="326" transform="rotate(-45 -134.715 83.132)" fill="#FFE600"></rect> <rect x="-129.059" y="77.4751" width="4" height="326" transform="rotate(-45 -129.059 77.4751)" fill="#FFE600"></rect> <rect x="-123.402" y="71.8182" width="4" height="326" transform="rotate(-45 -123.402 71.8182)" fill="#FFE600"></rect> <rect x="-117.746" y="66.1614" width="4" height="326" transform="rotate(-45 -117.746 66.1614)" fill="#FFE600"></rect> <rect x="-112.088" y="60.5046" width="4" height="326" transform="rotate(-45 -112.088 60.5046)" fill="#FFE600"></rect> <rect x="-106.432" y="54.8477" width="4" height="326" transform="rotate(-45 -106.432 54.8477)" fill="#FFE600"></rect> <rect x="-100.775" y="49.1909" width="4" height="326" transform="rotate(-45 -100.775 49.1909)" fill="#FFE600"></rect> <rect x="-95.1172" y="43.5339" width="4" height="326" transform="rotate(-45 -95.1172 43.5339)" fill="#FFE600"></rect> <rect x="-89.4609" y="37.8772" width="4" height="326" transform="rotate(-45 -89.4609 37.8772)" fill="#FFE600"></rect> <rect x="-83.8047" y="32.2202" width="4" height="326" transform="rotate(-45 -83.8047 32.2202)" fill="#FFE600"></rect> <rect x="-78.1465" y="26.5635" width="4" height="326" transform="rotate(-45 -78.1465 26.5635)" fill="#FFE600"></rect> <rect x="-72.4902" y="20.9065" width="4" height="326" transform="rotate(-45 -72.4902 20.9065)" fill="#FFE600"></rect> <rect x="-66.834" y="15.2498" width="4" height="326" transform="rotate(-45 -66.834 15.2498)" fill="#FFE600"></rect> <rect x="-61.1758" y="9.59277" width="4" height="326" transform="rotate(-45 -61.1758 9.59277)" fill="#FFE600"></rect> <rect x="-55.5195" y="3.93604" width="4" height="326" transform="rotate(-45 -55.5195 3.93604)" fill="#FFE600"></rect> <rect x="-49.8633" y="-1.7207" width="4" height="326" transform="rotate(-45 -49.8633 -1.7207)" fill="#FFE600"></rect> <rect x="-44.207" y="-7.37769" width="4" height="326" transform="rotate(-45 -44.207 -7.37769)" fill="#FFE600"></rect> <rect x="-38.5488" y="-13.0344" width="4" height="326" transform="rotate(-45 -38.5488 -13.0344)" fill="#FFE600"></rect> <rect x="-32.8926" y="-18.6914" width="4" height="326" transform="rotate(-45 -32.8926 -18.6914)" fill="#FFE600"></rect> <rect x="-27.2363" y="-24.3481" width="4" height="326" transform="rotate(-45 -27.2363 -24.3481)" fill="#FFE600"></rect> <rect x="-21.5781" y="-30.0051" width="4" height="326" transform="rotate(-45 -21.5781 -30.0051)" fill="#FFE600"></rect> <rect x="-15.9219" y="-35.6619" width="4" height="326" transform="rotate(-45 -15.9219 -35.6619)" fill="#FFE600"></rect> <rect x="-10.2656" y="-41.3188" width="4" height="326" transform="rotate(-45 -10.2656 -41.3188)" fill="#FFE600"></rect> <rect x="-4.60742" y="-46.9756" width="4" height="326" transform="rotate(-45 -4.60742 -46.9756)" fill="#FFE600"></rect> <rect x="1.04883" y="-52.6326" width="4" height="326" transform="rotate(-45 1.04883 -52.6326)" fill="#FFE600"></rect> <rect x="6.70508" y="-58.2893" width="4" height="326" transform="rotate(-45 6.70508 -58.2893)" fill="#FFE600"></rect> <rect x="12.3633" y="-63.9463" width="4" height="326" transform="rotate(-45 12.3633 -63.9463)" fill="#FFE600"></rect> <rect x="18.0195" y="-69.603" width="4" height="326" transform="rotate(-45 18.0195 -69.603)" fill="#FFE600"></rect> <rect x="23.6758" y="-75.26" width="4" height="326" transform="rotate(-45 23.6758 -75.26)" fill="#FFE600"></rect> <rect x="29.334" y="-80.9167" width="4" height="326" transform="rotate(-45 29.334 -80.9167)" fill="#FFE600"></rect> <rect x="34.9902" y="-86.5737" width="4" height="326" transform="rotate(-45 34.9902 -86.5737)" fill="#FFE600"></rect> <rect x="40.6465" y="-92.2305" width="4" height="326" transform="rotate(-45 40.6465 -92.2305)" fill="#FFE600"></rect> <rect x="46.3027" y="-97.8875" width="4" height="326" transform="rotate(-45 46.3027 -97.8875)" fill="#FFE600"></rect> <rect x="51.9609" y="-103.544" width="4" height="326" transform="rotate(-45 51.9609 -103.544)" fill="#FFE600"></rect> <rect x="57.6172" y="-109.201" width="4" height="326" transform="rotate(-45 57.6172 -109.201)" fill="#FFE600"></rect> <rect x="63.2734" y="-114.858" width="4" height="326" transform="rotate(-45 63.2734 -114.858)" fill="#FFE600"></rect> <rect x="68.9316" y="-120.515" width="4" height="326" transform="rotate(-45 68.9316 -120.515)" fill="#FFE600"></rect> <rect x="74.5879" y="-126.172" width="4" height="326" transform="rotate(-45 74.5879 -126.172)" fill="#FFE600"></rect> </g> </svg> 