<?xml version="1.0" encoding="UTF-8"?> <svg xmlns="http://www.w3.org/2000/svg" width="90" height="304" viewBox="0 0 90 304" fill="none"> <path d="M4.66 244.24L4.66 296.8L70 296.8L70 240.91C70 224.62 63.7 216.52 51.37 216.52C43.18 216.52 37.69 220.39 35.26 227.86C32.29 222.19 27.34 219.22 20.95 219.22C8.43999 219.22 4.66 227.23 4.66 244.24ZM19.96 271.51L19.96 254.5C19.96 248.56 20.14 245.68 24.55 245.68C28.78 245.68 29.23 248.47 29.23 254.5L29.23 271.51L19.96 271.51ZM53.71 271.51L42.91 271.51L42.91 253.6C42.91 246.76 43.54 243.7 48.4 243.7C53.26 243.7 53.71 246.94 53.71 253.6L53.71 271.51ZM15.19 207.995L15.19 184.865L2.31999 184.865L2.31999 207.995L15.19 207.995ZM70 207.995L70 184.865L19.33 184.865L19.33 207.995L70 207.995ZM49.39 142.723C49.39 136.693 50.56 132.823 54.52 132.823C58.21 132.823 60.28 137.053 60.28 143.713C60.28 149.473 57.67 155.143 54.52 155.143L54.52 177.913C60.46 177.913 65.86 175.393 68.65 168.193C70.81 162.523 71.62 152.983 71.62 143.173C71.62 136.333 70.72 121.483 67.21 115.903C64.87 111.943 61.36 109.243 57.31 109.243C50.2 109.243 45.61 113.833 43.81 123.913C42.73 115.633 38.14 112.123 31.66 112.303C20.41 112.573 18.07 129.673 18.07 142.183C18.07 151.723 19.06 159.103 21.04 164.323C23.56 170.533 27.52 174.133 33.1 175.213L33.1 152.353C30.67 151.453 29.5 148.483 29.5 143.353C29.5 138.403 31.48 134.983 33.91 134.983C37.06 134.983 39.4 138.763 39.4 143.983L39.4 154.063L49.39 154.063L49.39 142.723ZM15.19 101.029L15.19 77.8989L2.31999 77.8989L2.31999 101.029L15.19 101.029ZM70 101.029L70 77.8989L19.33 77.8989L19.33 101.029L70 101.029ZM19.42 6.5064L19.42 44.3064C19.42 61.1364 23.65 69.5064 35.98 69.5064C43.81 69.5064 49.12 64.3764 51.46 56.3664L70 70.5864L70 46.8264L52.54 34.7664L52.54 29.0964L70 29.0964L70 6.5064L19.42 6.5064ZM40.48 29.0964L40.48 40.9764C40.48 45.4764 38.95 46.8264 36.34 46.8264C33.37 46.8264 32.02 45.5664 32.02 41.1564L32.02 29.0964L40.48 29.0964Z" fill="#052D1E"></path> <rect x="87" y="6" width="3" height="292" fill="#052D1E"></rect> </svg> 