<?xml version="1.0" encoding="UTF-8"?> <svg xmlns="http://www.w3.org/2000/svg" width="333" height="196" viewBox="0 0 333 196" fill="none"> <rect width="333" height="196" fill="white"></rect> <path d="M20.768 119.84H28.944V118.736H20.768V119.84ZM42.1345 119.584V120.864C42.1345 121.952 40.8065 122.928 38.8225 122.928C37.6065 122.928 36.9185 122.384 36.9185 121.568C36.9185 120.512 37.8465 120.368 39.5265 120.176C40.8225 120.032 41.6865 119.856 42.1345 119.584ZM42.1825 122.672C42.3425 123.6 42.7905 124.096 43.6865 124.096C43.9745 124.096 44.4225 124.064 44.9185 123.984V122.736C44.7265 122.768 44.5825 122.784 44.4545 122.784C43.8465 122.784 43.6865 122.352 43.6865 121.456V117.968C43.6865 115.872 42.6145 115.12 39.7505 115.12C37.1105 115.12 35.7185 116.128 35.6065 118.16H37.2225C37.3025 116.928 38.1185 116.432 39.8625 116.432C41.4145 116.432 42.1345 116.832 42.1345 117.76C42.1345 118.8 41.1425 118.752 39.2385 118.96C36.7905 119.232 35.2705 119.648 35.2705 121.648C35.2705 123.248 36.4065 124.24 38.5665 124.24C40.1505 124.24 41.3985 123.664 42.1825 122.672ZM47.6034 115.392H46.0514V127.056H47.6034V122.736C48.4834 123.744 49.5394 124.24 50.9154 124.24C53.6514 124.24 55.5394 122.384 55.5394 119.712C55.5394 117.024 53.6514 115.12 50.9314 115.12C49.4754 115.12 48.3234 115.728 47.6034 116.688V115.392ZM50.7554 116.56C52.7074 116.56 53.8914 117.776 53.8914 119.712C53.8914 121.632 52.7074 122.8 50.7554 122.8C48.8034 122.8 47.6034 121.616 47.6034 119.712C47.6034 117.792 48.8034 116.56 50.7554 116.56ZM55.9418 115.392V116.704H59.4458V124H60.9978V116.704H64.5018V115.392H55.9418ZM65.0743 119.84H70.6263V118.736H65.0743V119.84ZM73.784 115.392H72.232V124H79.992V126.544H81.464V122.688H80.584V115.392H79.032V122.688H73.784V115.392ZM91.4631 120.016V119.712C91.4631 116.848 89.7191 115.12 86.7751 115.12C83.8951 115.12 82.0551 116.928 82.0551 119.712C82.0551 122.48 83.8791 124.24 86.7751 124.24C89.0631 124.24 90.7111 123.184 91.3191 121.328H89.5111C89.1591 122.272 88.1351 122.8 86.7751 122.8C84.9351 122.8 83.7031 121.696 83.7031 120.016H91.4631ZM83.7351 118.912C83.9911 117.44 85.1271 116.56 86.7751 116.56C88.4391 116.56 89.5591 117.456 89.7991 118.912H83.7351ZM94.4409 115.392H92.8889V124H94.4409V120.144H99.6889V124H101.241V115.392H99.6889V118.832H94.4409V115.392ZM102.201 115.392V116.704H105.705V124H107.257V116.704H110.761V115.392H102.201ZM113.27 115.392H111.718V127.056H113.27V122.736C114.15 123.744 115.206 124.24 116.582 124.24C119.318 124.24 121.206 122.384 121.206 119.712C121.206 117.024 119.318 115.12 116.598 115.12C115.142 115.12 113.99 115.728 113.27 116.688V115.392ZM116.422 116.56C118.374 116.56 119.558 117.776 119.558 119.712C119.558 121.632 118.374 122.8 116.422 122.8C114.47 122.8 113.27 121.616 113.27 119.712C113.27 117.792 114.47 116.56 116.422 116.56ZM123.064 124H124.008V124.24C124.008 124.96 123.736 125.36 123.064 125.616V126.672C124.52 126.144 124.984 125.424 124.984 124V122.08H123.064V124ZM123.064 117.344H124.984V115.424H123.064V117.344ZM20.768 143.84H28.944V142.736H20.768V143.84ZM35.5745 139.392V148H37.0625V142.304L36.9505 140.672L40.1505 147.76H41.5265L44.6625 140.672L44.5505 142.304V148H46.0385V139.392H43.8465L40.8065 146.16L37.7665 139.392H35.5745ZM56.8681 144.016V143.712C56.8681 140.848 55.1241 139.12 52.1801 139.12C49.3001 139.12 47.4601 140.928 47.4601 143.712C47.4601 146.48 49.2841 148.24 52.1801 148.24C54.4681 148.24 56.1161 147.184 56.7241 145.328H54.9161C54.5641 146.272 53.5401 146.8 52.1801 146.8C50.3401 146.8 49.1081 145.696 49.1081 144.016H56.8681ZM49.1401 142.912C49.3961 141.44 50.5321 140.56 52.1801 140.56C53.8441 140.56 54.9641 141.456 55.2041 142.912H49.1401ZM65.2539 140.704V146.688H59.9739C60.5979 145.696 60.9819 144.672 60.9819 142.48V140.704H65.2539ZM59.5099 139.392V142.368C59.5099 144.672 58.9979 145.808 58.3099 146.688H57.4619V150.544H58.9339V148H66.2139V150.544H67.6859V146.688H66.8059V139.392H59.5099ZM70.5133 139.392H68.9613V148H70.5133V139.392ZM70.5133 138.272V136.384H68.9613V138.272H70.5133ZM79.1826 143.584V144.864C79.1826 145.952 77.8546 146.928 75.8706 146.928C74.6546 146.928 73.9666 146.384 73.9666 145.568C73.9666 144.512 74.8946 144.368 76.5746 144.176C77.8706 144.032 78.7346 143.856 79.1826 143.584ZM79.2306 146.672C79.3906 147.6 79.8386 148.096 80.7346 148.096C81.0226 148.096 81.4706 148.064 81.9666 147.984V146.736C81.7746 146.768 81.6306 146.784 81.5026 146.784C80.8946 146.784 80.7346 146.352 80.7346 145.456V141.968C80.7346 139.872 79.6626 139.12 76.7986 139.12C74.1586 139.12 72.7666 140.128 72.6546 142.16H74.2706C74.3506 140.928 75.1666 140.432 76.9106 140.432C78.4626 140.432 79.1826 140.832 79.1826 141.76C79.1826 142.8 78.1906 142.752 76.2866 142.96C73.8386 143.232 72.3186 143.648 72.3186 145.648C72.3186 147.248 73.4546 148.24 75.6146 148.24C77.1986 148.24 78.4466 147.664 79.2306 146.672ZM88.8593 139.392V144.032C88.8593 146.56 88.5233 146.928 87.6593 146.928C87.3873 146.928 87.1633 146.912 87.0193 146.88V148C87.2593 148.064 87.5953 148.128 88.0273 148.128C89.4993 148.128 90.4113 147.12 90.4113 144.528V140.704H95.2913V148H96.8433V139.392H88.8593ZM105.395 143.584V144.864C105.395 145.952 104.067 146.928 102.083 146.928C100.867 146.928 100.179 146.384 100.179 145.568C100.179 144.512 101.107 144.368 102.787 144.176C104.083 144.032 104.947 143.856 105.395 143.584ZM105.443 146.672C105.603 147.6 106.051 148.096 106.947 148.096C107.235 148.096 107.683 148.064 108.179 147.984V146.736C107.987 146.768 107.843 146.784 107.715 146.784C107.107 146.784 106.947 146.352 106.947 145.456V141.968C106.947 139.872 105.875 139.12 103.011 139.12C100.371 139.12 98.9785 140.128 98.8665 142.16H100.483C100.563 140.928 101.379 140.432 103.123 140.432C104.675 140.432 105.395 140.832 105.395 141.76C105.395 142.8 104.403 142.752 102.499 142.96C100.051 143.232 98.5305 143.648 98.5305 145.648C98.5305 147.248 99.6665 148.24 101.827 148.24C103.411 148.24 104.659 147.664 105.443 146.672ZM116.239 136.4C115.983 136.88 115.631 136.976 113.759 137.216C110.079 137.696 108.751 139.984 108.751 143.312C108.751 146.4 110.415 148.24 113.423 148.24C116.255 148.24 118.319 146.656 118.319 143.936C118.319 141.376 116.431 139.84 113.903 139.84C112.559 139.84 111.087 140.464 110.287 141.424C110.559 139.664 111.615 138.832 114.351 138.464C116.415 138.192 117.151 138.08 117.823 136.4H116.239ZM113.583 140.992C115.455 140.992 116.767 142.016 116.767 143.936C116.767 145.696 115.535 147.088 113.583 147.088C111.567 147.088 110.367 146 110.367 143.968C110.367 142.16 111.679 140.992 113.583 140.992ZM120.301 148H122.221V146.08H120.301V148Z" fill="#292929"></path> <path d="M21.584 59.024H27.608V55.976L30.272 53.792L33.488 59H40.688L34.76 50.24L40.064 45.584H32.024L27.608 49.88V45.584H21.584V59.024ZM40.6775 52.256C40.6775 56.768 44.0375 59.456 50.1815 59.456C56.3255 59.456 59.6615 56.768 59.6615 52.256C59.6615 47.744 56.3255 45.056 50.1815 45.056C44.0375 45.056 40.6775 47.744 40.6775 52.256ZM47.0375 52.256C47.0375 50.384 48.2855 49.208 50.1575 49.208C52.0295 49.208 53.2775 50.384 53.2775 52.256C53.2775 54.128 52.0295 55.304 50.1575 55.304C48.2855 55.304 47.0375 54.128 47.0375 52.256ZM61.4756 45.512V59H67.4996V53.936L66.7316 48.632L70.3316 59H73.7396L77.3396 48.632L76.5716 53.936V59H82.5956V45.512H74.5796L72.0356 52.52L69.4916 45.512H61.4756ZM85.2768 59H91.3008V49.784L96.3408 49.784V59H102.365V45.512H85.2768V59ZM105.048 63.368L111.072 63.368V57.896C112.56 58.88 114.168 59.336 116.088 59.336C120.696 59.336 123.6 56.552 123.6 52.256C123.6 47.96 120.696 45.152 116.184 45.152C114.048 45.152 112.296 45.68 110.832 46.784L110.784 45.488H105.048V63.368ZM111.072 52.256C111.072 50.408 112.344 49.256 114.168 49.256C116.016 49.256 117.264 50.408 117.264 52.256C117.264 54.08 116.016 55.232 114.168 55.232C112.344 55.232 111.072 54.08 111.072 52.256ZM143.978 54.896H137.426C137.018 55.568 136.034 55.952 134.546 55.952C132.29 55.952 131.042 55.088 131.042 53.648H144.098C144.098 48.176 140.714 45.056 134.186 45.056C127.97 45.056 124.586 47.744 124.586 52.256C124.586 56.768 127.97 59.456 134.186 59.456C139.778 59.456 143.09 57.848 143.978 54.896ZM130.73 50.768C131.042 49.232 132.386 48.416 134.522 48.416C136.514 48.416 137.738 49.28 137.906 50.768H130.73ZM164.332 53.072H157.9C157.612 54.512 156.364 55.424 154.684 55.424C152.692 55.424 151.372 54.2 151.372 52.232C151.372 50.24 152.692 49.016 154.828 49.016C156.292 49.016 157.276 49.64 157.756 50.888H164.212C163.66 47.048 160.444 45.056 154.684 45.056C148.42 45.056 145.012 47.768 145.012 52.256C145.012 56.768 148.42 59.456 154.684 59.456C160.66 59.456 163.9 57.32 164.332 53.072ZM165.344 52.256C165.344 56.768 168.704 59.456 174.848 59.456C180.992 59.456 184.328 56.768 184.328 52.256C184.328 47.744 180.992 45.056 174.848 45.056C168.704 45.056 165.344 47.744 165.344 52.256ZM171.704 52.256C171.704 50.384 172.952 49.208 174.824 49.208C176.696 49.208 177.944 50.384 177.944 52.256C177.944 54.128 176.696 55.304 174.824 55.304C172.952 55.304 171.704 54.128 171.704 52.256ZM186.19 63.368H192.214V57.896C193.702 58.88 195.31 59.336 197.23 59.336C201.838 59.336 204.742 56.552 204.742 52.256C204.742 47.96 201.838 45.152 197.326 45.152C195.19 45.152 193.438 45.68 191.974 46.784L191.926 45.488L186.19 45.488V63.368ZM192.214 52.256C192.214 50.408 193.486 49.256 195.31 49.256C197.158 49.256 198.406 50.408 198.406 52.256C198.406 54.08 197.158 55.232 195.31 55.232C193.486 55.232 192.214 54.08 192.214 52.256ZM206.592 59H212.616V54.392H217.656V59H223.68V45.512H217.656V50.12H212.616V45.512H206.592V59ZM238.627 57.152C238.651 57.824 238.771 58.448 239.011 59H245.275V58.712C244.795 58.352 244.675 57.8 244.675 56.912V51.704C244.675 49.328 244.363 47.816 242.827 46.616C241.579 45.656 239.179 45.152 235.603 45.152C229.531 45.152 226.603 46.256 226.339 49.712H232.555C232.723 48.656 233.707 48.368 235.651 48.368C237.403 48.368 238.339 48.896 238.339 49.592C238.339 50.696 236.371 50.408 232.147 50.696C229.243 50.888 227.179 51.032 225.931 52.592C225.475 53.168 225.211 54.008 225.211 55.016C225.211 57.968 227.419 59.432 231.835 59.432C234.883 59.432 236.995 58.856 238.627 57.152ZM238.603 52.712C238.627 52.832 238.627 52.928 238.627 53.048C238.627 54.776 236.971 55.976 234.259 55.976C232.843 55.976 232.051 55.472 232.051 54.632C232.051 53.792 232.747 53.552 234.355 53.408C235.963 53.264 237.379 53.312 238.603 52.712ZM40.04 77.072H33.608C33.32 78.512 32.072 79.424 30.392 79.424C28.4 79.424 27.08 78.2 27.08 76.232C27.08 74.24 28.4 73.016 30.536 73.016C32 73.016 32.984 73.64 33.464 74.888H39.92C39.368 71.048 36.152 69.056 30.392 69.056C24.128 69.056 20.72 71.768 20.72 76.256C20.72 80.768 24.128 83.456 30.392 83.456C36.368 83.456 39.608 81.32 40.04 77.072ZM45.5165 83H51.5645V73.784H56.6045V69.512H40.4765V73.784H45.5165V83ZM70.1313 81.152C70.1553 81.824 70.2753 82.448 70.5153 83H76.7793V82.712C76.2993 82.352 76.1793 81.8 76.1793 80.912V75.704C76.1793 73.328 75.8673 71.816 74.3313 70.616C73.0833 69.656 70.6833 69.152 67.1073 69.152C61.0353 69.152 58.1073 70.256 57.8433 73.712H64.0593C64.2273 72.656 65.2113 72.368 67.1553 72.368C68.9073 72.368 69.8433 72.896 69.8433 73.592C69.8433 74.696 67.8753 74.408 63.6513 74.696C60.7473 74.888 58.6833 75.032 57.4353 76.592C56.9793 77.168 56.7153 78.008 56.7153 79.016C56.7153 81.968 58.9233 83.432 63.3393 83.432C66.3873 83.432 68.4993 82.856 70.1313 81.152ZM70.1073 76.712C70.1313 76.832 70.1313 76.928 70.1313 77.048C70.1313 78.776 68.4753 79.976 65.7633 79.976C64.3473 79.976 63.5553 79.472 63.5553 78.632C63.5553 77.792 64.2513 77.552 65.8593 77.408C67.4673 77.264 68.8833 77.312 70.1073 76.712ZM78.8081 83H84.8321V78.392H89.8721V83H95.8961V69.512H89.8721V74.12H84.8321V69.512H78.8081V83ZM98.5312 83H111.851V86.48H117.395V78.704H115.595V69.488H109.571V78.704H104.555V69.488H98.5312V83ZM118.962 68.384H125.13V64.952H118.962V68.384ZM118.962 83H125.13V69.488H118.962V83ZM144.169 69.512H134.089C129.601 69.512 127.369 70.64 127.369 73.928C127.369 76.016 128.737 77.432 130.873 78.056L127.081 83H133.417L136.633 78.344H138.145V83H144.169V69.512ZM138.145 75.128H134.977C133.777 75.128 133.417 74.72 133.417 74.024C133.417 73.232 133.753 72.872 134.929 72.872H138.145V75.128Z" fill="#052D1E"></path> </svg> 