<?xml version="1.0" encoding="UTF-8"?> <svg xmlns="http://www.w3.org/2000/svg" width="90" height="344" viewBox="0 0 90 344" fill="none"> <path d="M70 336.89L70 313.4L18.97 313.4L70 298.1L70 278.3L18.97 262.82L70 262.82L70 239.33L4.65999 239.33L4.66 276.32L44.44 288.29L4.66 299.36L4.66 336.89L70 336.89ZM63.07 181.893C65.59 181.803 67.93 181.353 70 180.453L70 156.963L68.92 156.963C67.57 158.763 65.5 159.213 62.17 159.213L42.64 159.213C33.73 159.213 28.06 160.383 23.56 166.143C19.96 170.823 18.07 179.823 18.07 193.233C18.07 216.003 22.21 226.983 35.17 227.973L35.17 204.663C31.21 204.033 30.13 200.343 30.13 193.053C30.13 186.483 32.11 182.973 34.72 182.973C38.86 182.973 37.78 190.353 38.86 206.193C39.58 217.083 40.12 224.823 45.97 229.503C48.13 231.213 51.28 232.203 55.06 232.203C66.13 232.203 71.62 223.923 71.62 207.363C71.62 195.933 69.46 188.013 63.07 181.893ZM46.42 181.983C46.87 181.893 47.23 181.893 47.68 181.893C54.16 181.893 58.66 188.103 58.66 198.273C58.66 203.583 56.77 206.553 53.62 206.553C50.47 206.553 49.57 203.943 49.03 197.913C48.49 191.883 48.67 186.573 46.42 181.983ZM70 149.355L70 126.765L35.44 126.765L35.44 107.865L70 107.865L70 85.2753L19.42 85.2753L19.42 149.355L70 149.355ZM63.07 29.2236C65.59 29.1336 67.93 28.6836 70 27.7836L70 4.29358L68.92 4.29358C67.57 6.09358 65.5 6.54358 62.17 6.54358L42.64 6.54358C33.73 6.54358 28.06 7.71358 23.56 13.4736C19.96 18.1536 18.07 27.1536 18.07 40.5636C18.07 63.3336 22.21 74.3136 35.17 75.3036L35.17 51.9936C31.21 51.3636 30.13 47.6736 30.13 40.3836C30.13 33.8136 32.11 30.3036 34.72 30.3036C38.86 30.3036 37.78 37.6836 38.86 53.5236C39.58 64.4136 40.12 72.1536 45.97 76.8336C48.13 78.5436 51.28 79.5336 55.06 79.5336C66.13 79.5336 71.62 71.2536 71.62 54.6936C71.62 43.2636 69.46 35.3436 63.07 29.2236ZM46.42 29.3136C46.87 29.2236 47.23 29.2236 47.68 29.2236C54.16 29.2236 58.66 35.4336 58.66 45.6036C58.66 50.9136 56.77 53.8836 53.62 53.8836C50.47 53.8836 49.57 51.2736 49.03 45.2436C48.49 39.2136 48.67 33.9036 46.42 29.3136Z" fill="#052D1E"></path> <rect x="87" y="1" width="3" height="337" fill="#052D1E"></rect> </svg> 