<?xml version="1.0" encoding="UTF-8"?> <svg xmlns="http://www.w3.org/2000/svg" width="333" height="164" viewBox="0 0 333 164" fill="none"> <rect width="333" height="164" fill="white"></rect> <path d="M20.768 95.84H26.32V94.736H20.768V95.84ZM41.7975 96.016V95.712C41.7975 92.848 40.0535 91.12 37.1095 91.12C34.2295 91.12 32.3895 92.928 32.3895 95.712C32.3895 98.48 34.2135 100.24 37.1095 100.24C39.3975 100.24 41.0455 99.184 41.6535 97.328H39.8455C39.4935 98.272 38.4695 98.8 37.1095 98.8C35.2695 98.8 34.0375 97.696 34.0375 96.016H41.7975ZM34.0695 94.912C34.3255 93.44 35.4615 92.56 37.1095 92.56C38.7735 92.56 39.8935 93.456 40.1335 94.912H34.0695ZM42.0393 91.392L45.9433 100H47.6713L51.4953 91.392H49.6873L46.8233 98.656L43.8953 91.392H42.0393ZM61.1419 96.016V95.712C61.1419 92.848 59.3979 91.12 56.4539 91.12C53.5739 91.12 51.7339 92.928 51.7339 95.712C51.7339 98.48 53.5579 100.24 56.4539 100.24C58.7419 100.24 60.3899 99.184 60.9979 97.328H59.1899C58.8379 98.272 57.8139 98.8 56.4539 98.8C54.6139 98.8 53.3819 97.696 53.3819 96.016H61.1419ZM53.4139 94.912C53.6699 93.44 54.8059 92.56 56.4539 92.56C58.1179 92.56 59.2379 93.456 59.4779 94.912H53.4139ZM64.1196 91.392H62.5676V100H64.1196V95.632C64.1196 93.712 65.4796 92.432 67.3036 92.432C68.8556 92.432 69.3676 93.264 69.3676 95.008V100H70.9196V94.88C70.9196 92.624 70.2636 91.12 67.6556 91.12C66.1196 91.12 64.9196 91.824 64.1196 92.88V91.392ZM73.2645 89.2V91.392H71.7605V92.704H73.2645V98.256C73.2645 99.6 73.9685 100.24 75.4885 100.24C75.9205 100.24 76.4005 100.176 76.9285 100.096V98.672C76.5125 98.768 76.1765 98.8 75.8725 98.8C75.1045 98.8 74.8165 98.528 74.8165 97.808V92.704H76.9285V91.392H74.8165V89.2H73.2645ZM84.6284 88.384H83.0764V100H84.6284V95.632C84.6284 93.712 85.9884 92.432 87.8124 92.432C89.3644 92.432 89.8764 93.264 89.8764 95.008V100H91.4284V94.88C91.4284 92.624 90.7724 91.12 88.1644 91.12C86.6284 91.12 85.4284 91.824 84.6284 92.88V88.384ZM99.9726 95.584V96.864C99.9726 97.952 98.6446 98.928 96.6606 98.928C95.4446 98.928 94.7566 98.384 94.7566 97.568C94.7566 96.512 95.6846 96.368 97.3646 96.176C98.6606 96.032 99.5246 95.856 99.9726 95.584ZM100.021 98.672C100.181 99.6 100.629 100.096 101.525 100.096C101.813 100.096 102.261 100.064 102.757 99.984V98.736C102.565 98.768 102.421 98.784 102.293 98.784C101.685 98.784 101.525 98.352 101.525 97.456V93.968C101.525 91.872 100.453 91.12 97.5886 91.12C94.9486 91.12 93.5566 92.128 93.4446 94.16H95.0606C95.1406 92.928 95.9566 92.432 97.7006 92.432C99.2526 92.432 99.9726 92.832 99.9726 93.76C99.9726 94.8 98.9806 94.752 97.0766 94.96C94.6286 95.232 93.1086 95.648 93.1086 97.648C93.1086 99.248 94.2446 100.24 96.4046 100.24C97.9886 100.24 99.2366 99.664 100.021 98.672ZM105.57 88.384H104.018V100H105.57V88.384ZM109.359 88.384H107.807V100H109.359V88.384ZM111.9 100H112.844V100.24C112.844 100.96 112.572 101.36 111.9 101.616V102.672C113.356 102.144 113.82 101.424 113.82 100V98.08H111.9V100ZM111.9 93.344H113.82V91.424H111.9V93.344ZM20.768 119.84H26.32V118.736H20.768V119.84ZM34.5015 115.392H32.9495V124H34.5015V119.632C34.5015 117.712 35.8615 116.432 37.6855 116.432C39.2375 116.432 39.7495 117.264 39.7495 119.008V124H41.2535V119.632C41.2535 117.712 42.6135 116.432 44.4375 116.432C45.9895 116.432 46.5015 117.264 46.5015 119.008V124H48.0535V119.072C48.0535 116.64 47.3815 115.12 44.7735 115.12C43.2535 115.12 42.1335 115.76 41.1095 117.024C40.7575 115.856 39.6695 115.12 38.0535 115.12C36.5175 115.12 35.3815 115.808 34.5015 116.88V115.392ZM56.5958 119.584V120.864C56.5958 121.952 55.2678 122.928 53.2838 122.928C52.0678 122.928 51.3798 122.384 51.3798 121.568C51.3798 120.512 52.3078 120.368 53.9878 120.176C55.2838 120.032 56.1478 119.856 56.5958 119.584ZM56.6438 122.672C56.8038 123.6 57.2518 124.096 58.1478 124.096C58.4358 124.096 58.8838 124.064 59.3798 123.984V122.736C59.1878 122.768 59.0438 122.784 58.9158 122.784C58.3078 122.784 58.1478 122.352 58.1478 121.456V117.968C58.1478 115.872 57.0758 115.12 54.2118 115.12C51.5718 115.12 50.1798 116.128 50.0678 118.16H51.6838C51.7638 116.928 52.5798 116.432 54.3238 116.432C55.8758 116.432 56.5958 116.832 56.5958 117.76C56.5958 118.8 55.6038 118.752 53.6998 118.96C51.2518 119.232 49.7318 119.648 49.7318 121.648C49.7318 123.248 50.8678 124.24 53.0278 124.24C54.6118 124.24 55.8598 123.664 56.6438 122.672ZM62.0646 112.384H60.5126V124H62.0646V120.896L63.6646 119.616L67.1046 124H69.2006L64.8166 118.672L68.8966 115.392H66.5926L62.0646 119.152V112.384ZM78.8531 120.016V119.712C78.8531 116.848 77.1091 115.12 74.1651 115.12C71.2851 115.12 69.4451 116.928 69.4451 119.712C69.4451 122.48 71.2691 124.24 74.1651 124.24C76.4531 124.24 78.1011 123.184 78.7091 121.328H76.9011C76.5491 122.272 75.5251 122.8 74.1651 122.8C72.3251 122.8 71.0931 121.696 71.0931 120.016H78.8531ZM71.1251 118.912C71.3811 117.44 72.5171 116.56 74.1651 116.56C75.8291 116.56 76.9491 117.456 77.1891 118.912H71.1251ZM81.8309 115.392H80.2789V124H81.8309V119.792C81.8309 117.968 83.0949 116.72 84.5669 116.72C84.9029 116.72 85.2549 116.768 85.6869 116.896V115.264C85.4789 115.152 85.2709 115.12 84.9989 115.12C83.7189 115.12 82.6149 115.712 81.8309 116.848V115.392ZM99.099 117.984C99.099 116.128 97.755 115.12 95.179 115.12C92.619 115.12 91.307 116.08 91.307 117.856C91.307 119.44 92.315 119.888 94.331 120.224L96.251 120.56C97.339 120.736 97.819 120.96 97.819 121.632C97.819 122.416 96.891 122.928 95.131 122.928C93.643 122.928 92.747 122.304 92.603 121.2H90.907C91.099 123.312 92.459 124.24 95.131 124.24C97.947 124.24 99.371 123.296 99.371 121.552C99.371 120 98.587 119.424 96.667 119.104L94.811 118.8C93.499 118.576 92.859 118.416 92.859 117.584C92.859 116.848 93.643 116.432 95.099 116.432C96.651 116.432 97.483 116.912 97.595 117.984H99.099ZM102.34 115.392H100.788V127.056H102.34V122.736C103.22 123.744 104.276 124.24 105.652 124.24C108.388 124.24 110.276 122.384 110.276 119.712C110.276 117.024 108.388 115.12 105.668 115.12C104.212 115.12 103.06 115.728 102.34 116.688V115.392ZM105.492 116.56C107.444 116.56 108.628 117.776 108.628 119.712C108.628 121.632 107.444 122.8 105.492 122.8C103.54 122.8 102.34 121.616 102.34 119.712C102.34 117.792 103.54 116.56 105.492 116.56ZM118.262 119.584V120.864C118.262 121.952 116.934 122.928 114.95 122.928C113.734 122.928 113.046 122.384 113.046 121.568C113.046 120.512 113.974 120.368 115.654 120.176C116.95 120.032 117.814 119.856 118.262 119.584ZM118.31 122.672C118.47 123.6 118.918 124.096 119.814 124.096C120.102 124.096 120.55 124.064 121.046 123.984V122.736C120.854 122.768 120.71 122.784 120.582 122.784C119.974 122.784 119.814 122.352 119.814 121.456V117.968C119.814 115.872 118.742 115.12 115.878 115.12C113.238 115.12 111.846 116.128 111.734 118.16H113.35C113.43 116.928 114.246 116.432 115.99 116.432C117.542 116.432 118.262 116.832 118.262 117.76C118.262 118.8 117.27 118.752 115.366 118.96C112.918 119.232 111.398 119.648 111.398 121.648C111.398 123.248 112.534 124.24 114.694 124.24C116.278 124.24 117.526 123.664 118.31 122.672ZM130.563 118.256C130.195 116.336 128.563 115.12 126.291 115.12C123.507 115.12 121.619 116.976 121.619 119.712C121.619 122.448 123.523 124.24 126.259 124.24C128.611 124.24 130.259 122.96 130.627 120.784H128.995C128.787 122.048 127.747 122.8 126.323 122.8C124.515 122.8 123.267 121.664 123.267 119.728C123.267 117.776 124.467 116.56 126.435 116.56C127.699 116.56 128.643 117.2 128.947 118.256H130.563ZM140.894 120.016V119.712C140.894 116.848 139.15 115.12 136.206 115.12C133.326 115.12 131.486 116.928 131.486 119.712C131.486 122.48 133.31 124.24 136.206 124.24C138.494 124.24 140.142 123.184 140.75 121.328H138.942C138.59 122.272 137.566 122.8 136.206 122.8C134.366 122.8 133.134 121.696 133.134 120.016H140.894ZM133.166 118.912C133.422 117.44 134.558 116.56 136.206 116.56C137.87 116.56 138.99 117.456 139.23 118.912H133.166ZM142.88 124H144.8V122.08H142.88V124Z" fill="#292929"></path> <path d="M21.68 59H27.8V52.04C27.8 50.336 28.112 49.472 29.216 49.472C30.176 49.472 30.632 50.168 30.632 51.512V51.608H35.96V50.432C35.96 46.832 34.616 45.176 31.472 45.176C29.816 45.176 28.592 45.68 27.728 46.544L27.656 45.512H21.68V59ZM38.0109 44.384H44.0349V40.952H38.0109V44.384ZM38.0109 59H44.0349V45.488H38.0109V59ZM64.6329 56V45.488H58.8969L58.8489 46.784C57.3849 45.656 55.5609 45.152 53.3289 45.152C48.8889 45.152 46.0809 47.768 46.0809 51.632C46.0809 55.52 48.8649 58.112 53.3049 58.112C55.4649 58.112 57.1929 57.656 58.6089 56.6C58.6329 56.888 58.6329 57.104 58.6329 57.344C58.6329 59.12 57.9369 59.864 56.0889 59.864C55.2249 59.864 54.7449 59.624 54.5529 59H46.4649C47.0409 62.144 49.8729 63.488 55.2009 63.488C59.7609 63.488 62.5449 62.48 64.1049 59.888C64.5849 59.072 64.6329 57.776 64.6329 56ZM52.4169 51.752C52.4169 50.216 53.6649 49.208 55.5129 49.208C57.3609 49.208 58.6089 50.216 58.6089 51.752C58.6089 53.312 57.3849 54.296 55.5129 54.296C53.6409 54.296 52.4169 53.312 52.4169 51.752ZM67.4186 59H73.4426V52.376C73.4426 50.888 74.5466 50 76.2986 50C78.0026 50 78.5066 50.768 78.5066 52.664V59H84.5306V51.512C84.5306 47.24 82.8266 45.224 78.7946 45.224C76.7786 45.224 75.0746 45.752 73.4426 46.88V41.432H67.4186V59ZM96.2606 58.976V55.256H95.3966C93.9326 55.256 93.9326 54.512 93.9326 52.4V49.616H96.0926V45.824H93.9326V41.408H87.8366V45.824H85.7006V49.616H87.8366V54.896C87.8366 56.84 88.0766 58.04 89.6846 58.688C90.6446 59.072 91.8446 59.24 93.2846 59.24C94.2686 59.24 95.2526 59.144 96.2606 58.976ZM108.986 59H115.01V52.376C115.01 50.888 116.114 50 117.866 50C119.57 50 120.074 50.768 120.074 52.664V59H126.098V51.512C126.098 47.24 124.394 45.224 120.362 45.224C118.346 45.224 116.642 45.752 115.01 46.88V41.432H108.986V59ZM141.02 57.152C141.044 57.824 141.164 58.448 141.404 59H147.668V58.712C147.188 58.352 147.068 57.8 147.068 56.912V51.704C147.068 49.328 146.756 47.816 145.22 46.616C143.972 45.656 141.572 45.152 137.996 45.152C131.924 45.152 128.996 46.256 128.732 49.712H134.948C135.116 48.656 136.1 48.368 138.044 48.368C139.796 48.368 140.732 48.896 140.732 49.592C140.732 50.696 138.764 50.408 134.54 50.696C131.636 50.888 129.572 51.032 128.324 52.592C127.868 53.168 127.604 54.008 127.604 55.016C127.604 57.968 129.812 59.432 134.228 59.432C137.276 59.432 139.388 58.856 141.02 57.152ZM140.996 52.712C141.02 52.832 141.02 52.928 141.02 53.048C141.02 54.776 139.364 55.976 136.652 55.976C135.236 55.976 134.444 55.472 134.444 54.632C134.444 53.792 135.14 53.552 136.748 53.408C138.356 53.264 139.772 53.312 140.996 52.712ZM149.697 59H155.721V52.4C155.721 50.912 156.825 50.024 158.577 50.024C160.281 50.024 160.761 50.792 160.761 52.664V59L166.785 59V51.536C166.785 47.264 165.105 45.248 161.073 45.248C159.057 45.248 157.353 45.776 155.721 46.904V45.512H149.697V59ZM187.132 56V45.488L181.396 45.488L181.348 46.784C179.884 45.656 178.06 45.152 175.828 45.152C171.388 45.152 168.58 47.768 168.58 51.632C168.58 55.52 171.364 58.112 175.804 58.112C177.964 58.112 179.692 57.656 181.108 56.6C181.132 56.888 181.132 57.104 181.132 57.344C181.132 59.12 180.436 59.864 178.588 59.864C177.724 59.864 177.244 59.624 177.052 59H168.964C169.54 62.144 172.372 63.488 177.7 63.488C182.26 63.488 185.044 62.48 186.604 59.888C187.084 59.072 187.132 57.776 187.132 56ZM174.916 51.752C174.916 50.216 176.164 49.208 178.012 49.208C179.86 49.208 181.108 50.216 181.108 51.752C181.108 53.312 179.884 54.296 178.012 54.296C176.14 54.296 174.916 53.312 174.916 51.752ZM202.182 57.152C202.206 57.824 202.326 58.448 202.566 59H208.83V58.712C208.35 58.352 208.23 57.8 208.23 56.912V51.704C208.23 49.328 207.918 47.816 206.382 46.616C205.134 45.656 202.734 45.152 199.158 45.152C193.086 45.152 190.158 46.256 189.894 49.712H196.11C196.278 48.656 197.262 48.368 199.206 48.368C200.958 48.368 201.894 48.896 201.894 49.592C201.894 50.696 199.926 50.408 195.702 50.696C192.798 50.888 190.734 51.032 189.486 52.592C189.03 53.168 188.766 54.008 188.766 55.016C188.766 57.968 190.974 59.432 195.39 59.432C198.438 59.432 200.55 58.856 202.182 57.152ZM202.158 52.712C202.182 52.832 202.182 52.928 202.182 53.048C202.182 54.776 200.526 55.976 197.814 55.976C196.398 55.976 195.606 55.472 195.606 54.632C195.606 53.792 196.302 53.552 197.91 53.408C199.518 53.264 200.934 53.312 202.158 52.712ZM210.955 59H217.075V52.04C217.075 50.336 217.387 49.472 218.491 49.472C219.451 49.472 219.907 50.168 219.907 51.512V51.608H225.235V50.432C225.235 46.832 223.891 45.176 220.747 45.176C219.091 45.176 217.867 45.68 217.003 46.544L216.931 45.512H210.955V59Z" fill="#052D1E"></path> </svg> 